<svg width="15" height="14" viewBox="0 0 15 14" fill="none" xmlns="http://www.w3.org/2000/svg">
<path d="M14.7753 6.52416L7.07584 0.0766853C7.01673 0.027528 6.94133 0 6.86185 0H5.05824C4.90743 0 4.83814 0.180899 4.95227 0.275281L12.0892 6.25281H0.163038C0.073367 6.25281 0 6.3236 0 6.41011V7.58989C0 7.6764 0.073367 7.74719 0.163038 7.74719H12.0872L4.95023 13.7247C4.83611 13.8211 4.9054 14 5.05621 14H6.92095C6.95967 14 6.99839 13.9862 7.02692 13.9607L14.7753 7.47584C14.8458 7.41665 14.9024 7.34354 14.9412 7.26145C14.9799 7.17936 15 7.09021 15 7C15 6.90979 14.9799 6.82064 14.9412 6.73855C14.9024 6.65646 14.8458 6.58335 14.7753 6.52416Z" fill="#3ACB8C"/>
</svg>
