<svg width="568" height="500" viewBox="0 0 568 500" fill="none" xmlns="http://www.w3.org/2000/svg">
<g clip-path="url(#clip0)">
<g opacity="0.32">
<g opacity="0.11">
<g opacity="0.11">
<path opacity="0.11" d="M565.942 3.41069C565 3.41069 564.237 2.6472 564.237 1.70537C564.237 0.763532 565 0 565.942 0C566.884 0 567.647 0.763532 567.647 1.70537C567.647 2.6472 566.884 3.41069 565.942 3.41069Z" fill="#A630B0"/>
<path opacity="0.11" d="M495.367 3.41069C494.425 3.41069 493.662 2.6472 493.662 1.70537C493.662 0.763532 494.425 0 495.367 0C496.309 0 497.072 0.763532 497.072 1.70537C497.072 2.6472 496.309 3.41069 495.367 3.41069Z" fill="#A630B0"/>
<path opacity="0.11" d="M424.66 3.41069C423.718 3.41069 422.955 2.6472 422.955 1.70537C422.955 0.763532 423.718 0 424.66 0C425.602 0 426.365 0.763532 426.365 1.70537C426.365 2.6472 425.602 3.41069 424.66 3.41069Z" fill="#A630B0"/>
<path opacity="0.11" d="M354.086 3.41069C353.144 3.41069 352.38 2.6472 352.38 1.70537C352.38 0.763532 353.144 0 354.086 0C355.027 0 355.791 0.763532 355.791 1.70537C355.791 2.6472 355.027 3.41069 354.086 3.41069Z" fill="#A630B0"/>
<path opacity="0.11" d="M283.511 3.41069C282.57 3.41069 281.806 2.6472 281.806 1.70537C281.806 0.763532 282.57 0 283.511 0C284.453 0 285.217 0.763532 285.217 1.70537C285.217 2.6472 284.453 3.41069 283.511 3.41069Z" fill="#A630B0"/>
<path opacity="0.11" d="M212.804 3.41069C211.863 3.41069 211.099 2.6472 211.099 1.70537C211.099 0.763532 211.863 0 212.804 0C213.746 0 214.51 0.763532 214.51 1.70537C214.51 2.6472 213.746 3.41069 212.804 3.41069Z" fill="#A630B0"/>
<path opacity="0.11" d="M142.23 3.41069C141.288 3.41069 140.525 2.6472 140.525 1.70537C140.525 0.763532 141.288 0 142.23 0C143.172 0 143.936 0.763532 143.936 1.70537C143.936 2.6472 143.172 3.41069 142.23 3.41069Z" fill="#A630B0"/>
<path opacity="0.11" d="M71.655 3.41069C70.7132 3.41069 69.9497 2.6472 69.9497 1.70537C69.9497 0.763532 70.7132 0 71.655 0C72.5969 0 73.3604 0.763532 73.3604 1.70537C73.3604 2.6472 72.5969 3.41069 71.655 3.41069Z" fill="#A630B0"/>
</g>
<g opacity="0.11">
<path opacity="0.11" d="M565.942 71.0997C565 71.0997 564.237 70.3362 564.237 69.3943C564.237 68.4525 565 67.689 565.942 67.689C566.884 67.689 567.647 68.4525 567.647 69.3943C567.647 70.3362 566.884 71.0997 565.942 71.0997Z" fill="#A630B0"/>
<path opacity="0.11" d="M495.367 71.0997C494.425 71.0997 493.662 70.3362 493.662 69.3943C493.662 68.4525 494.425 67.689 495.367 67.689C496.309 67.689 497.072 68.4525 497.072 69.3943C497.072 70.3362 496.309 71.0997 495.367 71.0997Z" fill="#A630B0"/>
<path opacity="0.11" d="M424.66 71.0997C423.718 71.0997 422.955 70.3362 422.955 69.3943C422.955 68.4525 423.718 67.689 424.66 67.689C425.602 67.689 426.365 68.4525 426.365 69.3943C426.365 70.3362 425.602 71.0997 424.66 71.0997Z" fill="#A630B0"/>
<path opacity="0.11" d="M354.086 71.0997C353.144 71.0997 352.38 70.3362 352.38 69.3943C352.38 68.4525 353.144 67.689 354.086 67.689C355.027 67.689 355.791 68.4525 355.791 69.3943C355.791 70.3362 355.027 71.0997 354.086 71.0997Z" fill="#A630B0"/>
<path opacity="0.11" d="M283.511 71.0997C282.57 71.0997 281.806 70.3362 281.806 69.3943C281.806 68.4525 282.57 67.689 283.511 67.689C284.453 67.689 285.217 68.4525 285.217 69.3943C285.217 70.3362 284.453 71.0997 283.511 71.0997Z" fill="#A630B0"/>
<path opacity="0.11" d="M212.804 71.0997C211.863 71.0997 211.099 70.3362 211.099 69.3943C211.099 68.4525 211.863 67.689 212.804 67.689C213.746 67.689 214.51 68.4525 214.51 69.3943C214.51 70.3362 213.746 71.0997 212.804 71.0997Z" fill="#A630B0"/>
<path opacity="0.11" d="M142.23 71.0997C141.288 71.0997 140.525 70.3362 140.525 69.3943C140.525 68.4525 141.288 67.689 142.23 67.689C143.172 67.689 143.936 68.4525 143.936 69.3943C143.936 70.3362 143.172 71.0997 142.23 71.0997Z" fill="#A630B0"/>
<path opacity="0.11" d="M71.656 71.0997C70.7142 71.0997 69.9507 70.3362 69.9507 69.3943C69.9507 68.4525 70.7142 67.689 71.656 67.689C72.5978 67.689 73.3613 68.4525 73.3613 69.3943C73.3613 70.3362 72.5978 71.0997 71.656 71.0997Z" fill="#A630B0"/>
</g>
<g opacity="0.11">
<path opacity="0.11" d="M565.942 138.657C565 138.657 564.237 137.894 564.237 136.952C564.237 136.01 565 135.247 565.942 135.247C566.884 135.247 567.647 136.01 567.647 136.952C567.647 137.894 566.884 138.657 565.942 138.657Z" fill="#A630B0"/>
<path opacity="0.11" d="M495.367 138.657C494.425 138.657 493.662 137.894 493.662 136.952C493.662 136.01 494.425 135.247 495.367 135.247C496.309 135.247 497.072 136.01 497.072 136.952C497.072 137.894 496.309 138.657 495.367 138.657Z" fill="#A630B0"/>
<path opacity="0.11" d="M424.66 138.657C423.718 138.657 422.955 137.894 422.955 136.952C422.955 136.01 423.718 135.247 424.66 135.247C425.602 135.247 426.365 136.01 426.365 136.952C426.365 137.894 425.602 138.657 424.66 138.657Z" fill="#A630B0"/>
<path opacity="0.11" d="M354.086 138.657C353.144 138.657 352.38 137.894 352.38 136.952C352.38 136.01 353.144 135.247 354.086 135.247C355.027 135.247 355.791 136.01 355.791 136.952C355.791 137.894 355.027 138.657 354.086 138.657Z" fill="#A630B0"/>
<path opacity="0.11" d="M283.511 138.657C282.57 138.657 281.806 137.894 281.806 136.952C281.806 136.01 282.57 135.247 283.511 135.247C284.453 135.247 285.217 136.01 285.217 136.952C285.217 137.894 284.453 138.657 283.511 138.657Z" fill="#A630B0"/>
<path opacity="0.11" d="M212.804 138.657C211.863 138.657 211.099 137.894 211.099 136.952C211.099 136.01 211.863 135.247 212.804 135.247C213.746 135.247 214.51 136.01 214.51 136.952C214.51 137.894 213.746 138.657 212.804 138.657Z" fill="#A630B0"/>
<path opacity="0.11" d="M142.23 138.657C141.288 138.657 140.525 137.894 140.525 136.952C140.525 136.01 141.288 135.247 142.23 135.247C143.172 135.247 143.936 136.01 143.936 136.952C143.936 137.894 143.172 138.657 142.23 138.657Z" fill="#A630B0"/>
<path opacity="0.11" d="M71.656 138.657C70.7142 138.657 69.9507 137.894 69.9507 136.952C69.9507 136.01 70.7142 135.247 71.656 135.247C72.5978 135.247 73.3613 136.01 73.3613 136.952C73.3613 137.894 72.5978 138.657 71.656 138.657Z" fill="#A630B0"/>
</g>
<g opacity="0.11">
<path opacity="0.11" d="M565.942 206.346C565 206.346 564.237 205.583 564.237 204.641C564.237 203.699 565 202.936 565.942 202.936C566.884 202.936 567.647 203.699 567.647 204.641C567.647 205.583 566.884 206.346 565.942 206.346Z" fill="#A630B0"/>
<path opacity="0.11" d="M495.367 206.346C494.425 206.346 493.662 205.583 493.662 204.641C493.662 203.699 494.425 202.936 495.367 202.936C496.309 202.936 497.072 203.699 497.072 204.641C497.072 205.583 496.309 206.346 495.367 206.346Z" fill="#A630B0"/>
<path opacity="0.11" d="M424.66 206.346C423.718 206.346 422.955 205.583 422.955 204.641C422.955 203.699 423.718 202.936 424.66 202.936C425.602 202.936 426.365 203.699 426.365 204.641C426.365 205.583 425.602 206.346 424.66 206.346Z" fill="#A630B0"/>
<path opacity="0.11" d="M354.086 206.346C353.144 206.346 352.38 205.583 352.38 204.641C352.38 203.699 353.144 202.936 354.086 202.936C355.027 202.936 355.791 203.699 355.791 204.641C355.791 205.583 355.027 206.346 354.086 206.346Z" fill="#A630B0"/>
<path opacity="0.11" d="M283.511 206.346C282.57 206.346 281.806 205.583 281.806 204.641C281.806 203.699 282.57 202.936 283.511 202.936C284.453 202.936 285.217 203.699 285.217 204.641C285.217 205.583 284.453 206.346 283.511 206.346Z" fill="#A630B0"/>
<path opacity="0.11" d="M212.804 206.346C211.863 206.346 211.099 205.583 211.099 204.641C211.099 203.699 211.863 202.936 212.804 202.936C213.746 202.936 214.51 203.699 214.51 204.641C214.51 205.583 213.746 206.346 212.804 206.346Z" fill="#A630B0"/>
<path opacity="0.11" d="M142.23 206.346C141.288 206.346 140.525 205.583 140.525 204.641C140.525 203.699 141.288 202.936 142.23 202.936C143.172 202.936 143.936 203.699 143.936 204.641C143.936 205.583 143.172 206.346 142.23 206.346Z" fill="#A630B0"/>
<path opacity="0.11" d="M71.656 206.346C70.7142 206.346 69.9507 205.583 69.9507 204.641C69.9507 203.699 70.7142 202.936 71.656 202.936C72.5978 202.936 73.3613 203.699 73.3613 204.641C73.3613 205.583 72.5978 206.346 71.656 206.346Z" fill="#A630B0"/>
</g>
<g opacity="0.11">
<path opacity="0.11" d="M565.942 274.035C565 274.035 564.237 273.272 564.237 272.33C564.237 271.388 565 270.625 565.942 270.625C566.884 270.625 567.647 271.388 567.647 272.33C567.647 273.272 566.884 274.035 565.942 274.035Z" fill="#A630B0"/>
<path opacity="0.11" d="M495.367 274.035C494.425 274.035 493.662 273.272 493.662 272.33C493.662 271.388 494.425 270.625 495.367 270.625C496.309 270.625 497.072 271.388 497.072 272.33C497.072 273.272 496.309 274.035 495.367 274.035Z" fill="#A630B0"/>
<path opacity="0.11" d="M424.66 274.035C423.718 274.035 422.955 273.272 422.955 272.33C422.955 271.388 423.718 270.625 424.66 270.625C425.602 270.625 426.365 271.388 426.365 272.33C426.365 273.272 425.602 274.035 424.66 274.035Z" fill="#A630B0"/>
<path opacity="0.11" d="M354.086 274.035C353.144 274.035 352.38 273.272 352.38 272.33C352.38 271.388 353.144 270.625 354.086 270.625C355.027 270.625 355.791 271.388 355.791 272.33C355.791 273.272 355.027 274.035 354.086 274.035Z" fill="#A630B0"/>
<path opacity="0.11" d="M283.511 274.035C282.57 274.035 281.806 273.272 281.806 272.33C281.806 271.388 282.57 270.625 283.511 270.625C284.453 270.625 285.217 271.388 285.217 272.33C285.217 273.272 284.453 274.035 283.511 274.035Z" fill="#A630B0"/>
<path opacity="0.11" d="M212.804 274.035C211.863 274.035 211.099 273.272 211.099 272.33C211.099 271.388 211.863 270.625 212.804 270.625C213.746 270.625 214.51 271.388 214.51 272.33C214.51 273.272 213.746 274.035 212.804 274.035Z" fill="#A630B0"/>
<path opacity="0.11" d="M142.23 274.035C141.288 274.035 140.525 273.272 140.525 272.33C140.525 271.388 141.288 270.625 142.23 270.625C143.172 270.625 143.936 271.388 143.936 272.33C143.936 273.272 143.172 274.035 142.23 274.035Z" fill="#A630B0"/>
<path opacity="0.11" d="M71.656 274.035C70.7142 274.035 69.9507 273.272 69.9507 272.33C69.9507 271.388 70.7142 270.625 71.656 270.625C72.5978 270.625 73.3613 271.388 73.3613 272.33C73.3613 273.272 72.5978 274.035 71.656 274.035Z" fill="#A630B0"/>
</g>
<g opacity="0.11">
<path opacity="0.11" d="M565.942 341.593C565 341.593 564.237 340.83 564.237 339.888C564.237 338.946 565 338.182 565.942 338.182C566.884 338.182 567.647 338.946 567.647 339.888C567.647 340.83 566.884 341.593 565.942 341.593Z" fill="#A630B0"/>
<path opacity="0.11" d="M495.367 341.593C494.425 341.593 493.662 340.83 493.662 339.888C493.662 338.946 494.425 338.182 495.367 338.182C496.309 338.182 497.072 338.946 497.072 339.888C497.072 340.83 496.309 341.593 495.367 341.593Z" fill="#A630B0"/>
<path opacity="0.11" d="M424.66 341.593C423.718 341.593 422.955 340.83 422.955 339.888C422.955 338.946 423.718 338.182 424.66 338.182C425.602 338.182 426.365 338.946 426.365 339.888C426.365 340.83 425.602 341.593 424.66 341.593Z" fill="#A630B0"/>
<path opacity="0.11" d="M354.086 341.593C353.144 341.593 352.38 340.83 352.38 339.888C352.38 338.946 353.144 338.182 354.086 338.182C355.027 338.182 355.791 338.946 355.791 339.888C355.791 340.83 355.027 341.593 354.086 341.593Z" fill="#A630B0"/>
<path opacity="0.11" d="M283.511 341.593C282.57 341.593 281.806 340.83 281.806 339.888C281.806 338.946 282.57 338.182 283.511 338.182C284.453 338.182 285.217 338.946 285.217 339.888C285.217 340.83 284.453 341.593 283.511 341.593Z" fill="#A630B0"/>
<path opacity="0.11" d="M212.804 341.593C211.863 341.593 211.099 340.83 211.099 339.888C211.099 338.946 211.863 338.182 212.804 338.182C213.746 338.182 214.51 338.946 214.51 339.888C214.51 340.83 213.746 341.593 212.804 341.593Z" fill="#A630B0"/>
<path opacity="0.11" d="M142.23 341.593C141.288 341.593 140.525 340.83 140.525 339.888C140.525 338.946 141.288 338.182 142.23 338.182C143.172 338.182 143.936 338.946 143.936 339.888C143.936 340.83 143.172 341.593 142.23 341.593Z" fill="#A630B0"/>
<path opacity="0.11" d="M71.656 341.593C70.7142 341.593 69.9507 340.83 69.9507 339.888C69.9507 338.946 70.7142 338.182 71.656 338.182C72.5978 338.182 73.3613 338.946 73.3613 339.888C73.3613 340.83 72.5978 341.593 71.656 341.593Z" fill="#A630B0"/>
</g>
<g opacity="0.11">
<path opacity="0.11" d="M565.942 409.282C565 409.282 564.237 408.518 564.237 407.577C564.237 406.635 565 405.871 565.942 405.871C566.884 405.871 567.647 406.635 567.647 407.577C567.647 408.518 566.884 409.282 565.942 409.282Z" fill="#A630B0"/>
<path opacity="0.11" d="M495.367 409.282C494.425 409.282 493.662 408.518 493.662 407.577C493.662 406.635 494.425 405.871 495.367 405.871C496.309 405.871 497.072 406.635 497.072 407.577C497.072 408.518 496.309 409.282 495.367 409.282Z" fill="#A630B0"/>
<path opacity="0.11" d="M424.66 409.282C423.718 409.282 422.955 408.518 422.955 407.577C422.955 406.635 423.718 405.871 424.66 405.871C425.602 405.871 426.365 406.635 426.365 407.577C426.365 408.518 425.602 409.282 424.66 409.282Z" fill="#A630B0"/>
<path opacity="0.11" d="M354.086 409.282C353.144 409.282 352.38 408.518 352.38 407.577C352.38 406.635 353.144 405.871 354.086 405.871C355.027 405.871 355.791 406.635 355.791 407.577C355.791 408.518 355.027 409.282 354.086 409.282Z" fill="#A630B0"/>
<path opacity="0.11" d="M283.511 409.282C282.57 409.282 281.806 408.518 281.806 407.577C281.806 406.635 282.57 405.871 283.511 405.871C284.453 405.871 285.217 406.635 285.217 407.577C285.217 408.518 284.453 409.282 283.511 409.282Z" fill="#A630B0"/>
<path opacity="0.11" d="M212.804 409.282C211.863 409.282 211.099 408.518 211.099 407.577C211.099 406.635 211.863 405.871 212.804 405.871C213.746 405.871 214.51 406.635 214.51 407.577C214.51 408.518 213.746 409.282 212.804 409.282Z" fill="#A630B0"/>
<path opacity="0.11" d="M142.23 409.282C141.288 409.282 140.525 408.518 140.525 407.577C140.525 406.635 141.288 405.871 142.23 405.871C143.172 405.871 143.936 406.635 143.936 407.577C143.936 408.518 143.172 409.282 142.23 409.282Z" fill="#A630B0"/>
<path opacity="0.11" d="M71.656 409.282C70.7142 409.282 69.9507 408.518 69.9507 407.577C69.9507 406.635 70.7142 405.871 71.656 405.871C72.5978 405.871 73.3613 406.635 73.3613 407.577C73.3613 408.518 72.5978 409.282 71.656 409.282Z" fill="#A630B0"/>
</g>
<g opacity="0.11">
<path opacity="0.11" d="M565.942 476.84C565 476.84 564.237 476.076 564.237 475.135C564.237 474.193 565 473.429 565.942 473.429C566.884 473.429 567.647 474.193 567.647 475.135C567.647 476.076 566.884 476.84 565.942 476.84Z" fill="#A630B0"/>
<path opacity="0.11" d="M495.367 476.84C494.425 476.84 493.662 476.076 493.662 475.135C493.662 474.193 494.425 473.429 495.367 473.429C496.309 473.429 497.072 474.193 497.072 475.135C497.072 476.076 496.309 476.84 495.367 476.84Z" fill="#A630B0"/>
<path opacity="0.11" d="M424.66 476.84C423.718 476.84 422.955 476.076 422.955 475.135C422.955 474.193 423.718 473.429 424.66 473.429C425.602 473.429 426.365 474.193 426.365 475.135C426.365 476.076 425.602 476.84 424.66 476.84Z" fill="#A630B0"/>
<path opacity="0.11" d="M354.086 476.84C353.144 476.84 352.38 476.076 352.38 475.135C352.38 474.193 353.144 473.429 354.086 473.429C355.027 473.429 355.791 474.193 355.791 475.135C355.791 476.076 355.027 476.84 354.086 476.84Z" fill="#A630B0"/>
<path opacity="0.11" d="M283.511 476.84C282.57 476.84 281.806 476.076 281.806 475.135C281.806 474.193 282.57 473.429 283.511 473.429C284.453 473.429 285.217 474.193 285.217 475.135C285.217 476.076 284.453 476.84 283.511 476.84Z" fill="#A630B0"/>
<path opacity="0.11" d="M212.804 476.84C211.863 476.84 211.099 476.076 211.099 475.135C211.099 474.193 211.863 473.429 212.804 473.429C213.746 473.429 214.51 474.193 214.51 475.135C214.51 476.076 213.746 476.84 212.804 476.84Z" fill="#A630B0"/>
<path opacity="0.11" d="M142.23 476.84C141.288 476.84 140.525 476.076 140.525 475.135C140.525 474.193 141.288 473.429 142.23 473.429C143.172 473.429 143.936 474.193 143.936 475.135C143.936 476.076 143.172 476.84 142.23 476.84Z" fill="#A630B0"/>
<path opacity="0.11" d="M71.656 476.84C70.7142 476.84 69.9507 476.076 69.9507 475.135C69.9507 474.193 70.7142 473.429 71.656 473.429C72.5978 473.429 73.3613 474.193 73.3613 475.135C73.3613 476.076 72.5978 476.84 71.656 476.84Z" fill="#A630B0"/>
</g>
</g>
</g>
<path opacity="0.25" d="M253.464 252.954C253.464 252.954 268.417 289.795 308.514 265.965C348.61 242.134 351.919 217.757 428.803 241.176C505.688 264.595 533.61 263.225 550.152 236.382C566.561 209.539 597.659 172.151 663.163 176.122C728.8 180.094 762.545 88.1976 809.787 73.2696C857.03 58.3415 891.304 104.358 891.304 104.358V577.536H-0.000596439C-0.000596439 577.536 29.9549 505.224 80.638 483.174C131.321 461.125 124.043 446.334 128.807 409.356C133.439 372.515 230.835 347.589 224.086 293.492C217.337 239.258 253.464 252.954 253.464 252.954Z" fill="url(#paint0_radial)"/>
<path opacity="0.25" d="M874.668 110.828C869.008 107.163 768.924 82.6346 737.449 151.709C705.974 220.783 672.567 221.629 622.179 225.858C571.654 230.087 586.977 230.933 530.654 268.008C474.469 305.082 441.337 285.77 400.337 272.519C359.337 259.268 293.902 290.985 241.72 263.356C189.4 235.726 187.33 281.118 187.33 281.118C187.33 281.118 201.825 320.589 159.582 348.359C117.34 375.989 138.047 407.848 126.313 458.455C114.579 509.063 -0.000652071 584.058 -0.000652071 584.058L895.651 536.411L874.668 110.828Z" fill="url(#paint1_radial)"/>
<path d="M863.352 124.129C863.352 124.129 847.777 198.743 782.073 207.093C716.37 215.443 714.276 213.019 689.277 246.959C664.147 281.033 650.666 300.023 605.904 287.767C561.142 275.511 521.877 246.42 485.23 269.989C448.582 293.558 367.565 333.558 283.931 240.763C200.296 147.968 227.782 287.767 227.782 287.767C227.782 287.767 285.763 339.754 201.212 386.353C171.371 403.727 176.214 455.849 166.397 489.519C156.581 523.189 76.2187 588.375 76.2187 588.375C76.2187 588.375 691.764 641.035 695.821 641.709C699.879 642.382 929.71 511.876 929.71 511.876L863.352 124.129Z" fill="url(#paint2_radial)"/>
<path d="M264.488 447.062C256.592 447.062 250.19 440.66 250.19 432.763C250.19 424.866 256.592 418.465 264.488 418.465C272.385 418.465 278.787 424.866 278.787 432.763C278.787 440.66 272.385 447.062 264.488 447.062Z" fill="url(#paint3_linear)"/>
<path d="M392.003 442.702C380.412 442.702 371.015 433.305 371.015 421.714C371.015 410.122 380.412 400.725 392.003 400.725C403.595 400.725 412.992 410.122 412.992 421.714C412.992 433.305 403.595 442.702 392.003 442.702Z" fill="url(#paint4_linear)"/>
<path d="M521.208 280.463L520.159 282.3L518.453 283.218L520.159 284.267L521.208 285.973L522.126 284.267L523.963 283.218L522.126 282.3L521.208 280.463Z" fill="#FEA7AF"/>
<path d="M416.789 403.117L416.134 404.297L414.953 404.953L416.134 405.609L416.789 406.79L417.445 405.609L418.626 404.953L417.445 404.297L416.789 403.117Z" fill="#FEA7AF"/>
<path d="M414.953 298.172L414.297 299.353L413.116 300.009L414.297 300.665L414.953 301.846L415.608 300.665L416.789 300.009L415.608 299.353L414.953 298.172Z" fill="#FEA7AF"/>
<path opacity="0.29" d="M264.488 321.391L263.177 323.753L260.947 324.933L263.177 326.245L264.488 328.606L265.8 326.245L268.03 324.933L265.8 323.753L264.488 321.391Z" fill="white"/>
<path opacity="0.29" d="M274.852 494.418L273.672 496.648L271.31 497.96L273.672 499.272L274.852 501.502L276.164 499.272L278.525 497.96L276.164 496.648L274.852 494.418Z" fill="white"/>
<path opacity="0.29" d="M505.991 436.961L505.466 438.011L504.286 438.667L505.466 439.191L505.991 440.372L506.647 439.191L507.696 438.667L506.647 438.011L505.991 436.961Z" fill="#FEA7AF"/>
<path opacity="0.29" d="M491.955 487.072L491.299 488.253L490.249 488.777L491.299 489.433L491.955 490.483L492.479 489.433L493.66 488.777L492.479 488.253L491.955 487.072Z" fill="#FEA7AF"/>
<path opacity="0.29" d="M361.431 300.14L360.775 301.19L359.726 301.846L360.775 302.37L361.431 303.551L361.956 302.37L363.137 301.846L361.956 301.19L361.431 300.14Z" fill="#FEA7AF"/>
<path opacity="0.29" d="M292.561 405.084L291.905 406.134L290.856 406.79L291.905 407.314L292.561 408.364L293.086 407.314L294.267 406.79L293.086 406.134L292.561 405.084Z" fill="white"/>
<path opacity="0.29" d="M334.539 257.507L334.014 258.687L332.833 259.212L334.014 259.868L334.539 260.917L335.195 259.868L336.244 259.212L335.195 258.687L334.539 257.507Z" fill="white"/>
<path opacity="0.29" d="M476.082 337.002L475.033 339.101L473.065 340.15L475.033 341.2L476.082 343.298L477.263 341.2L479.23 340.15L477.263 339.101L476.082 337.002Z" fill="#FEA7AF"/>
<path d="M355.397 447.849L354.872 448.767L353.954 449.292L354.872 449.817L355.397 450.866L355.922 449.817L356.84 449.292L355.922 448.767L355.397 447.849Z" fill="white"/>
<path d="M327.849 341.724L327.324 342.774L326.406 343.299L327.324 343.823L327.849 344.741L328.373 343.823L329.423 343.299L328.373 342.774L327.849 341.724Z" fill="white"/>
<path opacity="0.33" d="M414.952 451.916L414.296 453.096L412.984 453.752L414.296 454.539L414.952 455.72L415.608 454.539L416.92 453.752L415.608 453.096L414.952 451.916Z" fill="#FEA7AF"/>
<path opacity="0.33" d="M383.076 489.958L382.42 491.139L381.24 491.926L382.42 492.581L383.076 493.762L383.863 492.581L385.044 491.926L383.863 491.139L383.076 489.958Z" fill="#FEA7AF"/>
<path opacity="0.33" d="M387.011 350.251L386.355 351.432L385.043 352.219L386.355 352.875L387.011 354.055L387.667 352.875L388.848 352.219L387.667 351.432L387.011 350.251Z" fill="#FEA7AF"/>
<path opacity="0.33" d="M491.955 379.111L491.299 380.422L489.987 381.078L491.299 381.734L491.955 383.046L492.61 381.734L493.791 381.078L492.61 380.422L491.955 379.111Z" fill="#FEA7AF"/>
<path opacity="0.33" d="M216.87 395.902L216.214 397.214L215.034 397.869L216.214 398.525L216.87 399.837L217.657 398.525L218.838 397.869L217.657 397.214L216.87 395.902Z" fill="#FEA7AF"/>
<path d="M450.039 317.13L398.747 364.224C398.485 364.486 398.485 364.88 398.747 365.273C399.01 365.535 399.403 365.536 399.797 365.404L452.662 320.147C453.449 319.491 453.581 318.179 452.793 317.392C452.006 316.474 450.826 316.474 450.039 317.13Z" fill="url(#paint5_linear)"/>
<path d="M430.887 335.102L399.535 363.961C399.404 364.093 399.404 364.355 399.535 364.617C399.666 364.748 399.928 364.748 400.191 364.617L432.592 336.938C433.117 336.545 433.117 335.758 432.723 335.233C432.199 334.708 431.412 334.708 430.887 335.102Z" fill="url(#paint6_linear)"/>
<g opacity="0.33">
<path opacity="0.33" d="M389.897 300.534L365.235 323.097C365.104 323.228 365.104 323.49 365.235 323.621C365.366 323.753 365.629 323.753 365.76 323.621L391.078 301.846C391.471 301.452 391.471 300.927 391.209 300.534C390.815 300.271 390.29 300.14 389.897 300.534Z" fill="url(#paint7_linear)"/>
<path opacity="0.33" d="M380.715 309.192L365.629 323.097C365.498 323.228 365.498 323.359 365.629 323.359C365.76 323.49 365.891 323.49 365.891 323.359L381.371 309.979C381.633 309.716 381.633 309.454 381.371 309.192C381.239 308.929 380.977 308.929 380.715 309.192Z" fill="url(#paint8_linear)"/>
</g>
<path d="M285.346 346.709L254.125 375.438C253.994 375.569 253.994 375.831 254.125 376.094C254.256 376.225 254.519 376.225 254.781 376.094L286.92 348.546C287.445 348.152 287.445 347.365 287.052 346.84C286.527 346.316 285.871 346.184 285.346 346.709Z" fill="url(#paint9_linear)"/>
<path d="M273.671 357.597L254.519 375.175C254.387 375.306 254.387 375.438 254.519 375.569C254.65 375.7 254.781 375.7 254.912 375.569L274.589 358.647C274.851 358.384 274.983 357.991 274.72 357.597C274.458 357.335 273.933 357.335 273.671 357.597Z" fill="url(#paint10_linear)"/>
<path d="M373.187 258.163C373.187 262.229 373.712 266.165 374.761 269.838C379.878 287.547 396.144 300.534 415.559 300.534C437.203 300.534 455.044 284.267 457.667 263.41C457.93 261.704 457.93 259.868 457.93 258.163C457.93 251.21 456.224 244.782 453.338 239.01C446.386 225.236 431.956 215.791 415.427 215.791C398.112 215.791 383.288 226.155 376.598 240.978C374.499 246.225 373.187 252.128 373.187 258.163Z" fill="url(#paint11_linear)"/>
<path d="M376.861 240.978C397.325 230.484 404.408 234.812 426.315 242.683C438.778 247.143 447.96 243.208 453.47 239.01C446.517 225.236 432.087 215.791 415.559 215.791C398.374 215.791 383.551 226.155 376.861 240.978Z" fill="url(#paint12_linear)"/>
<path d="M374.892 269.969C380.008 287.678 396.274 300.665 415.689 300.665C437.334 300.665 455.174 284.399 457.798 263.541C452.026 268.788 442.843 274.429 429.725 273.642C407.425 272.33 390.24 256.457 374.892 269.969Z" fill="url(#paint13_linear)"/>
<path d="M135.546 381.313C136.858 385.117 138.564 388.659 140.794 391.676C151.157 406.631 170.44 413.583 188.543 407.418C208.745 400.596 220.289 379.739 216.091 359.406C215.698 357.7 215.304 355.995 214.779 354.421C212.549 347.993 209.007 342.484 204.416 338.023C193.528 327.398 177.131 323.069 161.783 328.316C145.647 333.826 135.022 348.124 133.579 364.128C132.923 369.638 133.579 375.541 135.546 381.313Z" fill="url(#paint14_linear)"/>
<path d="M133.448 363.997C149.32 347.731 157.191 349.567 180.148 349.961C193.266 350.223 200.481 343.664 204.416 338.023C193.528 327.398 177.131 323.069 161.782 328.316C145.647 333.694 135.022 348.124 133.448 363.997Z" fill="url(#paint15_linear)"/>
<path d="M140.794 391.676C151.157 406.631 170.44 413.583 188.543 407.418C208.745 400.596 220.289 379.739 216.091 359.406C212.418 366.096 205.597 374.36 193.135 377.64C171.883 383.543 150.895 374.36 140.794 391.676Z" fill="url(#paint16_linear)"/>
<path d="M227.629 151.382L305.287 260.524L320.373 249.767L242.714 140.625C237.074 132.754 230.384 125.802 222.775 120.03L216.347 115.176C216.216 115.045 215.954 114.914 215.823 114.914C213.855 113.996 211.362 115.963 212.149 118.193L214.642 125.933C217.659 134.853 221.988 143.511 227.629 151.382Z" fill="url(#paint17_linear)"/>
<path d="M231.302 148.627L309.092 257.9L320.373 249.898L242.714 140.756C237.074 132.886 230.384 125.933 222.775 120.161L216.347 115.308C216.216 115.176 215.954 115.045 215.823 115.045C215.823 115.308 215.823 115.439 215.954 115.701L218.446 123.441C221.463 132.23 225.792 140.888 231.302 148.627Z" fill="#FFECFF"/>
<path d="M230.515 149.152L308.174 258.294L319.455 250.292L241.796 141.15C236.156 133.279 229.466 126.326 221.857 120.555L215.429 115.701C215.298 115.57 215.036 115.438 214.905 115.438C214.905 115.701 214.905 115.832 215.036 116.094L217.528 123.834C220.545 132.623 224.874 141.281 230.515 149.152Z" fill="url(#paint18_linear)"/>
<path d="M306.206 271.805L330.736 254.358L314.47 241.503L299.384 252.259L306.206 271.805Z" fill="url(#paint19_radial)"/>
<path d="M312.24 267.608L330.736 254.358L314.47 241.503L305.287 247.931L312.24 267.608Z" fill="#CC7DFF"/>
<path d="M310.928 268.263L330.736 254.358L313.158 242.29L304.107 248.718L310.928 268.263Z" fill="url(#paint20_radial)"/>
<path d="M310.928 269.969L327.981 257.9L327.326 256.851L310.141 268.919L310.928 269.969Z" fill="url(#paint21_radial)"/>
<path d="M299.385 252.26L314.471 241.503L314.208 240.978L298.991 251.735L299.385 252.26Z" fill="url(#paint22_radial)"/>
<path d="M173.32 191.523L250.979 300.665L266.064 289.908L188.406 180.766C182.765 172.896 176.075 165.943 168.466 160.171L162.039 155.317C161.907 155.186 161.645 155.055 161.514 155.055C159.546 154.137 157.054 156.104 157.841 158.335L160.333 166.074C163.35 175.126 167.679 183.652 173.32 191.523Z" fill="url(#paint23_linear)"/>
<path d="M177.124 188.9L254.783 298.041L266.064 290.04L188.406 180.898C182.765 173.027 176.075 166.074 168.466 160.302L162.039 155.449C161.907 155.317 161.645 155.186 161.514 155.186C161.514 155.449 161.514 155.58 161.645 155.842L164.138 163.582C167.155 172.371 171.484 181.029 177.124 188.9Z" fill="#DDA9FF"/>
<path d="M176.731 189.293L254.389 298.435L265.671 290.433L188.012 181.291C182.372 173.42 175.681 166.468 168.073 160.696L161.645 155.842C161.514 155.711 161.252 155.58 161.12 155.58C161.12 155.842 161.12 155.973 161.252 156.235L163.744 163.975C166.761 172.764 171.09 181.422 176.731 189.293Z" fill="url(#paint24_linear)"/>
<path d="M251.897 311.947L276.428 294.5L260.161 281.644L245.076 292.401L251.897 311.947Z" fill="url(#paint25_radial)"/>
<path d="M257.931 307.749L276.428 294.5L260.161 281.644L251.11 288.203L257.931 307.749Z" fill="#CC7DFF"/>
<path d="M257.012 308.405L275.509 295.287L259.242 282.3L250.191 288.859L257.012 308.405Z" fill="url(#paint26_radial)"/>
<path d="M256.619 310.241L273.673 298.041L273.017 296.992L255.964 309.192L256.619 310.241Z" fill="url(#paint27_radial)"/>
<path d="M245.075 292.401L260.161 281.644L259.899 281.25L244.813 292.007L245.075 292.401Z" fill="url(#paint28_radial)"/>
<path d="M166.499 154.793L270.918 301.321L315.913 269.313L211.494 122.654C200.212 106.781 184.471 94.5811 166.368 87.4973L157.054 83.8243C152.463 81.9878 147.478 85.5296 147.609 90.5145L148.003 100.484C148.79 120.03 155.217 138.92 166.499 154.793Z" fill="url(#paint29_linear)"/>
<path d="M175.944 148.103L280.363 294.762L315.913 269.444L211.494 122.785C200.212 106.912 184.471 94.7124 166.368 87.6286L157.054 83.9556L157.448 93.9253C158.235 113.34 164.662 132.099 175.944 148.103Z" fill="#CC7DFF"/>
<path d="M175.551 148.102L279.839 294.762L315.389 269.444L210.969 122.785C199.688 106.912 183.946 94.7121 165.843 87.6284L156.53 83.9553L156.923 93.925C157.841 113.471 164.269 132.23 175.551 148.102Z" fill="url(#paint30_linear)"/>
<path d="M169.91 130.131C170.172 130 170.304 129.869 170.566 129.737C170.697 129.737 170.697 129.606 170.828 129.606C170.959 129.475 171.091 129.475 171.353 129.344C171.484 129.344 171.484 129.344 171.615 129.213C171.747 129.213 171.878 129.081 172.14 129.081C172.271 129.081 172.402 129.081 172.402 128.95C172.534 128.95 172.665 128.819 172.927 128.819C173.058 128.819 173.19 128.819 173.19 128.819C173.321 128.819 173.452 128.819 173.714 128.819C173.845 128.819 173.977 128.819 174.108 128.819C174.239 128.819 174.37 128.819 174.632 128.819C174.764 128.819 174.895 128.819 175.026 128.819C175.157 128.819 175.288 128.819 175.42 128.95C175.551 128.95 175.682 128.95 175.813 129.081C175.813 129.081 175.813 129.081 175.944 129.081C176.207 129.213 176.338 129.213 176.6 129.344C179.748 130.656 182.766 132.23 185.652 133.804C199.294 141.412 211.232 152.038 220.414 164.762L253.865 211.725L303.32 224.056L324.44 251.473L323.784 251.866L325.358 253.834L301.09 267.739L299.909 268.395L308.567 275.479C310.01 276.659 310.01 279.02 308.436 280.07L306.6 281.382L307.911 283.349L294.4 293.057L293.088 291.089L288.89 294.106L294.531 302.37C295.056 303.158 294.793 304.076 294.138 304.601C294.006 304.601 294.006 304.732 293.875 304.732C293.744 304.863 293.744 304.863 293.613 304.994C292.826 305.519 291.907 305.388 291.252 304.601L285.217 296.467L281.807 298.829L283.118 300.796L269.738 310.504L268.426 308.536L266.196 310.11C264.622 311.16 262.392 310.504 261.736 308.798L257.801 298.304L257.014 298.96L235.762 317.456L234.451 315.357L234.319 315.488L215.692 286.366L220.152 236.518L186.308 189.031C180.798 181.291 176.338 172.764 173.058 163.844C170.959 158.072 169.385 152.038 168.336 145.873C167.811 142.593 167.286 139.313 167.155 135.903C167.024 133.542 168.205 131.443 169.91 130.131Z" fill="url(#paint31_linear)"/>
<path d="M285.217 273.642L330.736 250.292L308.567 220.907L238.385 203.46L285.217 273.642Z" fill="#FFDCFF"/>
<path d="M284.43 274.56L329.031 248.98L309.354 223.138L237.468 204.51L284.43 274.56Z" fill="url(#paint32_radial)"/>
<path d="M278.658 278.233L241.272 314.045L221.201 282.956L227.629 210.938L278.658 278.233Z" fill="#FFE4FF"/>
<path d="M286.135 275.872L306.468 264.197L330.736 250.292L309.354 223.138L273.148 214.217L239.173 205.822L286.135 275.872Z" fill="url(#paint33_radial)"/>
<path d="M306.468 264.197L330.736 250.292L309.354 223.138L273.148 214.217L306.468 264.197Z" fill="url(#paint34_radial)"/>
<path d="M241.272 314.045L262.523 295.549L279.97 280.201L229.072 213.037L225.924 247.406L222.644 284.923L241.272 314.045Z" fill="url(#paint35_radial)"/>
<path d="M241.272 314.045L262.523 295.549L225.924 247.406L222.645 284.923L241.272 314.045Z" fill="url(#paint36_radial)"/>
<path d="M191.817 185.62L266.196 290.04L299.909 266.034L225.53 161.614C216.347 148.759 204.541 138.133 190.767 130.656C187.881 129.081 184.733 127.507 181.716 126.196C181.454 126.064 181.322 126.064 181.06 125.933C178.961 125.277 176.862 125.671 175.288 126.851C173.583 128.163 172.402 130.262 172.533 132.755C172.796 136.034 173.189 139.445 173.714 142.724C174.763 148.89 176.338 154.793 178.436 160.696C181.847 169.354 186.307 177.88 191.817 185.62Z" fill="url(#paint37_linear)"/>
<path d="M200.343 179.586L274.722 284.005L300.04 266.033L225.661 161.614C216.478 148.758 204.672 138.133 190.898 130.656C188.012 129.081 184.864 127.507 181.847 126.195C181.584 126.064 181.453 126.064 181.191 125.933C181.191 126.195 181.191 126.458 181.191 126.72C181.453 130 181.847 133.41 182.372 136.69C183.421 142.855 184.995 148.758 187.094 154.662C190.373 163.319 194.834 171.715 200.343 179.586Z" fill="#FFE4FF"/>
<path d="M199.424 180.11L273.803 284.53L299.121 266.558L224.742 162.139C215.559 149.283 203.753 138.657 189.979 131.18C187.093 129.606 183.945 128.032 180.928 126.72C180.665 126.589 180.534 126.589 180.272 126.458C180.272 126.72 180.272 126.982 180.272 127.245C180.534 130.524 180.928 133.935 181.453 137.215C182.502 143.38 184.076 149.283 186.175 155.186C189.455 163.844 193.915 172.371 199.424 180.11Z" fill="url(#paint38_linear)"/>
<path d="M271.574 306.699L313.814 276.659C315.388 275.61 315.52 273.248 313.945 272.068L284.561 247.931C280.494 244.52 274.591 244.389 270.394 247.406L258.194 256.064C253.865 259.081 252.16 264.722 253.996 269.706L267.245 305.387C267.901 307.093 270.131 307.88 271.574 306.699Z" fill="#FFE7FF"/>
<path d="M255.571 271.412L268.558 306.437C269.214 308.142 271.312 308.929 272.887 307.749L291.908 294.237L294.925 292.138L314.34 278.364C315.914 277.315 315.914 275.085 314.471 273.773L285.611 250.03C281.545 246.75 275.904 246.488 271.706 249.505L267.771 252.26L263.048 255.67L259.637 258.032C255.44 261.049 253.734 266.558 255.571 271.412Z" fill="url(#paint39_linear)"/>
<path d="M299.858 288.559L313.431 278.898L314.8 280.822L301.227 290.483L299.858 288.559Z" fill="#7C26A4"/>
<path d="M275.207 306.128L288.779 296.467L290.149 298.391L276.576 308.052L275.207 306.128Z" fill="#7C26A4"/>
<path d="M190.243 163.319C190.505 163.057 190.768 162.795 190.899 162.27C191.948 155.842 198.114 151.382 204.673 152.563C205.46 152.694 206.378 152.169 206.509 151.251C206.641 150.464 206.116 149.545 205.198 149.414C197.064 148.103 189.325 153.612 187.882 161.745C187.751 162.532 188.275 163.451 189.194 163.582C189.587 163.582 189.981 163.451 190.243 163.319Z" fill="url(#paint40_linear)"/>
<path d="M173.845 142.462C176.206 135.772 181.716 131.705 190.898 130.524C188.012 128.95 184.864 127.376 181.847 126.064C179.617 125.146 177.256 125.54 175.419 126.72C173.714 128.032 172.533 130.131 172.664 132.623C172.927 135.903 173.32 139.182 173.845 142.462Z" fill="url(#paint41_linear)"/>
<path opacity="0.42" d="M261.867 254.096L263.047 255.67L291.776 294.368L294.793 292.269L267.639 252.391L266.458 250.685C264.097 250.554 262.654 251.997 261.867 254.096Z" fill="#552C84"/>
<path d="M267.639 249.767C265.015 249.767 263.572 251.079 262.916 253.178L298.335 300.796C298.859 301.583 299.909 301.714 300.696 301.19C301.483 300.665 301.614 299.616 301.089 298.96L267.639 249.767Z" fill="url(#paint42_linear)"/>
</g>
<defs>
<radialGradient id="paint0_radial" cx="0" cy="0" r="1" gradientUnits="userSpaceOnUse" gradientTransform="translate(449.42 323.862) rotate(180) scale(357.356 369.839)">
<stop offset="0.00537634" stop-color="#3ACB8C"/>
<stop offset="1" stop-color="#67219E"/>
</radialGradient>
<radialGradient id="paint1_radial" cx="0" cy="0" r="1" gradientUnits="userSpaceOnUse" gradientTransform="translate(261.519 209.523) rotate(180) scale(562.653 574.557)">
<stop offset="0.00537634" stop-color="#3ACB8C"/>
<stop offset="1" stop-color="#67219E"/>
</radialGradient>
<radialGradient id="paint2_radial" cx="0" cy="0" r="1" gradientUnits="userSpaceOnUse" gradientTransform="translate(219.416 362.795) rotate(180) scale(786.513 809.333)">
<stop offset="0.00537634" stop-color="#3ACB8C"/>
<stop offset="1" stop-color="#67219E"/>
</radialGradient>
<linearGradient id="paint3_linear" x1="271.054" y1="421.312" x2="257.808" y2="444.521" gradientUnits="userSpaceOnUse">
<stop offset="0.00537634" stop-color="#FEA7AF"/>
<stop offset="0.9731" stop-color="#EA47AC"/>
</linearGradient>
<linearGradient id="paint4_linear" x1="401.613" y1="404.78" x2="382.111" y2="438.949" gradientUnits="userSpaceOnUse">
<stop offset="0.00537634" stop-color="#FEA7AF"/>
<stop offset="0.9731" stop-color="#EA47AC"/>
</linearGradient>
<linearGradient id="paint5_linear" x1="398.801" y1="365.23" x2="452.777" y2="317.283" gradientUnits="userSpaceOnUse">
<stop offset="0.00537634" stop-color="#FEA7AF"/>
<stop offset="0.9946" stop-color="#EA47AC" stop-opacity="0"/>
</linearGradient>
<linearGradient id="paint6_linear" x1="399.496" y1="364.612" x2="432.573" y2="335.23" gradientUnits="userSpaceOnUse">
<stop offset="0.00537634" stop-color="#3ACB8C"/>
<stop offset="0.9946" stop-color="#EA47AC" stop-opacity="0"/>
</linearGradient>
<linearGradient id="paint7_linear" x1="365.282" y1="323.623" x2="391.197" y2="300.603" gradientUnits="userSpaceOnUse">
<stop offset="0.00537634" stop-color="#FEA7AF"/>
<stop offset="0.9946" stop-color="#EA47AC" stop-opacity="0"/>
</linearGradient>
<linearGradient id="paint8_linear" x1="365.616" y1="323.327" x2="381.497" y2="309.22" gradientUnits="userSpaceOnUse">
<stop offset="0.00537634" stop-color="#FEA7AF"/>
<stop offset="0.9946" stop-color="#EA47AC" stop-opacity="0"/>
</linearGradient>
<linearGradient id="paint9_linear" x1="254.138" y1="375.957" x2="287.02" y2="346.748" gradientUnits="userSpaceOnUse">
<stop offset="0.00537634" stop-color="#FEA7AF"/>
<stop offset="0.9946" stop-color="#EA47AC" stop-opacity="0"/>
</linearGradient>
<linearGradient id="paint10_linear" x1="254.561" y1="375.58" x2="274.711" y2="357.681" gradientUnits="userSpaceOnUse">
<stop offset="0.00537634" stop-color="#FEA7AF"/>
<stop offset="0.9946" stop-color="#EA47AC" stop-opacity="0"/>
</linearGradient>
<linearGradient id="paint11_linear" x1="458.128" y1="258.207" x2="373.243" y2="258.207" gradientUnits="userSpaceOnUse">
<stop offset="0.00537634" stop-color="#FEA7AF"/>
<stop offset="0.9731" stop-color="#EA47AC"/>
</linearGradient>
<linearGradient id="paint12_linear" x1="453.55" y1="230.21" x2="376.884" y2="230.21" gradientUnits="userSpaceOnUse">
<stop offset="0.00537634" stop-color="#FEA7AF"/>
<stop offset="0.0453408" stop-color="#FDA1AF"/>
<stop offset="0.3245" stop-color="#F57AAE"/>
<stop offset="0.5813" stop-color="#EF5EAD"/>
<stop offset="0.8058" stop-color="#EB4DAC"/>
<stop offset="0.9731" stop-color="#EA47AC"/>
</linearGradient>
<linearGradient id="paint13_linear" x1="457.801" y1="282.057" x2="374.873" y2="282.057" gradientUnits="userSpaceOnUse">
<stop offset="0.00537634" stop-color="#FEA7AF"/>
<stop offset="0.126" stop-color="#FA93AE"/>
<stop offset="0.3615" stop-color="#F372AD"/>
<stop offset="0.5869" stop-color="#EE5AAD"/>
<stop offset="0.7962" stop-color="#EB4CAC"/>
<stop offset="0.9731" stop-color="#EA47AC"/>
</linearGradient>
<linearGradient id="paint14_linear" x1="214.72" y1="354.496" x2="135.533" y2="381.27" gradientUnits="userSpaceOnUse">
<stop offset="0.00537634" stop-color="#DE3DBF"/>
<stop offset="1" stop-color="#67219E"/>
</linearGradient>
<linearGradient id="paint15_linear" x1="201.618" y1="329.823" x2="130.099" y2="354.005" gradientUnits="userSpaceOnUse">
<stop offset="0.00537634" stop-color="#DE3DBF"/>
<stop offset="0.1175" stop-color="#CA38BA"/>
<stop offset="0.3936" stop-color="#A02EAE"/>
<stop offset="0.6424" stop-color="#8127A5"/>
<stop offset="0.853" stop-color="#6E23A0"/>
<stop offset="1" stop-color="#67219E"/>
</linearGradient>
<linearGradient id="paint16_linear" x1="221.939" y1="376.847" x2="144.577" y2="403.004" gradientUnits="userSpaceOnUse">
<stop offset="0.00537634" stop-color="#DE3DBF"/>
<stop offset="0.1162" stop-color="#C337B8"/>
<stop offset="0.2799" stop-color="#A22FAE"/>
<stop offset="0.4483" stop-color="#8829A7"/>
<stop offset="0.6212" stop-color="#7624A2"/>
<stop offset="0.8012" stop-color="#6B229F"/>
<stop offset="1" stop-color="#67219E"/>
</linearGradient>
<linearGradient id="paint17_linear" x1="270.514" y1="179.729" x2="255.422" y2="190.471" gradientUnits="userSpaceOnUse">
<stop offset="0.00537634" stop-color="#A02CC2"/>
<stop offset="0.0148044" stop-color="#9F2CC1"/>
<stop offset="0.3274" stop-color="#7222A6"/>
<stop offset="0.607" stop-color="#521B92"/>
<stop offset="0.8407" stop-color="#3E1786"/>
<stop offset="1" stop-color="#371582"/>
</linearGradient>
<linearGradient id="paint18_linear" x1="270.057" y1="180.755" x2="258.739" y2="188.812" gradientUnits="userSpaceOnUse">
<stop offset="0.00537634" stop-color="#A02CC2"/>
<stop offset="0.0148044" stop-color="#9F2CC1"/>
<stop offset="0.3274" stop-color="#7222A6"/>
<stop offset="0.607" stop-color="#521B92"/>
<stop offset="0.8407" stop-color="#3E1786"/>
<stop offset="1" stop-color="#371582"/>
</linearGradient>
<radialGradient id="paint19_radial" cx="0" cy="0" r="1" gradientUnits="userSpaceOnUse" gradientTransform="translate(317.796 230.552) rotate(144.557) scale(37.6875)">
<stop offset="0.00537634" stop-color="#A02CC2"/>
<stop offset="1" stop-color="#371582"/>
</radialGradient>
<radialGradient id="paint20_radial" cx="0" cy="0" r="1" gradientUnits="userSpaceOnUse" gradientTransform="translate(317.173 230.769) rotate(144.557) scale(33.5611)">
<stop offset="0.00537634" stop-color="#A02CC2"/>
<stop offset="1" stop-color="#371582"/>
</radialGradient>
<radialGradient id="paint21_radial" cx="0" cy="0" r="1" gradientUnits="userSpaceOnUse" gradientTransform="translate(328.883 255.153) rotate(144.557) scale(20.4871)">
<stop offset="0.00537634" stop-color="#A02CC2"/>
<stop offset="1" stop-color="#371582"/>
</radialGradient>
<radialGradient id="paint22_radial" cx="0" cy="0" r="1" gradientUnits="userSpaceOnUse" gradientTransform="translate(315.664 239.701) rotate(144.556) scale(18.099 9.18455)">
<stop stop-color="#371582"/>
<stop offset="0.9946" stop-color="#A02CC2"/>
</radialGradient>
<linearGradient id="paint23_linear" x1="216.216" y1="219.919" x2="201.125" y2="230.661" gradientUnits="userSpaceOnUse">
<stop offset="0.00537634" stop-color="#A02CC2"/>
<stop offset="0.0148044" stop-color="#9F2CC1"/>
<stop offset="0.3274" stop-color="#7222A6"/>
<stop offset="0.607" stop-color="#521B92"/>
<stop offset="0.8407" stop-color="#3E1786"/>
<stop offset="1" stop-color="#371582"/>
</linearGradient>
<linearGradient id="paint24_linear" x1="216.238" y1="220.818" x2="204.92" y2="228.875" gradientUnits="userSpaceOnUse">
<stop offset="0.00537634" stop-color="#A02CC2"/>
<stop offset="0.0148044" stop-color="#9F2CC1"/>
<stop offset="0.3274" stop-color="#7222A6"/>
<stop offset="0.607" stop-color="#521B92"/>
<stop offset="0.8407" stop-color="#3E1786"/>
<stop offset="1" stop-color="#371582"/>
</linearGradient>
<radialGradient id="paint25_radial" cx="0" cy="0" r="1" gradientUnits="userSpaceOnUse" gradientTransform="translate(263.498 270.743) rotate(144.557) scale(37.6874)">
<stop offset="0.00537634" stop-color="#A02CC2"/>
<stop offset="1" stop-color="#371582"/>
</radialGradient>
<radialGradient id="paint26_radial" cx="0" cy="0" r="1" gradientUnits="userSpaceOnUse" gradientTransform="translate(261.95 271.888) rotate(144.557) scale(32.4374)">
<stop offset="0.00537634" stop-color="#A02CC2"/>
<stop offset="1" stop-color="#371582"/>
</radialGradient>
<radialGradient id="paint27_radial" cx="0" cy="0" r="1" gradientUnits="userSpaceOnUse" gradientTransform="translate(274.585 295.344) rotate(144.557) scale(20.487)">
<stop offset="0.00537634" stop-color="#A02CC2"/>
<stop offset="1" stop-color="#371582"/>
</radialGradient>
<radialGradient id="paint28_radial" cx="0" cy="0" r="1" gradientUnits="userSpaceOnUse" gradientTransform="translate(261.366 279.891) rotate(144.556) scale(18.099 9.18454)">
<stop stop-color="#371582"/>
<stop offset="0.9946" stop-color="#A02CC2"/>
</radialGradient>
<linearGradient id="paint29_linear" x1="244.503" y1="169.002" x2="199.493" y2="201.04" gradientUnits="userSpaceOnUse">
<stop offset="0.00537634" stop-color="#A02CC2"/>
<stop offset="1" stop-color="#371582"/>
</linearGradient>
<linearGradient id="paint30_linear" x1="244.953" y1="170.415" x2="209.383" y2="195.733" gradientUnits="userSpaceOnUse">
<stop offset="0.00537634" stop-color="#A02CC2"/>
<stop offset="1" stop-color="#371582"/>
</linearGradient>
<linearGradient id="paint31_linear" x1="256.301" y1="171.907" x2="225.053" y2="240.516" gradientUnits="userSpaceOnUse">
<stop offset="0.00537634" stop-color="#DE3DBF"/>
<stop offset="1" stop-color="#67219E"/>
</linearGradient>
<radialGradient id="paint32_radial" cx="0" cy="0" r="1" gradientUnits="userSpaceOnUse" gradientTransform="translate(263.603 147.525) rotate(144.559) scale(95.3915 124.527)">
<stop stop-color="#67219E"/>
<stop offset="0.9946" stop-color="#DE3DBF"/>
</radialGradient>
<radialGradient id="paint33_radial" cx="0" cy="0" r="1" gradientUnits="userSpaceOnUse" gradientTransform="translate(265.315 148.831) rotate(144.557) scale(117.27)">
<stop offset="0.00537634" stop-color="#DE3DBF"/>
<stop offset="1" stop-color="#67219E"/>
</radialGradient>
<radialGradient id="paint34_radial" cx="0" cy="0" r="1" gradientUnits="userSpaceOnUse" gradientTransform="translate(283.988 179.443) rotate(144.557) scale(79.4169)">
<stop offset="0.00537634" stop-color="#DE3DBF"/>
<stop offset="1" stop-color="#67219E"/>
</radialGradient>
<radialGradient id="paint35_radial" cx="0" cy="0" r="1" gradientUnits="userSpaceOnUse" gradientTransform="translate(217.529 182.844) rotate(144.557) scale(117.271)">
<stop offset="0.00537634" stop-color="#DE3DBF"/>
<stop offset="1" stop-color="#67219E"/>
</radialGradient>
<radialGradient id="paint36_radial" cx="0" cy="0" r="1" gradientUnits="userSpaceOnUse" gradientTransform="translate(217.115 226.538) rotate(144.557) scale(79.8501)">
<stop offset="0.00537634" stop-color="#DE3DBF"/>
<stop offset="1" stop-color="#67219E"/>
</radialGradient>
<linearGradient id="paint37_linear" x1="148.971" y1="253.897" x2="213.149" y2="213.272" gradientUnits="userSpaceOnUse">
<stop offset="0.00537634" stop-color="#DE3DBF"/>
<stop offset="1" stop-color="#67219E"/>
</linearGradient>
<linearGradient id="paint38_linear" x1="245.932" y1="192.005" x2="220.673" y2="209.985" gradientUnits="userSpaceOnUse">
<stop offset="0.00537634" stop-color="#DE3DBF"/>
<stop offset="1" stop-color="#67219E"/>
</linearGradient>
<linearGradient id="paint39_linear" x1="315.533" y1="277.872" x2="254.851" y2="277.872" gradientUnits="userSpaceOnUse">
<stop offset="0.00537634" stop-color="#DE3DBF"/>
<stop offset="1" stop-color="#67219E"/>
</linearGradient>
<linearGradient id="paint40_linear" x1="205.021" y1="148.462" x2="186.996" y2="161.292" gradientUnits="userSpaceOnUse">
<stop offset="0.00537634" stop-color="#DE3DBF"/>
<stop offset="1" stop-color="#67219E"/>
</linearGradient>
<linearGradient id="paint41_linear" x1="188.136" y1="126.337" x2="166.333" y2="139.736" gradientUnits="userSpaceOnUse">
<stop offset="0.00537634" stop-color="#DE3DBF"/>
<stop offset="1" stop-color="#67219E"/>
</linearGradient>
<linearGradient id="paint42_linear" x1="255.984" y1="239.983" x2="304.152" y2="302.881" gradientUnits="userSpaceOnUse">
<stop offset="0.00537634" stop-color="#DE3DBF"/>
<stop offset="1" stop-color="#67219E"/>
</linearGradient>
<clipPath id="clip0">
<rect width="567.391" height="500" fill="white"/>
</clipPath>
</defs>
</svg>
