<svg width="976" height="797" viewBox="0 0 976 797" fill="none" xmlns="http://www.w3.org/2000/svg">
<g opacity="0.32">
<g opacity="0.11">
<g opacity="0.11">
<path opacity="0.11" d="M975.969 4.70675C974.669 4.70675 973.616 3.65314 973.616 2.3534C973.616 1.05367 974.669 0 975.969 0C977.269 0 978.322 1.05367 978.322 2.3534C978.322 3.65314 977.269 4.70675 975.969 4.70675Z" fill="#A630B0"/>
<path opacity="0.11" d="M878.394 4.70675C877.094 4.70675 876.04 3.65314 876.04 2.3534C876.04 1.05367 877.094 0 878.394 0C879.693 0 880.747 1.05367 880.747 2.3534C880.747 3.65314 879.693 4.70675 878.394 4.70675Z" fill="#A630B0"/>
<path opacity="0.11" d="M781 4.70675C779.7 4.70675 778.647 3.65314 778.647 2.3534C778.647 1.05367 779.7 0 781 0C782.3 0 783.354 1.05367 783.354 2.3534C783.354 3.65314 782.3 4.70675 781 4.70675Z" fill="#A630B0"/>
<path opacity="0.11" d="M683.607 4.70675C682.307 4.70675 681.254 3.65314 681.254 2.3534C681.254 1.05367 682.307 0 683.607 0C684.907 0 685.96 1.05367 685.96 2.3534C685.96 3.65314 684.907 4.70675 683.607 4.70675Z" fill="#A630B0"/>
<path opacity="0.11" d="M586.032 4.70675C584.733 4.70675 583.679 3.65314 583.679 2.3534C583.679 1.05367 584.733 0 586.032 0C587.332 0 588.386 1.05367 588.386 2.3534C588.386 3.65314 587.332 4.70675 586.032 4.70675Z" fill="#A630B0"/>
<path opacity="0.11" d="M488.639 4.70675C487.339 4.70675 486.285 3.65314 486.285 2.3534C486.285 1.05367 487.339 0 488.639 0C489.939 0 490.992 1.05367 490.992 2.3534C490.992 3.65314 489.939 4.70675 488.639 4.70675Z" fill="#A630B0"/>
<path opacity="0.11" d="M391.246 4.70675C389.947 4.70675 388.893 3.65314 388.893 2.3534C388.893 1.05367 389.947 0 391.246 0C392.546 0 393.6 1.05367 393.6 2.3534C393.6 3.65314 392.546 4.70675 391.246 4.70675Z" fill="#A630B0"/>
<path opacity="0.11" d="M293.671 4.70675C292.372 4.70675 291.318 3.65314 291.318 2.3534C291.318 1.05367 292.372 0 293.671 0C294.971 0 296.025 1.05367 296.025 2.3534C296.025 3.65314 294.971 4.70675 293.671 4.70675Z" fill="#A630B0"/>
<path opacity="0.11" d="M196.278 4.70675C194.978 4.70675 193.925 3.65314 193.925 2.3534C193.925 1.05367 194.978 0 196.278 0C197.578 0 198.631 1.05367 198.631 2.3534C198.631 3.65314 197.578 4.70675 196.278 4.70675Z" fill="#A630B0"/>
<path opacity="0.11" d="M98.8854 4.70675C97.5857 4.70675 96.5321 3.65314 96.5321 2.3534C96.5321 1.05367 97.5857 0 98.8854 0C100.185 0 101.239 1.05367 101.239 2.3534C101.239 3.65314 100.185 4.70675 98.8854 4.70675Z" fill="#A630B0"/>
</g>
<g opacity="0.11">
<path opacity="0.11" d="M975.969 98.1175C974.669 98.1175 973.616 97.0638 973.616 95.7641C973.616 94.4644 974.669 93.4107 975.969 93.4107C977.269 93.4107 978.322 94.4644 978.322 95.7641C978.322 97.0638 977.269 98.1175 975.969 98.1175Z" fill="#A630B0"/>
<path opacity="0.11" d="M878.394 98.1175C877.094 98.1175 876.04 97.0638 876.04 95.7641C876.04 94.4644 877.094 93.4107 878.394 93.4107C879.693 93.4107 880.747 94.4644 880.747 95.7641C880.747 97.0638 879.693 98.1175 878.394 98.1175Z" fill="#A630B0"/>
<path opacity="0.11" d="M781 98.1175C779.7 98.1175 778.647 97.0638 778.647 95.7641C778.647 94.4644 779.7 93.4107 781 93.4107C782.3 93.4107 783.354 94.4644 783.354 95.7641C783.354 97.0638 782.3 98.1175 781 98.1175Z" fill="#A630B0"/>
<path opacity="0.11" d="M683.607 98.1175C682.307 98.1175 681.254 97.0638 681.254 95.7641C681.254 94.4644 682.307 93.4107 683.607 93.4107C684.907 93.4107 685.96 94.4644 685.96 95.7641C685.96 97.0638 684.907 98.1175 683.607 98.1175Z" fill="#A630B0"/>
<path opacity="0.11" d="M586.032 98.1175C584.733 98.1175 583.679 97.0638 583.679 95.7641C583.679 94.4644 584.733 93.4107 586.032 93.4107C587.332 93.4107 588.386 94.4644 588.386 95.7641C588.386 97.0638 587.332 98.1175 586.032 98.1175Z" fill="#A630B0"/>
<path opacity="0.11" d="M488.639 98.1175C487.339 98.1175 486.285 97.0638 486.285 95.7641C486.285 94.4644 487.339 93.4107 488.639 93.4107C489.939 93.4107 490.992 94.4644 490.992 95.7641C490.992 97.0638 489.939 98.1175 488.639 98.1175Z" fill="#A630B0"/>
<path opacity="0.11" d="M391.246 98.1175C389.947 98.1175 388.893 97.0638 388.893 95.7641C388.893 94.4644 389.947 93.4107 391.246 93.4107C392.546 93.4107 393.6 94.4644 393.6 95.7641C393.6 97.0638 392.546 98.1175 391.246 98.1175Z" fill="#A630B0"/>
<path opacity="0.11" d="M293.671 98.1175C292.372 98.1175 291.318 97.0638 291.318 95.7641C291.318 94.4644 292.372 93.4107 293.671 93.4107C294.971 93.4107 296.025 94.4644 296.025 95.7641C296.025 97.0638 294.971 98.1175 293.671 98.1175Z" fill="#A630B0"/>
<path opacity="0.11" d="M196.278 98.1175C194.978 98.1175 193.925 97.0638 193.925 95.7641C193.925 94.4644 194.978 93.4107 196.278 93.4107C197.578 93.4107 198.631 94.4644 198.631 95.7641C198.631 97.0638 197.578 98.1175 196.278 98.1175Z" fill="#A630B0"/>
<path opacity="0.11" d="M98.8854 98.1175C97.5857 98.1175 96.5321 97.0638 96.5321 95.7641C96.5321 94.4644 97.5857 93.4107 98.8854 93.4107C100.185 93.4107 101.239 94.4644 101.239 95.7641C101.239 97.0638 100.185 98.1175 98.8854 98.1175Z" fill="#A630B0"/>
</g>
<g opacity="0.11">
<path opacity="0.11" d="M975.969 191.347C974.669 191.347 973.616 190.294 973.616 188.994C973.616 187.694 974.669 186.64 975.969 186.64C977.269 186.64 978.322 187.694 978.322 188.994C978.322 190.294 977.269 191.347 975.969 191.347Z" fill="#A630B0"/>
<path opacity="0.11" d="M878.394 191.347C877.094 191.347 876.04 190.294 876.04 188.994C876.04 187.694 877.094 186.64 878.394 186.64C879.693 186.64 880.747 187.694 880.747 188.994C880.747 190.294 879.693 191.347 878.394 191.347Z" fill="#A630B0"/>
<path opacity="0.11" d="M781 191.347C779.7 191.347 778.647 190.294 778.647 188.994C778.647 187.694 779.7 186.64 781 186.64C782.3 186.64 783.354 187.694 783.354 188.994C783.354 190.294 782.3 191.347 781 191.347Z" fill="#A630B0"/>
<path opacity="0.11" d="M683.607 191.347C682.307 191.347 681.254 190.294 681.254 188.994C681.254 187.694 682.307 186.64 683.607 186.64C684.907 186.64 685.96 187.694 685.96 188.994C685.96 190.294 684.907 191.347 683.607 191.347Z" fill="#A630B0"/>
<path opacity="0.11" d="M586.032 191.347C584.733 191.347 583.679 190.294 583.679 188.994C583.679 187.694 584.733 186.64 586.032 186.64C587.332 186.64 588.386 187.694 588.386 188.994C588.386 190.294 587.332 191.347 586.032 191.347Z" fill="#A630B0"/>
<path opacity="0.11" d="M488.639 191.347C487.339 191.347 486.285 190.294 486.285 188.994C486.285 187.694 487.339 186.64 488.639 186.64C489.939 186.64 490.992 187.694 490.992 188.994C490.992 190.294 489.939 191.347 488.639 191.347Z" fill="#A630B0"/>
<path opacity="0.11" d="M391.246 191.347C389.947 191.347 388.893 190.294 388.893 188.994C388.893 187.694 389.947 186.64 391.246 186.64C392.546 186.64 393.6 187.694 393.6 188.994C393.6 190.294 392.546 191.347 391.246 191.347Z" fill="#A630B0"/>
<path opacity="0.11" d="M293.671 191.347C292.372 191.347 291.318 190.294 291.318 188.994C291.318 187.694 292.372 186.64 293.671 186.64C294.971 186.64 296.025 187.694 296.025 188.994C296.025 190.294 294.971 191.347 293.671 191.347Z" fill="#A630B0"/>
<path opacity="0.11" d="M196.278 191.347C194.978 191.347 193.925 190.294 193.925 188.994C193.925 187.694 194.978 186.64 196.278 186.64C197.578 186.64 198.631 187.694 198.631 188.994C198.631 190.294 197.578 191.347 196.278 191.347Z" fill="#A630B0"/>
<path opacity="0.11" d="M98.8854 191.347C97.5857 191.347 96.5321 190.294 96.5321 188.994C96.5321 187.694 97.5857 186.64 98.8854 186.64C100.185 186.64 101.239 187.694 101.239 188.994C101.239 190.294 100.185 191.347 98.8854 191.347Z" fill="#A630B0"/>
</g>
<g opacity="0.11">
<path opacity="0.11" d="M975.969 284.758C974.669 284.758 973.616 283.704 973.616 282.405C973.616 281.105 974.669 280.051 975.969 280.051C977.269 280.051 978.322 281.105 978.322 282.405C978.322 283.704 977.269 284.758 975.969 284.758Z" fill="#A630B0"/>
<path opacity="0.11" d="M878.394 284.758C877.094 284.758 876.04 283.704 876.04 282.405C876.04 281.105 877.094 280.051 878.394 280.051C879.693 280.051 880.747 281.105 880.747 282.405C880.747 283.704 879.693 284.758 878.394 284.758Z" fill="#A630B0"/>
<path opacity="0.11" d="M781 284.758C779.7 284.758 778.647 283.704 778.647 282.405C778.647 281.105 779.7 280.051 781 280.051C782.3 280.051 783.354 281.105 783.354 282.405C783.354 283.704 782.3 284.758 781 284.758Z" fill="#A630B0"/>
<path opacity="0.11" d="M683.607 284.758C682.307 284.758 681.254 283.704 681.254 282.405C681.254 281.105 682.307 280.051 683.607 280.051C684.907 280.051 685.96 281.105 685.96 282.405C685.96 283.704 684.907 284.758 683.607 284.758Z" fill="#A630B0"/>
<path opacity="0.11" d="M586.032 284.758C584.733 284.758 583.679 283.704 583.679 282.405C583.679 281.105 584.733 280.051 586.032 280.051C587.332 280.051 588.386 281.105 588.386 282.405C588.386 283.704 587.332 284.758 586.032 284.758Z" fill="#A630B0"/>
<path opacity="0.11" d="M488.639 284.758C487.339 284.758 486.285 283.704 486.285 282.405C486.285 281.105 487.339 280.051 488.639 280.051C489.939 280.051 490.992 281.105 490.992 282.405C490.992 283.704 489.939 284.758 488.639 284.758Z" fill="#A630B0"/>
<path opacity="0.11" d="M391.246 284.758C389.947 284.758 388.893 283.704 388.893 282.405C388.893 281.105 389.947 280.051 391.246 280.051C392.546 280.051 393.6 281.105 393.6 282.405C393.6 283.704 392.546 284.758 391.246 284.758Z" fill="#A630B0"/>
<path opacity="0.11" d="M293.671 284.758C292.372 284.758 291.318 283.704 291.318 282.405C291.318 281.105 292.372 280.051 293.671 280.051C294.971 280.051 296.025 281.105 296.025 282.405C296.025 283.704 294.971 284.758 293.671 284.758Z" fill="#A630B0"/>
<path opacity="0.11" d="M196.278 284.758C194.978 284.758 193.925 283.704 193.925 282.405C193.925 281.105 194.978 280.051 196.278 280.051C197.578 280.051 198.631 281.105 198.631 282.405C198.631 283.704 197.578 284.758 196.278 284.758Z" fill="#A630B0"/>
<path opacity="0.11" d="M98.8854 284.758C97.5857 284.758 96.5321 283.704 96.5321 282.405C96.5321 281.105 97.5857 280.051 98.8854 280.051C100.185 280.051 101.239 281.105 101.239 282.405C101.239 283.704 100.185 284.758 98.8854 284.758Z" fill="#A630B0"/>
</g>
<g opacity="0.11">
<path opacity="0.11" d="M975.969 378.169C974.669 378.169 973.616 377.115 973.616 375.815C973.616 374.516 974.669 373.462 975.969 373.462C977.269 373.462 978.322 374.516 978.322 375.815C978.322 377.115 977.269 378.169 975.969 378.169Z" fill="#A630B0"/>
<path opacity="0.11" d="M878.394 378.169C877.094 378.169 876.04 377.115 876.04 375.815C876.04 374.516 877.094 373.462 878.394 373.462C879.693 373.462 880.747 374.516 880.747 375.815C880.747 377.115 879.693 378.169 878.394 378.169Z" fill="#A630B0"/>
<path opacity="0.11" d="M781 378.169C779.7 378.169 778.647 377.115 778.647 375.815C778.647 374.516 779.7 373.462 781 373.462C782.3 373.462 783.354 374.516 783.354 375.815C783.354 377.115 782.3 378.169 781 378.169Z" fill="#A630B0"/>
<path opacity="0.11" d="M683.607 378.169C682.307 378.169 681.254 377.115 681.254 375.815C681.254 374.516 682.307 373.462 683.607 373.462C684.907 373.462 685.96 374.516 685.96 375.815C685.96 377.115 684.907 378.169 683.607 378.169Z" fill="#A630B0"/>
<path opacity="0.11" d="M586.032 378.169C584.733 378.169 583.679 377.115 583.679 375.815C583.679 374.516 584.733 373.462 586.032 373.462C587.332 373.462 588.386 374.516 588.386 375.815C588.386 377.115 587.332 378.169 586.032 378.169Z" fill="#A630B0"/>
<path opacity="0.11" d="M488.639 378.169C487.339 378.169 486.285 377.115 486.285 375.815C486.285 374.516 487.339 373.462 488.639 373.462C489.939 373.462 490.992 374.516 490.992 375.815C490.992 377.115 489.939 378.169 488.639 378.169Z" fill="#A630B0"/>
<path opacity="0.11" d="M391.246 378.169C389.947 378.169 388.893 377.115 388.893 375.815C388.893 374.516 389.947 373.462 391.246 373.462C392.546 373.462 393.6 374.516 393.6 375.815C393.6 377.115 392.546 378.169 391.246 378.169Z" fill="#A630B0"/>
<path opacity="0.11" d="M293.671 378.169C292.372 378.169 291.318 377.115 291.318 375.815C291.318 374.516 292.372 373.462 293.671 373.462C294.971 373.462 296.025 374.516 296.025 375.815C296.025 377.115 294.971 378.169 293.671 378.169Z" fill="#A630B0"/>
<path opacity="0.11" d="M196.278 378.169C194.978 378.169 193.925 377.115 193.925 375.815C193.925 374.516 194.978 373.462 196.278 373.462C197.578 373.462 198.631 374.516 198.631 375.815C198.631 377.115 197.578 378.169 196.278 378.169Z" fill="#A630B0"/>
<path opacity="0.11" d="M98.8854 378.169C97.5857 378.169 96.5321 377.115 96.5321 375.815C96.5321 374.516 97.5857 373.462 98.8854 373.462C100.185 373.462 101.239 374.516 101.239 375.815C101.239 377.115 100.185 378.169 98.8854 378.169Z" fill="#A630B0"/>
</g>
<g opacity="0.11">
<path opacity="0.11" d="M975.969 471.399C974.669 471.399 973.616 470.345 973.616 469.045C973.616 467.745 974.669 466.692 975.969 466.692C977.269 466.692 978.322 467.745 978.322 469.045C978.322 470.345 977.269 471.399 975.969 471.399Z" fill="#A630B0"/>
<path opacity="0.11" d="M878.394 471.399C877.094 471.399 876.04 470.345 876.04 469.045C876.04 467.745 877.094 466.692 878.394 466.692C879.693 466.692 880.747 467.745 880.747 469.045C880.747 470.345 879.693 471.399 878.394 471.399Z" fill="#A630B0"/>
<path opacity="0.11" d="M781 471.399C779.7 471.399 778.647 470.345 778.647 469.045C778.647 467.745 779.7 466.692 781 466.692C782.3 466.692 783.354 467.745 783.354 469.045C783.354 470.345 782.3 471.399 781 471.399Z" fill="#A630B0"/>
<path opacity="0.11" d="M683.607 471.399C682.307 471.399 681.254 470.345 681.254 469.045C681.254 467.745 682.307 466.692 683.607 466.692C684.907 466.692 685.96 467.745 685.96 469.045C685.96 470.345 684.907 471.399 683.607 471.399Z" fill="#A630B0"/>
<path opacity="0.11" d="M586.032 471.399C584.733 471.399 583.679 470.345 583.679 469.045C583.679 467.745 584.733 466.692 586.032 466.692C587.332 466.692 588.386 467.745 588.386 469.045C588.386 470.345 587.332 471.399 586.032 471.399Z" fill="#A630B0"/>
<path opacity="0.11" d="M488.639 471.399C487.339 471.399 486.285 470.345 486.285 469.045C486.285 467.745 487.339 466.692 488.639 466.692C489.939 466.692 490.992 467.745 490.992 469.045C490.992 470.345 489.939 471.399 488.639 471.399Z" fill="#A630B0"/>
<path opacity="0.11" d="M391.246 471.399C389.947 471.399 388.893 470.345 388.893 469.045C388.893 467.745 389.947 466.692 391.246 466.692C392.546 466.692 393.6 467.745 393.6 469.045C393.6 470.345 392.546 471.399 391.246 471.399Z" fill="#A630B0"/>
<path opacity="0.11" d="M293.671 471.399C292.372 471.399 291.318 470.345 291.318 469.045C291.318 467.745 292.372 466.692 293.671 466.692C294.971 466.692 296.025 467.745 296.025 469.045C296.025 470.345 294.971 471.399 293.671 471.399Z" fill="#A630B0"/>
<path opacity="0.11" d="M196.278 471.399C194.978 471.399 193.925 470.345 193.925 469.045C193.925 467.745 194.978 466.692 196.278 466.692C197.578 466.692 198.631 467.745 198.631 469.045C198.631 470.345 197.578 471.399 196.278 471.399Z" fill="#A630B0"/>
<path opacity="0.11" d="M98.8854 471.399C97.5857 471.399 96.5321 470.345 96.5321 469.045C96.5321 467.745 97.5857 466.692 98.8854 466.692C100.185 466.692 101.239 467.745 101.239 469.045C101.239 470.345 100.185 471.399 98.8854 471.399Z" fill="#A630B0"/>
</g>
<g opacity="0.11">
<path opacity="0.11" d="M975.969 564.809C974.669 564.809 973.616 563.756 973.616 562.456C973.616 561.156 974.669 560.103 975.969 560.103C977.269 560.103 978.322 561.156 978.322 562.456C978.322 563.756 977.269 564.809 975.969 564.809Z" fill="#A630B0"/>
<path opacity="0.11" d="M878.394 564.809C877.094 564.809 876.04 563.756 876.04 562.456C876.04 561.156 877.094 560.103 878.394 560.103C879.693 560.103 880.747 561.156 880.747 562.456C880.747 563.756 879.693 564.809 878.394 564.809Z" fill="#A630B0"/>
<path opacity="0.11" d="M781 564.809C779.7 564.809 778.647 563.756 778.647 562.456C778.647 561.156 779.7 560.103 781 560.103C782.3 560.103 783.354 561.156 783.354 562.456C783.354 563.756 782.3 564.809 781 564.809Z" fill="#A630B0"/>
<path opacity="0.11" d="M683.607 564.809C682.307 564.809 681.254 563.756 681.254 562.456C681.254 561.156 682.307 560.103 683.607 560.103C684.907 560.103 685.96 561.156 685.96 562.456C685.96 563.756 684.907 564.809 683.607 564.809Z" fill="#A630B0"/>
<path opacity="0.11" d="M586.032 564.809C584.733 564.809 583.679 563.756 583.679 562.456C583.679 561.156 584.733 560.103 586.032 560.103C587.332 560.103 588.386 561.156 588.386 562.456C588.386 563.756 587.332 564.809 586.032 564.809Z" fill="#A630B0"/>
<path opacity="0.11" d="M488.639 564.809C487.339 564.809 486.285 563.756 486.285 562.456C486.285 561.156 487.339 560.103 488.639 560.103C489.939 560.103 490.992 561.156 490.992 562.456C490.992 563.756 489.939 564.809 488.639 564.809Z" fill="#A630B0"/>
<path opacity="0.11" d="M391.246 564.809C389.947 564.809 388.893 563.756 388.893 562.456C388.893 561.156 389.947 560.103 391.246 560.103C392.546 560.103 393.6 561.156 393.6 562.456C393.6 563.756 392.546 564.809 391.246 564.809Z" fill="#A630B0"/>
<path opacity="0.11" d="M293.671 564.809C292.372 564.809 291.318 563.756 291.318 562.456C291.318 561.156 292.372 560.103 293.671 560.103C294.971 560.103 296.025 561.156 296.025 562.456C296.025 563.756 294.971 564.809 293.671 564.809Z" fill="#A630B0"/>
<path opacity="0.11" d="M196.278 564.809C194.978 564.809 193.925 563.756 193.925 562.456C193.925 561.156 194.978 560.103 196.278 560.103C197.578 560.103 198.631 561.156 198.631 562.456C198.631 563.756 197.578 564.809 196.278 564.809Z" fill="#A630B0"/>
<path opacity="0.11" d="M98.8854 564.809C97.5857 564.809 96.5321 563.756 96.5321 562.456C96.5321 561.156 97.5857 560.103 98.8854 560.103C100.185 560.103 101.239 561.156 101.239 562.456C101.239 563.756 100.185 564.809 98.8854 564.809Z" fill="#A630B0"/>
</g>
<g opacity="0.11">
<path opacity="0.11" d="M975.969 658.039C974.669 658.039 973.616 656.985 973.616 655.686C973.616 654.386 974.669 653.332 975.969 653.332C977.269 653.332 978.322 654.386 978.322 655.686C978.322 656.985 977.269 658.039 975.969 658.039Z" fill="#A630B0"/>
<path opacity="0.11" d="M878.394 658.039C877.094 658.039 876.04 656.985 876.04 655.686C876.04 654.386 877.094 653.332 878.394 653.332C879.693 653.332 880.747 654.386 880.747 655.686C880.747 656.985 879.693 658.039 878.394 658.039Z" fill="#A630B0"/>
<path opacity="0.11" d="M781 658.039C779.7 658.039 778.647 656.985 778.647 655.686C778.647 654.386 779.7 653.332 781 653.332C782.3 653.332 783.354 654.386 783.354 655.686C783.354 656.985 782.3 658.039 781 658.039Z" fill="#A630B0"/>
<path opacity="0.11" d="M683.607 658.039C682.307 658.039 681.254 656.985 681.254 655.686C681.254 654.386 682.307 653.332 683.607 653.332C684.907 653.332 685.96 654.386 685.96 655.686C685.96 656.985 684.907 658.039 683.607 658.039Z" fill="#A630B0"/>
<path opacity="0.11" d="M586.032 658.039C584.733 658.039 583.679 656.985 583.679 655.686C583.679 654.386 584.733 653.332 586.032 653.332C587.332 653.332 588.386 654.386 588.386 655.686C588.386 656.985 587.332 658.039 586.032 658.039Z" fill="#A630B0"/>
<path opacity="0.11" d="M488.639 658.039C487.339 658.039 486.285 656.985 486.285 655.686C486.285 654.386 487.339 653.332 488.639 653.332C489.939 653.332 490.992 654.386 490.992 655.686C490.992 656.985 489.939 658.039 488.639 658.039Z" fill="#A630B0"/>
<path opacity="0.11" d="M391.246 658.039C389.947 658.039 388.893 656.985 388.893 655.686C388.893 654.386 389.947 653.332 391.246 653.332C392.546 653.332 393.6 654.386 393.6 655.686C393.6 656.985 392.546 658.039 391.246 658.039Z" fill="#A630B0"/>
<path opacity="0.11" d="M293.671 658.039C292.372 658.039 291.318 656.985 291.318 655.686C291.318 654.386 292.372 653.332 293.671 653.332C294.971 653.332 296.025 654.386 296.025 655.686C296.025 656.985 294.971 658.039 293.671 658.039Z" fill="#A630B0"/>
<path opacity="0.11" d="M196.278 658.039C194.978 658.039 193.925 656.985 193.925 655.686C193.925 654.386 194.978 653.332 196.278 653.332C197.578 653.332 198.631 654.386 198.631 655.686C198.631 656.985 197.578 658.039 196.278 658.039Z" fill="#A630B0"/>
<path opacity="0.11" d="M98.8854 658.039C97.5857 658.039 96.5321 656.985 96.5321 655.686C96.5321 654.386 97.5857 653.332 98.8854 653.332C100.185 653.332 101.239 654.386 101.239 655.686C101.239 656.985 100.185 658.039 98.8854 658.039Z" fill="#A630B0"/>
</g>
<g opacity="0.11">
<path opacity="0.11" d="M975.969 751.45C974.669 751.45 973.616 750.396 973.616 749.096C973.616 747.797 974.669 746.743 975.969 746.743C977.269 746.743 978.322 747.797 978.322 749.096C978.322 750.396 977.269 751.45 975.969 751.45Z" fill="#A630B0"/>
<path opacity="0.11" d="M878.394 751.45C877.094 751.45 876.04 750.396 876.04 749.096C876.04 747.797 877.094 746.743 878.394 746.743C879.693 746.743 880.747 747.797 880.747 749.096C880.747 750.396 879.693 751.45 878.394 751.45Z" fill="#A630B0"/>
<path opacity="0.11" d="M781 751.45C779.7 751.45 778.647 750.396 778.647 749.096C778.647 747.797 779.7 746.743 781 746.743C782.3 746.743 783.354 747.797 783.354 749.096C783.354 750.396 782.3 751.45 781 751.45Z" fill="#A630B0"/>
<path opacity="0.11" d="M683.607 751.45C682.307 751.45 681.254 750.396 681.254 749.096C681.254 747.797 682.307 746.743 683.607 746.743C684.907 746.743 685.96 747.797 685.96 749.096C685.96 750.396 684.907 751.45 683.607 751.45Z" fill="#A630B0"/>
<path opacity="0.11" d="M586.032 751.45C584.733 751.45 583.679 750.396 583.679 749.096C583.679 747.797 584.733 746.743 586.032 746.743C587.332 746.743 588.386 747.797 588.386 749.096C588.386 750.396 587.332 751.45 586.032 751.45Z" fill="#A630B0"/>
<path opacity="0.11" d="M488.639 751.45C487.339 751.45 486.285 750.396 486.285 749.096C486.285 747.797 487.339 746.743 488.639 746.743C489.939 746.743 490.992 747.797 490.992 749.096C490.992 750.396 489.939 751.45 488.639 751.45Z" fill="#A630B0"/>
<path opacity="0.11" d="M391.246 751.45C389.947 751.45 388.893 750.396 388.893 749.096C388.893 747.797 389.947 746.743 391.246 746.743C392.546 746.743 393.6 747.797 393.6 749.096C393.6 750.396 392.546 751.45 391.246 751.45Z" fill="#A630B0"/>
<path opacity="0.11" d="M293.671 751.45C292.372 751.45 291.318 750.396 291.318 749.096C291.318 747.797 292.372 746.743 293.671 746.743C294.971 746.743 296.025 747.797 296.025 749.096C296.025 750.396 294.971 751.45 293.671 751.45Z" fill="#A630B0"/>
<path opacity="0.11" d="M196.278 751.45C194.978 751.45 193.925 750.396 193.925 749.096C193.925 747.797 194.978 746.743 196.278 746.743C197.578 746.743 198.631 747.797 198.631 749.096C198.631 750.396 197.578 751.45 196.278 751.45Z" fill="#A630B0"/>
<path opacity="0.11" d="M98.8854 751.45C97.5857 751.45 96.5321 750.396 96.5321 749.096C96.5321 747.797 97.5857 746.743 98.8854 746.743C100.185 746.743 101.239 747.797 101.239 749.096C101.239 750.396 100.185 751.45 98.8854 751.45Z" fill="#A630B0"/>
</g>
</g>
</g>
<path opacity="0.25" d="M349.781 349.076C349.781 349.076 370.416 399.917 425.75 367.031C481.083 334.146 485.648 300.504 591.75 332.823C697.851 365.141 736.383 363.251 759.21 326.208C781.855 289.164 824.77 237.568 915.166 243.049C1005.74 248.53 1052.31 121.713 1117.51 101.112C1182.7 80.5114 1230 144.014 1230 144.014V797H-0.00012207C-0.00012207 797 41.3385 697.209 111.281 666.781C181.224 636.352 171.18 615.94 177.754 564.911C184.146 514.071 318.553 479.674 309.239 405.02C299.926 330.177 349.781 349.076 349.781 349.076Z" fill="url(#paint0_radial)"/>
<path opacity="0.25" d="M1207.04 152.943C1199.23 147.885 1061.12 114.036 1017.68 209.359C974.246 304.681 928.144 305.848 858.609 311.684C788.884 317.52 810.03 318.688 732.304 369.851C654.768 421.014 609.047 394.362 552.467 376.076C495.886 357.789 405.587 401.56 333.576 363.431C261.374 325.302 258.517 387.942 258.517 387.942C258.517 387.942 278.52 442.413 220.225 480.736C161.93 518.865 190.506 562.83 174.313 632.668C158.12 702.507 0.000610352 806 0.000610352 806L1236 740.247L1207.04 152.943Z" fill="url(#paint1_radial)"/>
<path d="M1191.43 171.299C1191.43 171.299 1169.93 274.265 1079.26 285.789C988.591 297.312 985.701 293.966 951.203 340.803C916.524 387.826 897.92 414.032 836.149 397.119C774.377 380.205 720.191 340.06 669.618 372.585C619.044 405.111 507.241 460.311 391.825 332.253C276.41 204.196 314.34 397.119 314.34 397.119C314.34 397.119 394.354 468.861 277.674 533.168C236.493 557.144 243.176 629.072 229.629 675.537C216.083 722.002 105.183 811.958 105.183 811.958C105.183 811.958 954.635 884.629 960.234 885.558C965.833 886.488 1283 706.389 1283 706.389L1191.43 171.299Z" fill="url(#paint2_radial)"/>
<path d="M364.995 616.945C354.098 616.945 345.263 608.111 345.263 597.213C345.263 586.316 354.098 577.481 364.995 577.481C375.893 577.481 384.728 586.316 384.728 597.213C384.728 608.111 375.893 616.945 364.995 616.945Z" fill="url(#paint3_linear)"/>
<path d="M781.723 742.217C765.727 742.217 752.759 729.249 752.759 713.253C752.759 697.256 765.727 684.288 781.723 684.288C797.72 684.288 810.688 697.256 810.688 713.253C810.688 729.249 797.72 742.217 781.723 742.217Z" fill="url(#paint4_linear)"/>
<path d="M719.269 387.039L717.82 389.574L715.467 390.841L717.82 392.289L719.269 394.642L720.536 392.289L723.07 390.841L720.536 389.574L719.269 387.039Z" fill="#FEA7AF"/>
<path d="M575.17 556.301L574.265 557.93L572.636 558.835L574.265 559.74L575.17 561.37L576.075 559.74L577.705 558.835L576.075 557.93L575.17 556.301Z" fill="#FEA7AF"/>
<path d="M572.635 411.478L571.73 413.107L570.101 414.012L571.73 414.918L572.635 416.547L573.54 414.918L575.169 414.012L573.54 413.107L572.635 411.478Z" fill="#FEA7AF"/>
<path d="M935.054 626.359L934.33 627.988L932.701 628.893L934.33 629.799L935.054 631.428L935.96 629.799L937.589 628.893L935.96 627.988L935.054 626.359Z" fill="#FEA7AF"/>
<path opacity="0.29" d="M879.84 440.986L878.935 442.615L877.487 443.52L878.935 444.425L879.84 446.054L880.745 444.425L882.375 443.52L880.745 442.615L879.84 440.986Z" fill="white"/>
<path opacity="0.29" d="M797.292 480.993L795.482 484.252L792.405 486.062L795.482 487.691L797.292 490.95L799.103 487.691L802.18 486.062L799.103 484.252L797.292 480.993Z" fill="#FEA7AF"/>
<path opacity="0.29" d="M364.996 443.52L363.185 446.779L360.108 448.408L363.185 450.218L364.996 453.477L366.806 450.218L369.883 448.408L366.806 446.779L364.996 443.52Z" fill="white"/>
<path opacity="0.29" d="M379.296 682.297L377.667 685.374L374.409 687.185L377.667 688.995L379.296 692.072L381.107 688.995L384.365 687.185L381.107 685.374L379.296 682.297Z" fill="white"/>
<path opacity="0.29" d="M698.269 603.006L697.545 604.455L695.916 605.36L697.545 606.084L698.269 607.713L699.174 606.084L700.623 605.36L699.174 604.455L698.269 603.006Z" fill="#FEA7AF"/>
<path opacity="0.29" d="M678.899 672.159L677.994 673.789L676.546 674.513L677.994 675.418L678.899 676.866L679.623 675.418L681.252 674.513L679.623 673.789L678.899 672.159Z" fill="#FEA7AF"/>
<path opacity="0.29" d="M498.776 414.193L497.871 415.642L496.423 416.547L497.871 417.271L498.776 418.9L499.5 417.271L501.129 416.547L499.5 415.642L498.776 414.193Z" fill="#FEA7AF"/>
<path opacity="0.29" d="M403.735 559.016L402.83 560.465L401.382 561.37L402.83 562.094L403.735 563.542L404.46 562.094L406.089 561.37L404.46 560.465L403.735 559.016Z" fill="white"/>
<path opacity="0.29" d="M461.665 355.359L460.941 356.988L459.311 357.713L460.941 358.618L461.665 360.066L462.57 358.618L464.018 357.713L462.57 356.988L461.665 355.359Z" fill="white"/>
<path opacity="0.29" d="M656.994 465.062L655.546 467.959L652.831 469.407L655.546 470.855L656.994 473.752L658.623 470.855L661.339 469.407L658.623 467.959L656.994 465.062Z" fill="#FEA7AF"/>
<path d="M817.386 616.221L815.213 620.023L811.412 622.014L815.213 624.187L817.386 627.988L819.377 624.187L823.179 622.014L819.377 620.023L817.386 616.221Z" fill="white"/>
<path d="M490.448 618.032L489.724 619.299L488.457 620.023L489.724 620.747L490.448 622.195L491.172 620.747L492.439 620.023L491.172 619.299L490.448 618.032Z" fill="white"/>
<path d="M452.433 471.58L451.709 473.028L450.441 473.752L451.709 474.476L452.433 475.743L453.157 474.476L454.605 473.752L453.157 473.028L452.433 471.58Z" fill="white"/>
<path opacity="0.33" d="M964.38 475.019L963.113 477.372L960.579 478.64L963.113 480.088L964.38 482.441L965.648 480.088L968.001 478.64L965.648 477.372L964.38 475.019Z" fill="#FEA7AF"/>
<path opacity="0.33" d="M572.636 623.644L571.731 625.273L569.92 626.178L571.731 627.264L572.636 628.893L573.541 627.264L575.351 626.178L573.541 625.273L572.636 623.644Z" fill="#FEA7AF"/>
<path opacity="0.33" d="M528.646 676.142L527.741 677.771L526.112 678.857L527.741 679.762L528.646 681.392L529.732 679.762L531.361 678.857L529.732 677.771L528.646 676.142Z" fill="#FEA7AF"/>
<path opacity="0.33" d="M534.076 483.346L533.171 484.976L531.361 486.062L533.171 486.967L534.076 488.596L534.982 486.967L536.611 486.062L534.982 484.976L534.076 483.346Z" fill="#FEA7AF"/>
<path opacity="0.33" d="M678.899 523.173L677.994 524.983L676.183 525.888L677.994 526.793L678.899 528.604L679.804 526.793L681.433 525.888L679.804 524.983L678.899 523.173Z" fill="#FEA7AF"/>
<path opacity="0.33" d="M299.282 546.344L298.376 548.155L296.747 549.06L298.376 549.965L299.282 551.775L300.368 549.965L301.997 549.06L300.368 548.155L299.282 546.344Z" fill="#FEA7AF"/>
<g opacity="0.22">
<path opacity="0.22" d="M986.466 417.995C977.868 417.995 970.898 411.025 970.898 402.427C970.898 393.828 977.868 386.858 986.466 386.858C995.064 386.858 1002.03 393.828 1002.03 402.427C1002.03 411.025 995.064 417.995 986.466 417.995Z" fill="url(#paint5_linear)"/>
<path opacity="0.22" d="M970.354 402.065C970.354 402.065 968.725 402.608 966.01 403.513C964.743 404.056 963.113 404.599 961.122 405.504C959.312 406.409 957.139 407.314 955.329 409.125C954.967 409.668 954.243 410.211 954.243 411.297C954.243 411.478 954.243 411.478 954.243 411.659V411.84C954.424 412.021 954.605 412.383 954.786 412.383C955.148 412.745 955.51 412.926 955.872 412.926C957.32 413.469 958.769 413.469 960.217 413.65C963.113 413.831 966.191 413.65 969.268 413.107C975.423 412.383 981.94 410.935 988.276 409.306C994.612 407.495 1000.95 405.504 1006.74 403.151C1009.64 401.884 1012.35 400.616 1014.89 399.168C1016.15 398.444 1017.24 397.539 1018.33 396.453C1018.51 396.091 1018.87 395.91 1018.87 395.367C1019.05 395.004 1019.05 394.461 1018.87 393.918C1018.87 393.737 1018.15 393.013 1017.96 393.013C1017.6 392.832 1017.24 392.651 1016.88 392.651C1014.34 392.108 1011.99 392.289 1010 392.47C1008.01 392.651 1006.2 392.832 1004.75 393.194C1001.85 393.737 1000.22 394.099 1000.22 394.099C1000.22 394.099 1001.85 393.918 1004.75 393.737C1006.2 393.556 1008.01 393.556 1010 393.375C1011.99 393.375 1014.34 393.375 1016.52 393.918C1016.7 394.099 1017.06 394.099 1017.24 394.28C1017.42 394.28 1017.42 394.461 1017.42 394.461C1017.42 394.461 1017.42 394.642 1017.6 394.642C1017.78 394.823 1017.6 395.367 1017.24 395.729C1016.52 396.634 1015.25 397.358 1014.16 398.082C1011.81 399.349 1009.09 400.616 1006.2 401.703C1000.59 403.875 994.25 405.866 987.914 407.495C981.578 409.125 975.242 410.573 969.087 411.478C966.01 411.84 963.113 412.202 960.398 412.202C957.863 412.202 954.062 411.84 956.234 409.849C957.863 408.22 959.855 407.133 961.665 406.047C963.475 405.142 964.924 404.418 966.372 403.694C968.906 402.608 970.354 402.065 970.354 402.065Z" fill="url(#paint6_linear)"/>
</g>
<path d="M915.684 490.225L844.902 555.215C844.54 555.577 844.54 556.12 844.902 556.663C845.264 557.025 845.807 557.025 846.351 556.844L919.305 494.389C920.391 493.484 920.572 491.674 919.486 490.587C918.4 489.32 916.771 489.32 915.684 490.225Z" fill="url(#paint7_linear)"/>
<path d="M889.255 515.026L845.989 554.853C845.808 555.034 845.808 555.396 845.989 555.758C846.17 555.939 846.532 555.939 846.894 555.758L891.608 517.561C892.332 517.018 892.332 515.932 891.789 515.208C891.065 514.483 889.979 514.483 889.255 515.026Z" fill="url(#paint8_linear)"/>
<g opacity="0.33">
<path opacity="0.33" d="M538.059 414.737L504.026 445.873C503.845 446.054 503.845 446.417 504.026 446.598C504.207 446.779 504.569 446.779 504.75 446.598L539.688 416.547C540.231 416.004 540.231 415.28 539.869 414.737C539.326 414.375 538.602 414.194 538.059 414.737Z" fill="url(#paint9_linear)"/>
<path opacity="0.33" d="M525.387 426.684L504.569 445.873C504.388 446.054 504.388 446.235 504.569 446.235C504.75 446.416 504.931 446.416 504.931 446.235L526.292 427.771C526.654 427.408 526.654 427.046 526.292 426.684C526.111 426.322 525.749 426.322 525.387 426.684Z" fill="url(#paint10_linear)"/>
</g>
<g opacity="0.35">
<g opacity="0.35">
<path opacity="0.35" d="M1058.7 466.149L964.743 552.318C964.2 552.861 964.2 553.586 964.562 554.129C965.105 554.672 965.829 554.672 966.372 554.31L1063.22 471.399C1064.67 470.131 1064.85 467.959 1063.58 466.511C1062.32 464.882 1060.14 464.701 1058.7 466.149Z" fill="url(#paint11_linear)"/>
<path opacity="0.35" d="M1023.58 499.096L966.01 551.956C965.648 552.318 965.648 552.68 966.01 553.042C966.372 553.404 966.734 553.404 967.096 553.042L1026.47 502.173C1027.38 501.449 1027.56 500.001 1026.65 499.096C1025.75 498.372 1024.48 498.191 1023.58 499.096Z" fill="url(#paint12_linear)"/>
</g>
</g>
<path d="M393.779 478.459L350.694 518.104C350.513 518.285 350.513 518.647 350.694 519.009C350.875 519.19 351.237 519.19 351.599 519.009L395.951 480.993C396.675 480.45 396.676 479.364 396.132 478.64C395.408 477.916 394.503 477.734 393.779 478.459Z" fill="url(#paint13_linear)"/>
<path d="M377.668 493.484L351.238 517.742C351.057 517.923 351.057 518.104 351.238 518.285C351.419 518.466 351.6 518.466 351.781 518.285L378.935 494.932C379.297 494.57 379.478 494.027 379.116 493.484C378.754 493.122 378.03 493.122 377.668 493.484Z" fill="url(#paint14_linear)"/>
<path d="M796.206 356.264C796.206 361.876 796.93 367.307 798.378 372.376C805.438 396.815 827.886 414.737 854.678 414.737C884.548 414.737 909.168 392.289 912.788 363.505C913.15 361.152 913.15 358.618 913.15 356.264C913.15 346.67 910.797 337.799 906.814 329.834C897.22 310.826 877.307 297.792 854.497 297.792C830.601 297.792 810.145 312.093 800.913 332.55C798.016 339.791 796.206 347.937 796.206 356.264Z" fill="url(#paint15_linear)"/>
<path d="M801.274 332.55C829.515 318.067 839.29 324.041 869.522 334.903C886.72 341.058 899.392 335.627 906.995 329.834C897.401 310.826 877.487 297.792 854.678 297.792C830.963 297.792 810.507 312.093 801.274 332.55Z" fill="url(#paint16_linear)"/>
<path d="M798.559 372.557C805.619 396.996 828.066 414.918 854.859 414.918C884.728 414.918 909.348 392.47 912.969 363.687C905.003 370.928 892.332 378.712 874.229 377.626C843.454 375.815 819.739 353.911 798.559 372.557Z" fill="url(#paint17_linear)"/>
<path d="M153.735 666.004C155.546 671.254 157.899 676.142 160.977 680.306C175.278 700.943 201.889 710.537 226.871 702.029C254.749 692.615 270.68 663.832 264.887 635.773C264.344 633.419 263.801 631.066 263.077 628.893C259.999 620.023 255.111 612.42 248.775 606.265C233.75 591.602 211.121 585.628 189.941 592.869C167.675 600.472 153.011 620.204 151.02 642.29C150.115 649.893 151.02 658.039 153.735 666.004Z" fill="url(#paint18_linear)"/>
<path d="M150.839 642.109C172.743 619.661 183.605 622.195 215.285 622.738C233.388 623.1 243.345 614.049 248.775 606.265C233.75 591.602 211.121 585.628 189.941 592.869C167.675 600.291 153.011 620.204 150.839 642.109Z" fill="url(#paint19_linear)"/>
<path d="M160.977 680.305C175.278 700.943 201.89 710.537 226.871 702.029C254.75 692.615 270.68 663.832 264.887 635.772C259.819 645.005 250.405 656.41 233.207 660.935C203.881 669.082 174.916 656.41 160.977 680.305Z" fill="url(#paint20_linear)"/>
<path d="M314.127 208.907L421.296 359.523L442.114 344.678L334.945 194.063C327.161 183.201 317.929 173.606 307.429 165.641L298.559 158.943C298.378 158.762 298.016 158.581 297.835 158.581C295.119 157.314 291.679 160.029 292.766 163.107L296.205 173.787C300.369 186.097 306.343 198.045 314.127 208.907Z" fill="url(#paint21_linear)"/>
<path d="M319.196 205.105L426.546 355.902L442.114 344.859L334.945 194.244C327.161 183.382 317.929 173.787 307.429 165.822L298.559 159.124C298.378 158.943 298.016 158.762 297.835 158.762C297.835 159.124 297.835 159.305 298.016 159.667L301.455 170.348C305.619 182.477 311.593 194.425 319.196 205.105Z" fill="#FFECFF"/>
<path d="M318.109 205.83L425.278 356.445L440.847 345.403L333.678 194.787C325.894 183.925 316.661 174.331 306.161 166.365L297.291 159.667C297.11 159.486 296.748 159.305 296.567 159.305C296.567 159.667 296.567 159.848 296.748 160.21L300.188 170.891C304.351 183.02 310.325 194.968 318.109 205.83Z" fill="url(#paint22_linear)"/>
<path d="M422.563 375.091L456.416 351.014L433.968 333.274L413.15 348.118L422.563 375.091Z" fill="url(#paint23_radial)"/>
<path d="M430.89 369.298L456.416 351.014L433.968 333.274L421.296 342.144L430.89 369.298Z" fill="#CC7DFF"/>
<path d="M429.08 370.204L456.416 351.015L432.158 334.36L419.667 343.23L429.08 370.204Z" fill="url(#paint24_radial)"/>
<path d="M429.081 372.557L452.614 355.902L451.709 354.454L427.994 371.109L429.081 372.557Z" fill="url(#paint25_radial)"/>
<path d="M413.15 348.118L433.969 333.274L433.607 332.55L412.607 347.394L413.15 348.118Z" fill="url(#paint26_radial)"/>
<path d="M239.181 264.302L346.35 414.918L367.168 400.073L260 249.457C252.215 238.596 242.983 229.001 232.483 221.036L223.613 214.338C223.432 214.157 223.07 213.976 222.889 213.976C220.173 212.709 216.734 215.424 217.82 218.502L221.259 229.182C225.423 241.673 231.397 253.44 239.181 264.302Z" fill="url(#paint27_linear)"/>
<path d="M244.431 260.681L351.6 411.297L367.168 400.254L260 249.639C252.215 238.777 242.983 229.182 232.483 221.217L223.613 214.519C223.432 214.338 223.07 214.157 222.889 214.157C222.889 214.519 222.889 214.7 223.07 215.062L226.509 225.743C230.673 237.872 236.647 249.82 244.431 260.681Z" fill="#DDA9FF"/>
<path d="M243.888 261.224L351.057 411.84L366.625 400.797L259.456 250.182C251.672 239.32 242.439 229.725 231.94 221.76L223.069 215.062C222.888 214.881 222.526 214.7 222.345 214.7C222.345 215.062 222.345 215.243 222.526 215.605L225.966 226.286C230.13 238.415 236.103 250.363 243.888 261.224Z" fill="url(#paint28_linear)"/>
<path d="M347.617 430.486L381.47 406.409L359.022 388.669L338.204 403.513L347.617 430.486Z" fill="url(#paint29_radial)"/>
<path d="M355.945 424.693L381.47 406.409L359.022 388.669L346.531 397.72L355.945 424.693Z" fill="#CC7DFF"/>
<path d="M354.677 425.598L380.202 407.496L357.755 389.574L345.264 398.625L354.677 425.598Z" fill="url(#paint30_radial)"/>
<path d="M354.134 428.133L377.667 411.297L376.762 409.849L353.229 426.684L354.134 428.133Z" fill="url(#paint31_radial)"/>
<path d="M338.204 403.513L359.022 388.668L358.66 388.125L337.842 402.97L338.204 403.513Z" fill="url(#paint32_radial)"/>
<path d="M229.767 213.614L373.866 415.823L435.959 371.652L291.86 169.262C276.292 147.357 254.568 130.522 229.586 120.746L216.733 115.677C210.397 113.143 203.518 118.031 203.699 124.91L204.242 138.668C205.329 165.641 214.199 191.709 229.767 213.614Z" fill="url(#paint33_linear)"/>
<path d="M242.802 204.381L386.9 406.771L435.959 371.833L291.86 169.443C276.292 147.538 254.568 130.703 229.586 120.927L216.733 115.858L217.277 129.616C218.363 156.409 227.233 182.296 242.802 204.381Z" fill="#CC7DFF"/>
<path d="M242.259 204.381L386.177 406.771L435.235 371.833L291.137 169.443C275.568 147.538 253.845 130.703 228.863 120.927L216.01 115.858L216.553 129.617C217.82 156.59 226.691 182.477 242.259 204.381Z" fill="url(#paint34_linear)"/>
<path d="M234.474 179.58C234.836 179.399 235.017 179.218 235.38 179.037C235.561 179.037 235.56 178.856 235.742 178.856C235.923 178.675 236.104 178.675 236.466 178.494C236.647 178.494 236.647 178.494 236.828 178.313C237.009 178.313 237.19 178.132 237.552 178.132C237.733 178.132 237.914 178.132 237.914 177.951C238.095 177.951 238.276 177.77 238.638 177.77C238.819 177.77 239 177.77 239 177.77C239.181 177.77 239.362 177.77 239.724 177.77C239.905 177.77 240.086 177.77 240.267 177.77C240.448 177.77 240.629 177.77 240.991 177.77C241.172 177.77 241.353 177.77 241.534 177.77C241.715 177.77 241.896 177.77 242.077 177.951C242.259 177.951 242.44 177.951 242.621 178.132C242.621 178.132 242.621 178.132 242.802 178.132C243.164 178.313 243.345 178.313 243.707 178.494C248.051 180.304 252.215 182.477 256.198 184.649C275.025 195.149 291.498 209.812 304.17 227.372L350.333 292.18L418.58 309.197L447.726 347.032L446.821 347.575L448.993 350.29L415.503 369.479L413.874 370.385L425.822 380.16C427.813 381.789 427.813 385.048 425.64 386.496L423.106 388.306L424.916 391.022L406.27 404.418L404.46 401.702L398.667 405.866L406.451 417.271C407.176 418.357 406.814 419.624 405.908 420.348C405.727 420.348 405.727 420.529 405.546 420.529C405.365 420.71 405.365 420.71 405.184 420.891C404.098 421.616 402.831 421.435 401.926 420.348L393.598 409.125L388.892 412.383L390.702 415.099L372.237 428.495L370.427 425.779L367.349 427.952C365.177 429.4 362.099 428.495 361.194 426.141L355.763 411.659L354.677 412.564L325.351 438.089L323.54 435.193L323.359 435.374L297.653 395.185L303.808 326.395L257.103 260.862C249.5 250.182 243.345 238.415 238.819 226.105C235.923 218.139 233.75 209.812 232.302 201.304C231.578 196.778 230.854 192.252 230.673 187.546C230.492 184.287 232.121 181.391 234.474 179.58Z" fill="url(#paint35_linear)"/>
<path d="M393.599 377.626L456.416 345.403L425.822 304.852L328.971 280.775L393.599 377.626Z" fill="#FFDCFF"/>
<path d="M392.513 378.893L454.063 343.592L426.909 307.93L327.705 282.224L392.513 378.893Z" fill="url(#paint36_radial)"/>
<path d="M384.547 383.962L332.954 433.382L305.257 390.479L314.127 291.094L384.547 383.962Z" fill="#FFE4FF"/>
<path d="M394.866 380.703L422.925 364.592L456.416 345.403L426.908 307.93L376.944 295.62L330.058 284.034L394.866 380.703Z" fill="url(#paint37_radial)"/>
<path d="M422.925 364.592L456.416 345.403L426.908 307.93L376.944 295.62L422.925 364.592Z" fill="url(#paint38_radial)"/>
<path d="M332.954 433.383L362.281 407.857L386.357 386.677L316.118 293.99L311.774 341.42L307.248 393.194L332.954 433.383Z" fill="url(#paint39_radial)"/>
<path d="M332.955 433.382L362.281 407.857L311.774 341.42L307.249 393.194L332.955 433.382Z" fill="url(#paint40_radial)"/>
<path d="M264.706 256.155L367.35 400.254L413.874 367.126L311.231 223.027C298.559 205.286 282.266 190.623 263.258 180.305C259.276 178.132 254.931 175.96 250.767 174.15C250.405 173.969 250.224 173.969 249.862 173.787C246.966 172.882 244.069 173.425 241.897 175.055C239.544 176.865 237.914 179.761 238.095 183.201C238.457 187.727 239 192.433 239.725 196.959C241.173 205.468 243.345 213.614 246.242 221.76C250.948 233.708 257.103 245.475 264.706 256.155Z" fill="url(#paint41_linear)"/>
<path d="M276.473 247.828L379.117 391.927L414.055 367.126L311.412 223.027C298.74 205.286 282.447 190.623 263.439 180.305C259.457 178.132 255.112 175.96 250.948 174.15C250.586 173.969 250.405 173.969 250.043 173.787C250.043 174.15 250.043 174.512 250.043 174.874C250.405 179.399 250.949 184.106 251.673 188.632C253.121 197.14 255.293 205.286 258.19 213.433C262.715 225.381 268.87 236.967 276.473 247.828Z" fill="#FFE4FF"/>
<path d="M275.205 248.552L377.849 392.651L412.787 367.85L310.144 223.751C297.472 206.011 281.179 191.347 262.171 181.029C258.189 178.856 253.844 176.684 249.68 174.874C249.318 174.693 249.137 174.693 248.775 174.512C248.775 174.874 248.775 175.236 248.775 175.598C249.137 180.123 249.68 184.83 250.405 189.356C251.853 197.864 254.025 206.011 256.922 214.157C261.447 226.105 267.602 237.872 275.205 248.552Z" fill="url(#paint42_linear)"/>
<path d="M374.772 423.245L433.064 381.789C435.236 380.341 435.417 377.083 433.245 375.453L392.694 342.144C387.082 337.437 378.936 337.256 373.143 341.42L356.307 353.368C350.334 357.532 347.98 365.316 350.515 372.195L368.798 421.435C369.704 423.788 372.781 424.874 374.772 423.245Z" fill="#FFE7FF"/>
<path d="M352.687 374.548L370.609 422.883C371.514 425.236 374.41 426.322 376.583 424.693L402.832 406.047L406.996 403.151L433.788 384.143C435.96 382.695 435.96 379.617 433.969 377.807L394.143 345.041C388.531 340.515 380.746 340.153 374.954 344.316L369.523 348.118L363.006 352.825L358.299 356.083C352.506 360.247 350.153 367.85 352.687 374.548Z" fill="url(#paint43_linear)"/>
<path d="M413.803 398.212L432.533 384.879L434.423 387.534L415.692 400.866L413.803 398.212Z" fill="#7C26A4"/>
<path d="M379.784 422.456L398.515 409.124L400.404 411.779L381.674 425.111L379.784 422.456Z" fill="#7C26A4"/>
<path d="M262.534 225.381C262.896 225.019 263.258 224.656 263.439 223.932C264.888 215.062 273.396 208.907 282.447 210.536C283.534 210.717 284.801 209.993 284.982 208.726C285.163 207.64 284.439 206.373 283.171 206.192C271.948 204.381 261.267 211.985 259.276 223.208C259.095 224.294 259.819 225.562 261.086 225.743C261.629 225.743 262.172 225.562 262.534 225.381Z" fill="url(#paint44_linear)"/>
<path d="M239.905 196.597C243.164 187.365 250.767 181.753 263.439 180.123C259.456 177.951 255.112 175.779 250.948 173.969C247.87 172.701 244.612 173.244 242.078 174.874C239.724 176.684 238.095 179.58 238.276 183.02C238.638 187.546 239.181 192.071 239.905 196.597Z" fill="url(#paint45_linear)"/>
<path opacity="0.42" d="M361.376 350.652L363.005 352.825L402.65 406.228L406.814 403.332L369.341 348.299L367.712 345.946C364.453 345.765 362.462 347.756 361.376 350.652Z" fill="#552C84"/>
<path d="M369.341 344.679C365.721 344.679 363.729 346.489 362.824 349.385L411.702 415.099C412.426 416.185 413.874 416.366 414.96 415.642C416.047 414.918 416.228 413.469 415.504 412.564L369.341 344.679Z" fill="url(#paint46_linear)"/>
<defs>
<radialGradient id="paint0_radial" cx="0" cy="0" r="1" gradientUnits="userSpaceOnUse" gradientTransform="translate(620.2 446.93) rotate(180) scale(493.151 510.378)">
<stop offset="0.00537634" stop-color="#3ACB8C"/>
<stop offset="1" stop-color="#67219E"/>
</radialGradient>
<radialGradient id="paint1_radial" cx="0" cy="0" r="1" gradientUnits="userSpaceOnUse" gradientTransform="translate(360.897 289.143) rotate(180) scale(776.461 792.888)">
<stop offset="0.00537634" stop-color="#3ACB8C"/>
<stop offset="1" stop-color="#67219E"/>
</radialGradient>
<radialGradient id="paint2_radial" cx="0" cy="0" r="1" gradientUnits="userSpaceOnUse" gradientTransform="translate(302.795 500.658) rotate(180) scale(1085.39 1116.88)">
<stop offset="0.00537634" stop-color="#3ACB8C"/>
<stop offset="1" stop-color="#67219E"/>
</radialGradient>
<linearGradient id="paint3_linear" x1="374.056" y1="581.41" x2="355.776" y2="613.439" gradientUnits="userSpaceOnUse">
<stop offset="0.00537634" stop-color="#FEA7AF"/>
<stop offset="0.9731" stop-color="#EA47AC"/>
</linearGradient>
<linearGradient id="paint4_linear" x1="794.984" y1="689.884" x2="768.072" y2="737.038" gradientUnits="userSpaceOnUse">
<stop offset="0.00537634" stop-color="#FEA7AF"/>
<stop offset="0.9731" stop-color="#EA47AC"/>
</linearGradient>
<linearGradient id="paint5_linear" x1="1001.11" y1="407.694" x2="971.913" y2="397.037" gradientUnits="userSpaceOnUse">
<stop offset="0.00537634" stop-color="#FEA7AF"/>
<stop offset="0.9731" stop-color="#EA47AC"/>
</linearGradient>
<linearGradient id="paint6_linear" x1="1019.19" y1="395.316" x2="954.623" y2="412.385" gradientUnits="userSpaceOnUse">
<stop offset="0.00537634" stop-color="#FEA7AF"/>
<stop offset="0.9731" stop-color="#EA47AC"/>
</linearGradient>
<linearGradient id="paint7_linear" x1="844.976" y1="556.603" x2="919.463" y2="490.436" gradientUnits="userSpaceOnUse">
<stop offset="0.00537634" stop-color="#FEA7AF"/>
<stop offset="0.9946" stop-color="#EA47AC" stop-opacity="0"/>
</linearGradient>
<linearGradient id="paint8_linear" x1="845.936" y1="555.751" x2="891.581" y2="515.203" gradientUnits="userSpaceOnUse">
<stop offset="0.00537634" stop-color="#3ACB8C"/>
<stop offset="0.9946" stop-color="#EA47AC" stop-opacity="0"/>
</linearGradient>
<linearGradient id="paint9_linear" x1="504.09" y1="446.6" x2="539.853" y2="414.832" gradientUnits="userSpaceOnUse">
<stop offset="0.00537634" stop-color="#FEA7AF"/>
<stop offset="0.9946" stop-color="#EA47AC" stop-opacity="0"/>
</linearGradient>
<linearGradient id="paint10_linear" x1="504.552" y1="446.191" x2="526.467" y2="426.723" gradientUnits="userSpaceOnUse">
<stop offset="0.00537634" stop-color="#FEA7AF"/>
<stop offset="0.9946" stop-color="#EA47AC" stop-opacity="0"/>
</linearGradient>
<linearGradient id="paint11_linear" x1="964.737" y1="554.17" x2="1063.64" y2="466.317" gradientUnits="userSpaceOnUse">
<stop offset="0.00537634" stop-color="#FEA7AF"/>
<stop offset="0.9946" stop-color="#EA47AC" stop-opacity="0"/>
</linearGradient>
<linearGradient id="paint12_linear" x1="966.01" y1="553.037" x2="1026.62" y2="499.201" gradientUnits="userSpaceOnUse">
<stop offset="0.00537634" stop-color="#FEA7AF"/>
<stop offset="0.9946" stop-color="#EA47AC" stop-opacity="0"/>
</linearGradient>
<linearGradient id="paint13_linear" x1="350.712" y1="518.821" x2="396.089" y2="478.512" gradientUnits="userSpaceOnUse">
<stop offset="0.00537634" stop-color="#FEA7AF"/>
<stop offset="0.9946" stop-color="#EA47AC" stop-opacity="0"/>
</linearGradient>
<linearGradient id="paint14_linear" x1="351.296" y1="518.301" x2="379.104" y2="493.6" gradientUnits="userSpaceOnUse">
<stop offset="0.00537634" stop-color="#FEA7AF"/>
<stop offset="0.9946" stop-color="#EA47AC" stop-opacity="0"/>
</linearGradient>
<linearGradient id="paint15_linear" x1="913.424" y1="356.325" x2="796.283" y2="356.325" gradientUnits="userSpaceOnUse">
<stop offset="0.00537634" stop-color="#FEA7AF"/>
<stop offset="0.9731" stop-color="#EA47AC"/>
</linearGradient>
<linearGradient id="paint16_linear" x1="907.106" y1="317.69" x2="801.307" y2="317.69" gradientUnits="userSpaceOnUse">
<stop offset="0.00537634" stop-color="#FEA7AF"/>
<stop offset="0.0453408" stop-color="#FDA1AF"/>
<stop offset="0.3245" stop-color="#F57AAE"/>
<stop offset="0.5813" stop-color="#EF5EAD"/>
<stop offset="0.8058" stop-color="#EB4DAC"/>
<stop offset="0.9731" stop-color="#EA47AC"/>
</linearGradient>
<linearGradient id="paint17_linear" x1="912.974" y1="389.238" x2="798.532" y2="389.238" gradientUnits="userSpaceOnUse">
<stop offset="0.00537634" stop-color="#FEA7AF"/>
<stop offset="0.126" stop-color="#FA93AE"/>
<stop offset="0.3615" stop-color="#F372AD"/>
<stop offset="0.5869" stop-color="#EE5AAD"/>
<stop offset="0.7962" stop-color="#EB4CAC"/>
<stop offset="0.9731" stop-color="#EA47AC"/>
</linearGradient>
<linearGradient id="paint18_linear" x1="262.995" y1="628.996" x2="153.717" y2="665.945" gradientUnits="userSpaceOnUse">
<stop offset="0.00537634" stop-color="#DE3DBF"/>
<stop offset="1" stop-color="#67219E"/>
</linearGradient>
<linearGradient id="paint19_linear" x1="244.914" y1="594.948" x2="146.217" y2="628.319" gradientUnits="userSpaceOnUse">
<stop offset="0.00537634" stop-color="#DE3DBF"/>
<stop offset="0.1175" stop-color="#CA38BA"/>
<stop offset="0.3936" stop-color="#A02EAE"/>
<stop offset="0.6424" stop-color="#8127A5"/>
<stop offset="0.853" stop-color="#6E23A0"/>
<stop offset="1" stop-color="#67219E"/>
</linearGradient>
<linearGradient id="paint20_linear" x1="272.957" y1="659.841" x2="166.198" y2="695.939" gradientUnits="userSpaceOnUse">
<stop offset="0.00537634" stop-color="#DE3DBF"/>
<stop offset="0.1162" stop-color="#C337B8"/>
<stop offset="0.2799" stop-color="#A22FAE"/>
<stop offset="0.4483" stop-color="#8829A7"/>
<stop offset="0.6212" stop-color="#7624A2"/>
<stop offset="0.8012" stop-color="#6B229F"/>
<stop offset="1" stop-color="#67219E"/>
</linearGradient>
<linearGradient id="paint21_linear" x1="373.308" y1="248.026" x2="352.482" y2="262.849" gradientUnits="userSpaceOnUse">
<stop offset="0.00537634" stop-color="#A02CC2"/>
<stop offset="0.0148044" stop-color="#9F2CC1"/>
<stop offset="0.3274" stop-color="#7222A6"/>
<stop offset="0.607" stop-color="#521B92"/>
<stop offset="0.8407" stop-color="#3E1786"/>
<stop offset="1" stop-color="#371582"/>
</linearGradient>
<linearGradient id="paint22_linear" x1="372.678" y1="249.443" x2="357.058" y2="260.561" gradientUnits="userSpaceOnUse">
<stop offset="0.00537634" stop-color="#A02CC2"/>
<stop offset="0.0148044" stop-color="#9F2CC1"/>
<stop offset="0.3274" stop-color="#7222A6"/>
<stop offset="0.607" stop-color="#521B92"/>
<stop offset="0.8407" stop-color="#3E1786"/>
<stop offset="1" stop-color="#371582"/>
</linearGradient>
<radialGradient id="paint23_radial" cx="0" cy="0" r="1" gradientUnits="userSpaceOnUse" gradientTransform="translate(438.557 318.162) rotate(144.557) scale(52.0088)">
<stop offset="0.00537634" stop-color="#A02CC2"/>
<stop offset="1" stop-color="#371582"/>
</radialGradient>
<radialGradient id="paint24_radial" cx="0" cy="0" r="1" gradientUnits="userSpaceOnUse" gradientTransform="translate(437.698 318.461) rotate(144.557) scale(46.3142)">
<stop offset="0.00537634" stop-color="#A02CC2"/>
<stop offset="1" stop-color="#371582"/>
</radialGradient>
<radialGradient id="paint25_radial" cx="0" cy="0" r="1" gradientUnits="userSpaceOnUse" gradientTransform="translate(453.858 352.112) rotate(144.557) scale(28.2722)">
<stop offset="0.00537634" stop-color="#A02CC2"/>
<stop offset="1" stop-color="#371582"/>
</radialGradient>
<radialGradient id="paint26_radial" cx="0" cy="0" r="1" gradientUnits="userSpaceOnUse" gradientTransform="translate(435.616 330.787) rotate(144.556) scale(24.9767 12.6747)">
<stop stop-color="#371582"/>
<stop offset="0.9946" stop-color="#A02CC2"/>
</radialGradient>
<linearGradient id="paint27_linear" x1="298.378" y1="303.488" x2="277.552" y2="318.312" gradientUnits="userSpaceOnUse">
<stop offset="0.00537634" stop-color="#A02CC2"/>
<stop offset="0.0148044" stop-color="#9F2CC1"/>
<stop offset="0.3274" stop-color="#7222A6"/>
<stop offset="0.607" stop-color="#521B92"/>
<stop offset="0.8407" stop-color="#3E1786"/>
<stop offset="1" stop-color="#371582"/>
</linearGradient>
<linearGradient id="paint28_linear" x1="298.408" y1="304.729" x2="282.788" y2="315.847" gradientUnits="userSpaceOnUse">
<stop offset="0.00537634" stop-color="#A02CC2"/>
<stop offset="0.0148044" stop-color="#9F2CC1"/>
<stop offset="0.3274" stop-color="#7222A6"/>
<stop offset="0.607" stop-color="#521B92"/>
<stop offset="0.8407" stop-color="#3E1786"/>
<stop offset="1" stop-color="#371582"/>
</linearGradient>
<radialGradient id="paint29_radial" cx="0" cy="0" r="1" gradientUnits="userSpaceOnUse" gradientTransform="translate(363.627 373.625) rotate(144.557) scale(52.0086)">
<stop offset="0.00537634" stop-color="#A02CC2"/>
<stop offset="1" stop-color="#371582"/>
</radialGradient>
<radialGradient id="paint30_radial" cx="0" cy="0" r="1" gradientUnits="userSpaceOnUse" gradientTransform="translate(361.491 375.205) rotate(144.557) scale(44.7636)">
<stop offset="0.00537634" stop-color="#A02CC2"/>
<stop offset="1" stop-color="#371582"/>
</radialGradient>
<radialGradient id="paint31_radial" cx="0" cy="0" r="1" gradientUnits="userSpaceOnUse" gradientTransform="translate(378.926 407.574) rotate(144.557) scale(28.272)">
<stop offset="0.00537634" stop-color="#A02CC2"/>
<stop offset="1" stop-color="#371582"/>
</radialGradient>
<radialGradient id="paint32_radial" cx="0" cy="0" r="1" gradientUnits="userSpaceOnUse" gradientTransform="translate(360.685 386.25) rotate(144.556) scale(24.9766 12.6747)">
<stop stop-color="#371582"/>
<stop offset="0.9946" stop-color="#A02CC2"/>
</radialGradient>
<linearGradient id="paint33_linear" x1="337.413" y1="233.223" x2="275.3" y2="277.435" gradientUnits="userSpaceOnUse">
<stop offset="0.00537634" stop-color="#A02CC2"/>
<stop offset="1" stop-color="#371582"/>
</linearGradient>
<linearGradient id="paint34_linear" x1="338.034" y1="235.172" x2="288.948" y2="270.112" gradientUnits="userSpaceOnUse">
<stop offset="0.00537634" stop-color="#A02CC2"/>
<stop offset="1" stop-color="#371582"/>
</linearGradient>
<linearGradient id="paint35_linear" x1="353.693" y1="237.231" x2="310.571" y2="331.912" gradientUnits="userSpaceOnUse">
<stop offset="0.00537634" stop-color="#DE3DBF"/>
<stop offset="1" stop-color="#67219E"/>
</linearGradient>
<radialGradient id="paint36_radial" cx="0" cy="0" r="1" gradientUnits="userSpaceOnUse" gradientTransform="translate(363.771 203.585) rotate(144.559) scale(131.64 171.847)">
<stop stop-color="#67219E"/>
<stop offset="0.9946" stop-color="#DE3DBF"/>
</radialGradient>
<radialGradient id="paint37_radial" cx="0" cy="0" r="1" gradientUnits="userSpaceOnUse" gradientTransform="translate(366.134 205.386) rotate(144.557) scale(161.833)">
<stop offset="0.00537634" stop-color="#DE3DBF"/>
<stop offset="1" stop-color="#67219E"/>
</radialGradient>
<radialGradient id="paint38_radial" cx="0" cy="0" r="1" gradientUnits="userSpaceOnUse" gradientTransform="translate(391.902 247.631) rotate(144.557) scale(109.595)">
<stop offset="0.00537634" stop-color="#DE3DBF"/>
<stop offset="1" stop-color="#67219E"/>
</radialGradient>
<radialGradient id="paint39_radial" cx="0" cy="0" r="1" gradientUnits="userSpaceOnUse" gradientTransform="translate(300.19 252.325) rotate(144.557) scale(161.834)">
<stop offset="0.00537634" stop-color="#DE3DBF"/>
<stop offset="1" stop-color="#67219E"/>
</radialGradient>
<radialGradient id="paint40_radial" cx="0" cy="0" r="1" gradientUnits="userSpaceOnUse" gradientTransform="translate(299.617 312.622) rotate(144.557) scale(110.193)">
<stop offset="0.00537634" stop-color="#DE3DBF"/>
<stop offset="1" stop-color="#67219E"/>
</radialGradient>
<linearGradient id="paint41_linear" x1="205.58" y1="350.378" x2="294.146" y2="294.315" gradientUnits="userSpaceOnUse">
<stop offset="0.00537634" stop-color="#DE3DBF"/>
<stop offset="1" stop-color="#67219E"/>
</linearGradient>
<linearGradient id="paint42_linear" x1="339.386" y1="264.967" x2="304.529" y2="289.779" gradientUnits="userSpaceOnUse">
<stop offset="0.00537634" stop-color="#DE3DBF"/>
<stop offset="1" stop-color="#67219E"/>
</linearGradient>
<linearGradient id="paint43_linear" x1="435.434" y1="383.464" x2="351.694" y2="383.464" gradientUnits="userSpaceOnUse">
<stop offset="0.00537634" stop-color="#DE3DBF"/>
<stop offset="1" stop-color="#67219E"/>
</linearGradient>
<linearGradient id="paint44_linear" x1="282.928" y1="204.878" x2="258.054" y2="222.583" gradientUnits="userSpaceOnUse">
<stop offset="0.00537634" stop-color="#DE3DBF"/>
<stop offset="1" stop-color="#67219E"/>
</linearGradient>
<linearGradient id="paint45_linear" x1="259.626" y1="174.344" x2="229.539" y2="192.836" gradientUnits="userSpaceOnUse">
<stop offset="0.00537634" stop-color="#DE3DBF"/>
<stop offset="1" stop-color="#67219E"/>
</linearGradient>
<linearGradient id="paint46_linear" x1="353.258" y1="331.177" x2="419.73" y2="417.975" gradientUnits="userSpaceOnUse">
<stop offset="0.00537634" stop-color="#DE3DBF"/>
<stop offset="1" stop-color="#67219E"/>
</linearGradient>
</defs>
</svg>
