<svg width="480" height="246" viewBox="0 0 480 246" fill="none" xmlns="http://www.w3.org/2000/svg">
<path d="M124.493 210.066C126.824 220.064 130.467 231.365 134.11 241.943H194.584C195.895 237.596 197.353 232.814 198.518 227.888C205.95 199.054 198.081 174.276 191.087 162.974C184.092 151.673 177.972 138.342 188.755 121.824C199.538 105.306 200.558 92.5549 200.558 92.5549C198.955 86.3244 194.147 84.151 181.469 78.2102C181.469 78.2102 180.74 77.9204 179.575 77.6306C176.952 88.4978 171.269 97.1916 161.214 98.9304C148.099 101.249 136.296 93.2794 130.322 79.3694C124.493 81.1081 118.081 82.8469 115.021 84.5856C115.021 84.5856 131.05 119.216 134.11 138.777C137.025 158.193 117.207 179.348 124.493 210.066Z" fill="url(#paint0_linear)"/>
<path d="M161.068 98.7853C171.123 97.0465 176.806 88.3527 179.429 77.4855C175.203 76.0366 165.294 72.7039 162.525 71.255C159.028 69.5162 160.048 55.3164 160.048 55.3164L141.396 60.5327C141.396 66.9081 141.396 71.8346 141.396 74.2978C141.396 75.6019 136.15 77.1957 130.03 79.0794C136.15 93.1343 147.953 101.104 161.068 98.7853Z" fill="url(#paint1_linear)"/>
<path d="M160.048 55.6074L141.396 60.8237C141.396 65.7502 141.396 69.8072 141.396 72.5603C149.264 76.7623 158.008 84.5867 161.068 98.9314C171.122 97.1927 176.66 88.4989 179.428 77.6316C175.202 76.1827 165.294 72.8501 162.525 71.4011C159.028 69.8073 160.048 55.6074 160.048 55.6074Z" fill="#CB9EAE"/>
<path d="M171.56 141.53C163.254 143.993 155.385 146.891 151.305 146.891C143.144 146.891 130.904 135.444 125.221 142.399C119.538 149.354 118.664 153.991 123.181 157.179C127.698 160.221 141.979 156.019 148.827 157.323C151.888 157.903 162.234 158.483 173.308 158.338C174.183 153.991 174.037 145.877 171.56 141.53Z" fill="url(#paint2_linear)"/>
<path d="M200.85 92.5548C198.955 84.8753 183.072 98.9303 187.006 111.826C190.358 122.838 189.192 137.618 189.192 137.618L204.784 153.266C209.884 146.891 202.453 98.7854 200.85 92.5548Z" fill="url(#paint3_linear)"/>
<path d="M194.292 137.762C188.317 136.893 179.72 139.066 171.56 141.675C174.037 146.021 174.183 154.136 173.308 158.483C187.006 158.338 201.723 157.034 204.638 153.411C204.638 153.266 211.632 140.226 194.292 137.762Z" fill="url(#paint4_linear)"/>
<path d="M137.17 34.1618C133.964 40.5373 134.256 61.9819 143.291 63.8655C151.159 65.6043 155.677 57.9248 155.677 57.9248V43.725C155.677 43.725 151.159 41.4067 150.577 35.9006C150.139 31.5537 147.516 31.119 147.516 31.119C147.516 31.119 141.979 34.4516 137.17 34.1618Z" fill="url(#paint5_linear)"/>
<path d="M123.036 138.632C118.955 130.373 116.187 120.085 113.855 114.289C109.338 103.277 108.609 87.9181 114.875 84.4406C126.387 78.4999 131.342 98.7854 132.07 104.581C132.799 110.377 134.402 124.142 138.773 129.069L123.036 138.632Z" fill="url(#paint6_linear)"/>
<path d="M174.183 67.6326C166.314 62.7062 175.057 35.9004 161.943 25.6127C151.159 17.0639 133.964 23.4393 133.964 39.5228C133.964 46.0431 133.964 68.2122 133.964 77.9203C138.19 76.6162 141.396 75.3122 141.396 74.2979V63.2858V62.996C134.256 58.5042 134.11 39.9575 137.17 34.0167C142.125 34.1616 147.516 30.9739 147.516 30.9739C147.516 30.9739 150.139 31.4086 150.576 35.7555C151.159 41.2615 155.677 43.5799 155.677 43.5799V57.7797C155.677 71.1102 158.882 85.7447 166.606 86.6141C174.329 87.4834 175.64 77.3407 181.469 78.0652C181.323 78.2101 182.052 72.5591 174.183 67.6326Z" fill="white"/>
<path d="M134.256 119.216C130.03 125.012 123.327 130.083 123.036 138.632C126.679 145.877 131.342 151.528 137.899 150.803C147.517 149.789 150.868 138.487 152.034 128.199C145.622 128.634 137.462 123.563 134.256 119.216Z" fill="url(#paint7_linear)"/>
<path d="M148.828 66.7632C146.934 67.6326 140.522 73.2836 140.522 74.5876C140.522 76.0366 143.436 86.614 143.436 89.8017C143.436 92.9894 140.522 107.189 136.588 115.448C136.005 116.752 135.276 117.912 134.402 119.071C137.608 123.418 145.768 128.489 152.18 127.909C152.617 123.273 152.763 118.926 152.763 115.738C152.763 115.738 153.491 92.1201 154.511 90.5262C155.531 88.9324 155.531 86.4691 155.531 84.2957C155.531 80.2386 155.531 79.9488 155.531 79.9488C155.531 79.9488 156.988 79.8039 157.134 77.3406C157.134 77.1958 157.134 77.1958 157.134 77.0509C156.843 74.4427 150.577 66.0387 148.828 66.7632Z" fill="url(#paint8_linear)"/>
<path d="M306.206 77.1962C306.206 100.09 306.206 146.022 306.206 146.022C306.206 146.022 329.229 146.746 328.646 146.022C327.918 145.297 328.646 114 328.646 114L306.206 77.1962Z" fill="url(#paint9_linear)"/>
<path d="M351.815 153.412C353.71 166.307 352.544 180.942 351.815 186.448C351.087 191.954 334.621 241.508 334.621 241.508H374.693L385.768 189.056L371.196 148.92L351.815 153.412Z" fill="url(#paint10_linear)"/>
<path d="M351.816 153.412C353.71 166.307 352.544 180.942 351.816 186.448C351.087 191.954 331.415 241.943 331.415 241.943H374.694L385.768 189.056L371.196 148.92L351.816 153.412Z" fill="url(#paint11_linear)"/>
<path d="M399.028 139.791C404.857 158.193 431.378 164.134 424.092 193.838C418.846 215.282 408.063 242.088 408.063 242.088H358.081C358.081 242.088 373.819 195.432 373.819 189.201C373.819 182.97 363.91 151.238 363.91 151.238L399.028 139.791Z" fill="url(#paint12_linear)"/>
<path d="M314.22 61.6923C308.391 64.4453 302.999 76.9064 308.391 88.643C313.783 100.38 314.511 98.2061 316.551 107.479C318.591 116.608 317.863 121.679 334.62 133.126C351.524 144.573 350.941 147.616 351.815 153.412C352.69 159.207 400.048 158.048 399.32 136.169C398.591 114.29 399.757 89.0777 385.622 77.1962C371.487 65.1698 314.22 61.6923 314.22 61.6923Z" fill="url(#paint13_linear)"/>
<path d="M308.392 34.5967V100.235C308.392 100.235 332.29 87.4838 332.144 75.0227C331.998 62.5617 321.361 34.7416 321.361 34.7416H308.392V34.5967Z" fill="white"/>
<path d="M325.149 74.0085C325.149 74.0085 328.355 79.0799 329.375 81.3983C330.395 83.5717 325.586 93.4246 327.189 101.684C328.792 110.088 339.138 108.639 341.469 101.684C342.198 99.6552 344.092 84.7309 344.092 84.7309V60.2434L325.149 74.0085Z" fill="url(#paint14_linear)"/>
<path d="M329.52 81.2532C336.223 73.7186 343.218 105.451 332.143 107.045C332.143 107.045 332.143 107.045 332.289 107.045L333.892 107.19C337.098 107.19 340.595 105.016 341.761 101.394C342.489 99.3653 344.384 84.441 344.384 84.441V59.9535L325.44 73.7186C325.149 74.0084 328.354 79.0798 329.52 81.2532Z" fill="#CB9EAE"/>
<path d="M311.159 32.7131C307.954 52.8537 311.451 71.5453 321.214 73.7187C330.977 75.8922 344.966 65.3147 344.966 55.8965C344.966 46.4782 354.438 21.9908 343.655 16.4847C333.017 10.8338 313.199 19.9622 311.159 32.7131Z" fill="url(#paint15_linear)"/>
<path d="M319.466 30.9742C319.466 30.9742 314.366 35.1762 310.577 37.4946C306.788 39.668 307.808 26.9172 314.949 20.9764C322.235 15.0357 331.706 9.8194 335.641 13.2969C335.641 13.2969 347.736 9.96429 355.021 22.2805C362.307 34.5966 362.89 45.6088 365.222 48.6516C367.553 51.6944 371.342 53.5781 369.593 59.3739C369.593 59.3739 382.417 56.7658 384.457 65.6044C386.351 74.4431 385.768 77.341 385.768 77.341C385.768 77.341 381.834 74.2982 373.528 71.4003C373.528 71.4003 367.99 75.7472 362.745 75.7472C357.499 75.7472 350.796 96.902 341.615 96.902L341.47 46.4781C341.47 46.3332 320.486 43.5802 319.466 30.9742Z" fill="white"/>
<path d="M202.015 138.052C177.68 163.264 156.842 240.059 156.842 240.059H191.669L213.527 189.056L202.015 138.052Z" fill="url(#paint16_linear)"/>
<path d="M328.645 142.255C323.545 136.459 296.441 117.622 261.906 119.651C231.45 121.534 206.824 130.808 202.015 138.053C198.518 143.414 206.241 179.348 211.487 193.548C216.878 207.893 219.21 223.107 219.21 236.147C219.21 236.147 305.33 235.713 305.767 236.147C306.204 236.582 316.405 204.56 317.862 188.621C319.173 172.683 316.259 155.15 328.645 142.255Z" fill="#A630B0"/>
<path d="M282.015 89.9469C282.015 89.9469 282.452 116.608 282.015 124.577C281.578 132.546 269.192 139.646 264.675 139.936C260.012 140.081 249.957 133.416 248.354 122.114V98.0611L282.015 89.9469Z" fill="url(#paint17_linear)"/>
<path d="M282.162 104.292C282.162 96.6122 282.016 89.8021 282.016 89.8021L248.209 97.7714V117.477C250.978 129.793 269.775 126.461 274.147 114.724C276.77 108.059 278.81 106.175 282.162 104.292Z" fill="#CB9EAE"/>
<path d="M239.174 79.5144C240.486 99.0754 248.5 117.912 261.032 115.883C276.77 113.42 281.579 89.6572 280.85 76.7614C280.267 63.8657 272.836 55.7515 261.615 55.7515C250.978 55.8964 238.154 62.9963 239.174 79.5144Z" fill="url(#paint18_linear)"/>
<path d="M284.784 86.0347C283.91 89.9469 282.015 92.8448 280.558 92.555C279.101 92.2652 278.518 88.9326 279.392 85.0204C280.267 81.1082 282.161 78.2103 283.618 78.5001C285.075 78.7899 285.512 82.1225 284.784 86.0347Z" fill="url(#paint19_linear)"/>
<path d="M239.466 82.5573C237.134 78.9349 236.843 77.4859 237.134 71.4003C237.28 65.3147 242.38 65.1698 242.38 62.5616C242.234 59.9535 245.586 52.9985 259.138 52.4189C272.69 51.8393 271.815 58.0698 276.041 58.5045C280.267 58.9392 286.679 63.1412 283.619 78.5002C283.619 78.5002 279.976 78.79 278.519 86.1797C278.373 86.7593 277.644 86.9042 277.353 86.4695C276.916 85.8899 276.479 84.8756 276.041 83.5716C275.021 79.8043 270.941 85.4552 270.213 78.0655C269.63 72.8492 256.806 82.4124 247.189 73.8635C247.189 73.8635 245.732 75.7472 241.652 75.6023C239.32 75.7472 239.466 82.5573 239.466 82.5573Z" fill="white"/>
<path d="M248.207 153.122C248.207 153.122 249.373 154.571 251.413 151.384C253.453 148.196 260.594 138.633 263.071 139.502C258.116 138.488 249.665 131.967 248.207 121.825V120.955C244.273 121.535 240.339 122.114 236.841 122.984C235.821 128.635 240.047 146.892 248.207 153.122Z" fill="#385FD4"/>
<path d="M282.014 124.432C281.577 131.387 272.251 137.618 266.714 139.357C269.337 138.342 278.809 150.803 280.411 153.556C282.014 156.309 285.075 152.542 288.135 145.007C290.32 139.501 293.672 129.938 292.215 123.128C289.009 122.259 285.657 121.534 282.014 120.81C282.014 122.259 282.014 123.418 282.014 124.432Z" fill="#385FD4"/>
<path d="M248.209 121.824V116.028C243.109 118.202 238.446 120.085 238.008 122.983C236.988 128.634 241.506 145.008 248.209 150.803C248.209 150.803 249.375 152.252 251.415 149.065C253.455 145.877 260.595 138.632 263.072 139.646C258.118 138.487 249.666 132.112 248.209 121.824Z" fill="url(#paint20_linear)"/>
<path d="M290.467 120.81C289.009 117.622 284.492 115.159 282.161 114C282.161 118.202 282.161 122.114 282.015 124.287C281.578 131.242 272.252 137.473 266.714 139.212C269.337 138.197 278.809 148.195 280.412 150.948C282.015 153.701 284.055 150.514 287.407 142.979C290.904 135.589 292.652 126.026 290.467 120.81Z" fill="url(#paint21_linear)"/>
<path d="M345.258 220.209C345.258 198.184 338.846 153.846 328.5 142.255C328.5 142.255 312.471 150.803 307.371 177.899C305.914 186.013 308.391 209.052 309.12 218.905L345.258 220.209Z" fill="url(#paint22_linear)"/>
<path d="M282.744 241.943C282.744 241.943 324.274 241.943 331.414 241.943C338.554 241.943 346.423 236.147 345.257 220.209C344.092 204.27 318.008 206.588 309.119 218.76L282.307 222.817L282.744 241.943Z" fill="url(#paint23_linear)"/>
<path d="M258.118 241.074L260.449 238.9L267.444 241.364C268.61 241.798 269.921 241.943 271.233 241.943H285.076C285.076 241.943 291.633 240.494 291.925 232.815C292.07 225.135 285.513 222.817 282.599 222.817H267.298C266.57 222.817 265.841 222.672 264.967 222.527L254.183 220.209C252.58 219.919 250.978 220.209 249.52 220.933L243.4 224.411C242.234 225.135 241.069 225.86 240.194 226.874L228.974 238.031C227.517 239.48 228.537 241.798 230.577 241.798H255.786C256.661 241.943 257.535 241.653 258.118 241.074Z" fill="url(#paint24_linear)"/>
<path d="M387.37 79.9491C376.879 74.0084 358.664 90.9613 362.598 111.247C366.533 131.387 344.237 156.454 344.237 156.454C344.237 156.454 319.028 166.597 308.828 168.481C311.305 171.958 314.074 177.03 315.239 183.55C331.851 182.246 355.604 178.768 365.221 170.799C379.793 158.773 395.239 114.29 395.239 100.235C395.239 83.7164 387.37 79.9491 387.37 79.9491Z" fill="url(#paint25_linear)"/>
<path d="M306.205 168.626C298.919 168.626 273.564 168.626 273.564 168.626C273.564 168.626 250.249 176.45 249.666 177.754C249.083 179.058 247.917 187.028 249.666 188.911C251.414 190.795 263.363 194.127 266.278 193.548C269.338 192.968 292.944 184.275 298.336 184.275C300.23 184.275 306.788 184.13 315.24 183.405C313.928 176.885 311.159 171.669 308.828 168.336C307.808 168.626 306.788 168.626 306.205 168.626Z" fill="url(#paint26_linear)"/>
<path d="M96.9512 147.036C96.9512 147.036 105.111 153.411 113.563 147.036C121.869 140.661 116.186 129.648 116.186 129.648L97.0969 139.791V147.036H96.9512Z" fill="url(#paint27_linear)"/>
<path d="M108.755 86.7593V134.865H92.8716V89.3674L108.755 86.7593Z" fill="url(#paint28_linear)"/>
<path d="M82.9631 206.443C81.5059 214.412 72.9084 225.714 67.3711 242.088H98.7008C101.761 222.527 104.384 196.3 100.158 172.827H82.0888C83.8374 180.652 84.4203 198.764 82.9631 206.443Z" fill="url(#paint29_linear)"/>
<path d="M52.9443 204.704C52.9443 204.704 56.5873 222.237 59.0645 242.088H67.3706C72.9079 225.859 81.5053 214.557 82.9625 206.443C84.4197 198.909 83.6911 180.797 82.0882 172.827H53.8186L52.9443 204.704Z" fill="url(#paint30_linear)"/>
<path d="M82.0883 172.827C81.9426 171.813 81.6512 170.944 81.3597 170.364H27.0063C27.7349 196.445 29.775 222.237 31.0865 242.088H67.3706C72.908 225.859 81.5054 214.557 82.9626 206.443C84.4198 198.764 83.837 180.652 82.0883 172.827Z" fill="url(#paint31_linear)"/>
<path d="M64.1649 43.8698C31.9609 35.3209 10.2487 49.5207 6.75143 70.096C3.5456 88.7876 27.1522 146.891 27.1522 170.219C27.1522 170.219 65.3307 189.78 100.303 172.682C100.303 172.682 95.0574 147.76 100.303 125.736C105.549 103.712 112.544 91.1059 106.569 75.3122C101.323 61.692 79.174 47.9268 64.1649 43.8698Z" fill="#A630B0"/>
<path d="M76.114 22.715C76.114 22.715 64.0192 37.9291 58.9191 42.7107C53.8189 47.4923 63.2907 57.4901 70.4309 61.6921C75.2396 64.4451 85.1486 67.4879 82.2342 58.9391C82.2342 58.9391 80.6313 54.1575 88.6458 47.2025C88.5001 47.2025 79.6112 20.5416 76.114 22.715Z" fill="url(#paint32_linear)"/>
<path d="M88.5001 47.2022C88.5001 47.2022 84.2742 34.886 80.6312 27.6412L76.6968 29.5249C72.0338 38.9431 71.3052 56.6205 82.0884 58.9388C82.0884 58.9388 80.4855 54.0123 88.5001 47.2022Z" fill="#CB9EAE"/>
<path d="M80.9226 19.9621C81.9426 14.1663 76.6967 13.7316 75.0938 18.5132C73.1995 24.0192 75.2395 27.9314 77.4253 26.6274C77.4253 26.6274 73.3452 39.0884 78.4454 46.623C83.5455 54.1576 90.3944 51.2597 98.7004 43.1455C105.841 36.1905 110.504 27.4967 111.232 24.309C113.127 15.7602 104.092 8.66023 95.6403 9.23981C85.4399 9.6745 80.9226 19.9621 80.9226 19.9621Z" fill="url(#paint33_linear)"/>
<path d="M80.9222 19.9619C80.6308 23.4395 81.2136 26.0476 83.108 24.8884C85.1481 23.7292 89.9568 16.9191 94.1827 21.8456C98.5543 26.7721 102.052 31.4087 109.775 30.5394C119.684 29.5251 122.015 16.0497 113.272 13.5865C113.272 13.5865 117.061 8.94983 110.358 6.77639C104.092 4.74784 103.946 6.05191 99.5743 1.12544C97.0971 -1.62759 82.088 -0.178629 78.0078 15.1804C78.0078 15.4702 81.3594 14.7457 80.9222 19.9619Z" fill="white"/>
<path d="M31.5234 119.071C31.8148 112.406 36.0407 95.1629 41.8695 84.0059C47.6982 72.9937 44.7839 58.7939 36.915 53.143C29.0462 47.6369 17.9715 48.6512 12.7256 56.3307C-1.40922 77.0508 2.67093 123.563 10.3941 139.356C11.8513 142.544 15.4942 144.572 20.4487 145.732C9.66547 140.805 20.4487 116.463 31.5234 119.071Z" fill="#8D3095"/>
<path d="M73.0535 137.907L94.1828 112.551C95.0571 111.391 96.5143 110.957 97.9715 111.391L133.818 121.244C134.693 121.534 134.984 122.548 134.256 123.273L107.152 147.615C106.569 148.195 105.84 148.34 104.966 148.195L73.9278 140.95C72.762 140.516 72.3249 138.922 73.0535 137.907Z" fill="url(#paint34_linear)"/>
<path d="M98.4082 127.91C97.2424 124.432 93.5994 121.824 91.5594 121.244C90.1022 120.81 79.0275 120.955 73.053 121.099C70.7215 121.099 68.5357 121.824 66.4956 122.983C64.6013 124.142 62.2697 125.446 61.104 125.446C59.0639 125.446 42.4519 125.446 42.4519 125.446C42.4519 125.446 37.3517 121.534 31.3772 118.926C20.1568 116.318 9.5193 140.66 20.1568 145.587C38.226 150.079 73.7816 143.558 88.645 138.487C91.9965 137.328 94.9109 135.299 96.951 132.401C98.1167 130.952 98.8453 129.214 98.4082 127.91Z" fill="url(#paint35_linear)"/>
<path d="M0 241.943C0 241.943 30.0182 241.798 75.0455 241.508C120.073 241.363 180.109 241.363 240 241.218C300.036 241.363 360.073 241.508 404.954 241.508C449.982 241.798 480 241.943 480 241.943C480 241.943 449.982 242.088 404.954 242.378C359.927 242.522 299.891 242.522 240 242.667C179.964 242.522 119.927 242.378 75.0455 242.378C30.0182 242.088 0 241.943 0 241.943Z" fill="#001462"/>
<path d="M225.185 246H276.332C279.247 246 281.578 243.682 281.578 240.784C281.578 239.48 280.558 238.32 279.101 238.32H225.039C223.728 238.32 222.562 239.335 222.562 240.784V243.682C222.853 244.986 223.873 246 225.185 246Z" fill="url(#paint36_linear)"/>
<path d="M134.693 246H241.505C245.585 246 248.646 242.088 247.48 238.176L228.682 169.929C227.516 165.438 223.436 162.395 218.773 162.395H111.961C107.881 162.395 104.82 166.307 105.986 170.219L124.784 238.465C125.95 242.957 130.03 246 134.693 246Z" fill="url(#paint37_linear)"/>
<defs>
<linearGradient id="paint0_linear" x1="177.693" y1="-18.0498" x2="146.541" y2="249.041" gradientUnits="userSpaceOnUse">
<stop offset="0.0800729" stop-color="#747474"/>
<stop offset="0.2124" stop-color="#454649"/>
<stop offset="0.4458" stop-color="#1E1E20"/>
<stop offset="0.7508" stop-color="#3D3E42"/>
<stop offset="0.8975" stop-color="#2B2D33"/>
</linearGradient>
<linearGradient id="paint1_linear" x1="170.563" y1="64.3976" x2="144.7" y2="87.8066" gradientUnits="userSpaceOnUse">
<stop stop-color="#F6B3B5"/>
<stop offset="1" stop-color="#FAD1D3"/>
</linearGradient>
<linearGradient id="paint2_linear" x1="139.772" y1="137.978" x2="150.496" y2="155.31" gradientUnits="userSpaceOnUse">
<stop stop-color="#F6B3B5"/>
<stop offset="1" stop-color="#FAD1D3"/>
</linearGradient>
<linearGradient id="paint3_linear" x1="212.931" y1="-14.0039" x2="181.761" y2="253.248" gradientUnits="userSpaceOnUse">
<stop stop-color="#4F4F51"/>
<stop offset="0.1604" stop-color="#1B1C1D"/>
<stop offset="0.4433" stop-color="#272727"/>
<stop offset="0.813" stop-color="#3F4044"/>
<stop offset="0.9908" stop-color="#3A3B40"/>
</linearGradient>
<linearGradient id="paint4_linear" x1="172.331" y1="96.6857" x2="199.432" y2="184.681" gradientUnits="userSpaceOnUse">
<stop stop-color="#494C53"/>
<stop offset="0.1604" stop-color="#2F3034"/>
<stop offset="0.4433" stop-color="#272829"/>
<stop offset="0.813" stop-color="#525252"/>
<stop offset="0.9908" stop-color="#34363C"/>
</linearGradient>
<linearGradient id="paint5_linear" x1="151.149" y1="27.4265" x2="138.804" y2="75.1486" gradientUnits="userSpaceOnUse">
<stop stop-color="#F6B3B5"/>
<stop offset="1" stop-color="#FAD1D3"/>
</linearGradient>
<linearGradient id="paint6_linear" x1="140.355" y1="-22.4048" x2="109.203" y2="244.687" gradientUnits="userSpaceOnUse">
<stop stop-color="#313237"/>
<stop offset="0.1604" stop-color="#34373F"/>
<stop offset="0.4433" stop-color="#2D2D2E"/>
<stop offset="0.813" stop-color="#43454F"/>
<stop offset="0.9908" stop-color="#2F3138"/>
</linearGradient>
<linearGradient id="paint7_linear" x1="176.244" y1="127.997" x2="89.4955" y2="143.272" gradientUnits="userSpaceOnUse">
<stop stop-color="#2C344A"/>
<stop offset="0.1604" stop-color="#565860"/>
<stop offset="0.4433" stop-color="#363637"/>
<stop offset="0.813" stop-color="#34353A"/>
<stop offset="0.9908" stop-color="#373A45"/>
</linearGradient>
<linearGradient id="paint8_linear" x1="125.776" y1="97.4395" x2="159.258" y2="97.4395" gradientUnits="userSpaceOnUse">
<stop stop-color="#F6B3B5"/>
<stop offset="1" stop-color="#FAD1D3"/>
</linearGradient>
<linearGradient id="paint9_linear" x1="317.409" y1="169.854" x2="317.409" y2="66.7713" gradientUnits="userSpaceOnUse">
<stop stop-color="#3E4046"/>
<stop offset="0.2793" stop-color="#373A42"/>
<stop offset="0.7702" stop-color="#464A52"/>
<stop offset="0.9908" stop-color="#4B4F56"/>
</linearGradient>
<linearGradient id="paint10_linear" x1="359.855" y1="263.401" x2="360.951" y2="123.204" gradientUnits="userSpaceOnUse">
<stop stop-color="#001462"/>
<stop offset="0.0686931" stop-color="#081E71"/>
<stop offset="0.2519" stop-color="#193595"/>
<stop offset="0.4371" stop-color="#2748B0"/>
<stop offset="0.623" stop-color="#3055C4"/>
<stop offset="0.8101" stop-color="#365CD0"/>
<stop offset="1" stop-color="#385FD4"/>
</linearGradient>
<linearGradient id="paint11_linear" x1="427.779" y1="195.49" x2="326.65" y2="195.49" gradientUnits="userSpaceOnUse">
<stop stop-color="#263831"/>
<stop offset="0.1736" stop-color="#203029"/>
<stop offset="0.4798" stop-color="#1D2E26"/>
<stop offset="0.88" stop-color="#2C4238"/>
<stop offset="0.9908" stop-color="#1F3029"/>
</linearGradient>
<linearGradient id="paint12_linear" x1="391.699" y1="120.26" x2="391.699" y2="264.064" gradientUnits="userSpaceOnUse">
<stop stop-color="#254738"/>
<stop offset="0.1702" stop-color="#182721"/>
<stop offset="0.397" stop-color="#1C3229"/>
<stop offset="0.616" stop-color="#10251C"/>
<stop offset="0.8215" stop-color="#13281F"/>
<stop offset="1" stop-color="#071710"/>
</linearGradient>
<linearGradient id="paint13_linear" x1="352.384" y1="156.285" x2="353.122" y2="61.9795" gradientUnits="userSpaceOnUse">
<stop stop-color="#606061"/>
<stop offset="0.2793" stop-color="#454953"/>
<stop offset="0.7702" stop-color="#232425"/>
<stop offset="0.9908"/>
</linearGradient>
<linearGradient id="paint14_linear" x1="345.86" y1="79.8537" x2="322.394" y2="96.4891" gradientUnits="userSpaceOnUse">
<stop stop-color="#F6B3B5"/>
<stop offset="0.9914" stop-color="#FAD1D3"/>
</linearGradient>
<linearGradient id="paint15_linear" x1="331.858" y1="40.4406" x2="314.214" y2="61.6567" gradientUnits="userSpaceOnUse">
<stop stop-color="#F6B3B5"/>
<stop offset="0.9914" stop-color="#FAD1D3"/>
</linearGradient>
<linearGradient id="paint16_linear" x1="185.109" y1="-97.2306" x2="185.109" y2="431.608" gradientUnits="userSpaceOnUse">
<stop stop-color="#A630B0"/>
<stop offset="1" stop-color="#2E3035"/>
</linearGradient>
<linearGradient id="paint17_linear" x1="287.42" y1="106.837" x2="243.468" y2="124.285" gradientUnits="userSpaceOnUse">
<stop stop-color="#F6B3B5"/>
<stop offset="0.9914" stop-color="#FAD1D3"/>
</linearGradient>
<linearGradient id="paint18_linear" x1="262.954" y1="49.6186" x2="256.845" y2="114.13" gradientUnits="userSpaceOnUse">
<stop stop-color="#F6B3B5"/>
<stop offset="0.9914" stop-color="#FAD1D3"/>
</linearGradient>
<linearGradient id="paint19_linear" x1="256.658" y1="173.741" x2="283.798" y2="78.2122" gradientUnits="userSpaceOnUse">
<stop stop-color="#8CC6FF"/>
<stop offset="1" stop-color="#F6B3B5"/>
</linearGradient>
<linearGradient id="paint20_linear" x1="250.448" y1="212.312" x2="250.448" y2="87.3852" gradientUnits="userSpaceOnUse">
<stop stop-color="#121212"/>
<stop offset="1" stop-color="#525665"/>
</linearGradient>
<linearGradient id="paint21_linear" x1="279.086" y1="212.312" x2="279.086" y2="87.3854" gradientUnits="userSpaceOnUse">
<stop stop-color="#414345"/>
<stop offset="1" stop-color="#474A54"/>
</linearGradient>
<linearGradient id="paint22_linear" x1="326.155" y1="-65.7496" x2="326.155" y2="421.466" gradientUnits="userSpaceOnUse">
<stop stop-color="#B64FBF"/>
<stop offset="1" stop-color="#303540"/>
</linearGradient>
<linearGradient id="paint23_linear" x1="313.888" y1="-65.7496" x2="313.888" y2="421.466" gradientUnits="userSpaceOnUse">
<stop stop-color="#A93FB3"/>
<stop offset="1" stop-color="#353B4D"/>
</linearGradient>
<linearGradient id="paint24_linear" x1="260.156" y1="243.585" x2="260.156" y2="216.684" gradientUnits="userSpaceOnUse">
<stop stop-color="#F6B3B5"/>
<stop offset="0.9914" stop-color="#FAD1D3"/>
</linearGradient>
<linearGradient id="paint25_linear" x1="351.453" y1="208.271" x2="352.695" y2="49.3184" gradientUnits="userSpaceOnUse">
<stop stop-color="#1C1C1D"/>
<stop offset="0.2793" stop-color="#35373D"/>
<stop offset="0.7702" stop-color="#46494F"/>
<stop offset="0.9908" stop-color="#4D4E50"/>
</linearGradient>
<linearGradient id="paint26_linear" x1="288.628" y1="203.903" x2="276.396" y2="168.152" gradientUnits="userSpaceOnUse">
<stop stop-color="#F6B3B5"/>
<stop offset="0.9914" stop-color="#FAD1D3"/>
</linearGradient>
<linearGradient id="paint27_linear" x1="144.682" y1="132.62" x2="97.6538" y2="142.902" gradientUnits="userSpaceOnUse">
<stop offset="0.00565128" stop-color="#A630B0"/>
<stop offset="0.01562" stop-color="#B5BFE3"/>
<stop offset="0.0286519" stop-color="#E5B6C1"/>
<stop offset="0.0329884" stop-color="#F6B3B5"/>
<stop offset="0.0330884" stop-color="#A630B0"/>
<stop offset="0.9908" stop-color="#A630B0"/>
</linearGradient>
<linearGradient id="paint28_linear" x1="138.433" y1="104.032" x2="91.4045" y2="114.313" gradientUnits="userSpaceOnUse">
<stop stop-color="#A630B0"/>
<stop offset="0.00565128" stop-color="#97C4F7"/>
<stop offset="0.01562" stop-color="#B5BFE3"/>
<stop offset="0.0286519" stop-color="#E5B6C1"/>
<stop offset="0.0329884" stop-color="#A630B0"/>
<stop offset="0.9908" stop-color="#88368F"/>
</linearGradient>
<linearGradient id="paint29_linear" x1="-13.0079" y1="188.928" x2="237.5" y2="237.29" gradientUnits="userSpaceOnUse">
<stop offset="0.1048" stop-color="#212D28"/>
<stop offset="0.2974" stop-color="#1E352B"/>
<stop offset="0.49" stop-color="#162921"/>
<stop offset="0.6752" stop-color="#243E32"/>
<stop offset="0.8491" stop-color="#131A31"/>
<stop offset="1" stop-color="#0C142B"/>
</linearGradient>
<linearGradient id="paint30_linear" x1="-13.4768" y1="191.353" x2="237.031" y2="239.715" gradientUnits="userSpaceOnUse">
<stop offset="0.1048" stop-color="#001462"/>
<stop offset="0.2974" stop-color="#142E8A"/>
<stop offset="0.49" stop-color="#2343AA"/>
<stop offset="0.6752" stop-color="#2F53C1"/>
<stop offset="0.8491" stop-color="#365CCF"/>
<stop offset="1" stop-color="#385FD4"/>
</linearGradient>
<linearGradient id="paint31_linear" x1="-29.6557" y1="117.579" x2="192.369" y2="349.134" gradientUnits="userSpaceOnUse">
<stop offset="0.1048" stop-color="#1F2321"/>
<stop offset="0.2974" stop-color="#192520"/>
<stop offset="0.49" stop-color="#2E453B"/>
<stop offset="0.6752" stop-color="#273E34"/>
<stop offset="0.8491" stop-color="#1E332A"/>
<stop offset="1" stop-color="#0F1512"/>
</linearGradient>
<linearGradient id="paint32_linear" x1="70.2992" y1="25.3052" x2="75.3116" y2="66.2151" gradientUnits="userSpaceOnUse">
<stop stop-color="#F6B3B5"/>
<stop offset="1" stop-color="#FAD1D3"/>
</linearGradient>
<linearGradient id="paint33_linear" x1="111.728" y1="2.62255" x2="73.9535" y2="45.6765" gradientUnits="userSpaceOnUse">
<stop stop-color="#F6B3B5"/>
<stop offset="1" stop-color="#FAD1D3"/>
</linearGradient>
<linearGradient id="paint34_linear" x1="62.5746" y1="155.351" x2="141.161" y2="102.373" gradientUnits="userSpaceOnUse">
<stop stop-color="#8C8D91"/>
<stop offset="0.118" stop-color="#999BA0"/>
<stop offset="0.2672" stop-color="#B5B7BC"/>
<stop offset="0.4243" stop-color="#A3A5AB"/>
<stop offset="0.5908" stop-color="#A2A6B4"/>
<stop offset="0.7728" stop-color="#9699A2"/>
<stop offset="1" stop-color="#C5C5C5"/>
</linearGradient>
<linearGradient id="paint35_linear" x1="57.277" y1="146.06" x2="57.277" y2="120.308" gradientUnits="userSpaceOnUse">
<stop stop-color="#F6B3B5"/>
<stop offset="1" stop-color="#FAD1D3"/>
</linearGradient>
<linearGradient id="paint36_linear" x1="251.647" y1="242.775" x2="260.701" y2="215.97" gradientUnits="userSpaceOnUse">
<stop stop-color="#46474A"/>
<stop offset="0.118" stop-color="#5F6064"/>
<stop offset="0.2672" stop-color="#808389"/>
<stop offset="0.4243" stop-color="#A1A2A6"/>
<stop offset="0.5908" stop-color="#DADDE7"/>
<stop offset="0.7728" stop-color="#DEE0E7"/>
<stop offset="1" stop-color="#E6E9F1"/>
</linearGradient>
<linearGradient id="paint37_linear" x1="179.713" y1="240.392" x2="168.708" y2="104.814" gradientUnits="userSpaceOnUse">
<stop stop-color="#505156"/>
<stop offset="0.118" stop-color="#686B73"/>
<stop offset="0.2672" stop-color="#9497A2"/>
<stop offset="0.4243" stop-color="#B1B3BB"/>
<stop offset="0.5908" stop-color="#D6D9E1"/>
<stop offset="0.7728" stop-color="#C5C9D5"/>
<stop offset="1" stop-color="#E8EAF1"/>
</linearGradient>
</defs>
</svg>
