<svg width="531" height="268" viewBox="0 0 531 268" fill="none" xmlns="http://www.w3.org/2000/svg">
<path d="M169.239 232.565C171.813 243.62 175.836 256.116 179.858 267.812H246.631C248.079 263.005 249.688 257.718 250.975 252.271C259.181 220.389 250.492 192.993 242.769 180.497C235.046 168.001 228.288 153.261 240.195 134.997C252.101 116.733 253.228 102.635 253.228 102.635C251.458 95.7457 246.148 93.3425 232.15 86.7739C232.15 86.7739 231.346 86.4535 230.058 86.1331C227.162 98.1488 220.887 107.761 209.785 109.684C195.304 112.247 182.271 103.436 175.675 88.0556C169.239 89.9781 162.159 91.9006 158.78 93.8232C158.78 93.8232 176.479 132.113 179.858 153.742C183.076 175.21 161.194 198.601 169.239 232.565Z" fill="url(#paint0_linear)"/>
<path d="M209.624 109.524C220.726 107.601 227.001 97.9886 229.897 85.9728C225.231 84.3707 214.29 80.6858 211.233 79.0837C207.371 77.1612 208.498 61.4606 208.498 61.4606L187.903 67.2282C187.903 74.2774 187.903 79.7246 187.903 82.4481C187.903 83.89 182.11 85.6523 175.353 87.7351C182.11 103.275 195.143 112.087 209.624 109.524Z" fill="url(#paint1_linear)"/>
<path d="M208.497 61.7817L187.902 67.5493C187.902 72.9965 187.902 77.4824 187.902 80.5264C196.591 85.1725 206.245 93.8238 209.624 109.685C220.726 107.762 226.84 98.1495 229.897 86.1337C225.231 84.5316 214.29 80.8468 211.233 79.2447C207.371 77.4824 208.497 61.7817 208.497 61.7817Z" fill="#CB9EAE"/>
<path d="M221.209 156.786C212.037 159.509 203.349 162.714 198.844 162.714C189.833 162.714 176.318 150.057 170.043 157.747C163.768 165.437 162.802 170.564 167.79 174.089C172.778 177.453 188.546 172.807 196.108 174.249C199.487 174.89 210.911 175.53 223.139 175.37C224.105 170.564 223.944 161.592 221.209 156.786Z" fill="url(#paint2_linear)"/>
<path d="M253.549 102.635C251.457 94.1435 233.919 109.684 238.264 123.943C241.964 136.119 240.677 152.46 240.677 152.46L257.893 169.763C263.525 162.714 255.319 109.524 253.549 102.635Z" fill="url(#paint3_linear)"/>
<path d="M246.309 152.62C239.712 151.659 230.219 154.062 221.208 156.946C223.944 161.752 224.105 170.724 223.139 175.53C238.264 175.37 254.514 173.928 257.732 169.923C257.732 169.763 265.456 155.344 246.309 152.62Z" fill="url(#paint4_linear)"/>
<path d="M183.236 38.07C179.697 45.1192 180.018 68.8304 189.994 70.9131C198.683 72.8356 203.671 64.3445 203.671 64.3445V48.6439C203.671 48.6439 198.683 46.0805 198.039 39.9925C197.556 35.1862 194.66 34.7056 194.66 34.7056C194.66 34.7056 188.546 38.3904 183.236 38.07Z" fill="url(#paint5_linear)"/>
<path d="M167.63 153.582C163.124 144.45 160.067 133.075 157.493 126.666C152.505 114.49 151.701 97.508 158.619 93.663C171.33 87.0943 176.801 109.524 177.605 115.932C178.41 122.341 180.18 137.561 185.007 143.008L167.63 153.582Z" fill="url(#paint6_linear)"/>
<path d="M224.105 75.0785C215.416 69.6314 225.07 39.9924 210.589 28.6175C198.683 19.1651 179.697 26.2143 179.697 43.9977C179.697 51.2072 179.697 75.7194 179.697 86.4535C184.363 85.0116 187.903 83.5697 187.903 82.4482V70.2722V69.9518C180.019 64.9853 179.858 44.4783 183.237 37.9097C188.707 38.0699 194.66 34.5453 194.66 34.5453C194.66 34.5453 197.557 35.0259 198.039 39.8322C198.683 45.9202 203.671 48.4836 203.671 48.4836V64.1842C203.671 78.9236 207.21 95.1048 215.738 96.0661C224.266 97.0274 225.714 85.8126 232.15 86.6137C231.989 86.7739 232.793 80.5257 224.105 75.0785Z" fill="white"/>
<path d="M180.019 132.113C175.353 138.522 167.952 144.129 167.63 153.582C171.652 161.592 176.801 167.84 184.042 167.039C194.661 165.918 198.362 153.421 199.649 142.046C192.569 142.527 183.559 136.92 180.019 132.113Z" fill="url(#paint7_linear)"/>
<path d="M196.109 74.1171C194.017 75.0784 186.937 81.3266 186.937 82.7685C186.937 84.3706 190.155 96.066 190.155 99.5906C190.155 103.115 186.937 118.816 182.593 127.948C181.95 129.39 181.145 130.671 180.18 131.953C183.719 136.759 192.73 142.367 199.809 141.726C200.292 136.599 200.453 131.793 200.453 128.268C200.453 128.268 201.257 102.154 202.384 100.392C203.51 98.6293 203.51 95.9058 203.51 93.5026C203.51 89.0167 203.51 88.6963 203.51 88.6963C203.51 88.6963 205.119 88.5361 205.28 85.8125C205.28 85.6523 205.28 85.6523 205.28 85.4921C204.958 82.6083 198.039 73.3161 196.109 74.1171Z" fill="url(#paint8_linear)"/>
<path d="M369.879 85.6526C369.879 110.966 369.879 161.753 369.879 161.753C369.879 161.753 395.301 162.554 394.658 161.753C393.853 160.951 394.658 126.346 394.658 126.346L369.879 85.6526Z" fill="url(#paint9_linear)"/>
<path d="M420.24 169.923C422.332 184.182 421.045 200.363 420.24 206.451C419.436 212.539 401.254 267.331 401.254 267.331H445.502L457.73 209.335L441.64 164.957L420.24 169.923Z" fill="url(#paint10_linear)"/>
<path d="M420.241 169.923C422.332 184.182 421.045 200.363 420.241 206.451C419.436 212.539 397.715 267.812 397.715 267.812H445.502L457.73 209.335L441.64 164.957L420.241 169.923Z" fill="url(#paint11_linear)"/>
<path d="M472.371 154.864C478.807 175.21 508.091 181.779 500.046 214.622C494.253 238.333 482.347 267.972 482.347 267.972H427.159C427.159 267.972 444.536 216.384 444.536 209.495C444.536 202.606 433.595 167.52 433.595 167.52L472.371 154.864Z" fill="url(#paint12_linear)"/>
<path d="M378.728 68.5101C372.292 71.5541 366.339 85.3322 372.292 98.3093C378.246 111.286 379.05 108.883 381.303 119.137C383.555 129.23 382.751 134.837 401.254 147.494C419.918 160.151 419.275 163.515 420.24 169.923C421.205 176.332 473.498 175.05 472.693 150.858C471.889 126.667 473.176 98.7899 457.569 85.6527C441.961 72.3552 378.728 68.5101 378.728 68.5101Z" fill="url(#paint13_linear)"/>
<path d="M372.293 38.5508V111.126C372.293 111.126 398.68 97.0276 398.519 83.2495C398.359 69.4714 386.613 38.711 386.613 38.711H372.293V38.5508Z" fill="white"/>
<path d="M390.796 82.1281C390.796 82.1281 394.336 87.7354 395.462 90.2988C396.588 92.702 391.279 103.596 393.048 112.728C394.818 122.02 406.242 120.418 408.817 112.728C409.621 110.485 411.713 93.9837 411.713 93.9837V66.9081L390.796 82.1281Z" fill="url(#paint14_linear)"/>
<path d="M395.623 90.1385C403.024 81.8075 410.747 116.894 398.519 118.656C398.519 118.656 398.519 118.656 398.68 118.656L400.45 118.816C403.99 118.816 407.851 116.413 409.138 112.408C409.943 110.165 412.035 93.6631 412.035 93.6631V66.5875L391.118 81.8075C390.796 82.1279 394.336 87.7353 395.623 90.1385Z" fill="#CB9EAE"/>
<path d="M375.35 36.468C371.81 58.7372 375.671 79.4044 386.452 81.8075C397.232 84.2107 412.678 72.5153 412.678 62.1016C412.678 51.688 423.136 24.6124 411.23 18.5244C399.484 12.2762 377.602 22.3695 375.35 36.468Z" fill="url(#paint15_linear)"/>
<path d="M384.521 34.5454C384.521 34.5454 378.89 39.1915 374.706 41.7549C370.523 44.1581 371.649 30.0596 379.533 23.4909C387.578 16.9223 398.037 11.1547 402.381 14.9998C402.381 14.9998 415.735 11.3149 423.78 24.9328C431.825 38.5507 432.469 50.7267 435.043 54.0911C437.618 57.4555 441.801 59.5383 439.87 65.9467C439.87 65.9467 454.029 63.0629 456.282 72.8357C458.374 82.6086 457.73 85.8128 457.73 85.8128C457.73 85.8128 453.386 82.4484 444.214 79.2442C444.214 79.2442 438.1 84.0505 432.308 84.0505C426.516 84.0505 419.114 107.441 408.978 107.441L408.817 51.6879C408.817 51.5277 385.647 48.4837 384.521 34.5454Z" fill="white"/>
<path d="M254.836 152.941C227.966 180.818 204.958 265.729 204.958 265.729H243.412L267.547 209.335L254.836 152.941Z" fill="url(#paint16_linear)"/>
<path d="M394.657 157.587C389.025 151.179 359.098 130.351 320.965 132.594C287.337 134.677 260.146 144.931 254.836 152.941C250.974 158.869 259.502 198.601 265.294 214.302C271.248 230.162 273.822 246.985 273.822 261.403C273.822 261.403 368.913 260.923 369.396 261.403C369.878 261.884 381.141 226.478 382.75 208.854C384.198 191.231 380.98 171.846 394.657 157.587Z" fill="#A630B0"/>
<path d="M343.169 99.7511C343.169 99.7511 343.652 129.23 343.169 138.041C342.686 146.853 329.01 154.703 324.022 155.024C318.873 155.184 307.771 147.814 306.001 135.318V108.723L343.169 99.7511Z" fill="url(#paint17_linear)"/>
<path d="M343.331 115.612C343.331 107.121 343.17 99.5911 343.17 99.5911L305.841 108.403V130.191C308.898 143.809 329.654 140.124 334.481 127.147C337.377 119.778 339.63 117.695 343.331 115.612Z" fill="#CB9EAE"/>
<path d="M295.866 88.216C297.314 109.844 306.163 130.672 320.001 128.429C337.378 125.705 342.687 99.4308 341.883 85.172C341.239 70.9133 333.033 61.9415 320.644 61.9415C308.899 62.1017 294.74 69.952 295.866 88.216Z" fill="url(#paint18_linear)"/>
<path d="M346.226 95.4254C345.261 99.7511 343.169 102.955 341.56 102.635C339.951 102.314 339.308 98.6296 340.273 94.3039C341.238 89.9783 343.33 86.774 344.939 87.0945C346.548 87.4149 347.031 91.0997 346.226 95.4254Z" fill="url(#paint19_linear)"/>
<path d="M296.188 91.5804C293.613 87.5752 293.291 85.9731 293.613 79.2442C293.774 72.5154 299.406 72.3552 299.406 69.4714C299.245 66.5876 302.945 58.8975 317.909 58.2566C332.872 57.6158 331.907 64.5048 336.573 64.9855C341.239 65.4661 348.319 70.1122 344.94 87.0945C344.94 87.0945 340.917 87.415 339.308 95.5857C339.148 96.2265 338.343 96.3867 338.021 95.9061C337.539 95.2653 337.056 94.1438 336.573 92.7019C335.447 88.5364 330.942 94.7846 330.137 86.6139C329.494 80.8463 315.335 91.4202 304.715 81.9678C304.715 81.9678 303.106 84.0505 298.601 83.8903C296.027 84.0505 296.188 91.5804 296.188 91.5804Z" fill="white"/>
<path d="M305.84 169.603C305.84 169.603 307.127 171.205 309.38 167.681C311.633 164.156 319.517 153.582 322.252 154.543C316.781 153.422 307.449 146.212 305.84 134.998V134.036C301.496 134.677 297.152 135.318 293.29 136.279C292.164 142.528 296.83 162.714 305.84 169.603Z" fill="#385FD4"/>
<path d="M343.169 137.881C342.686 145.571 332.389 152.46 326.274 154.383C329.171 153.261 339.629 167.039 341.399 170.083C343.169 173.127 346.548 168.962 349.927 160.631C352.34 154.543 356.041 143.969 354.432 136.439C350.892 135.478 347.191 134.677 343.169 133.876C343.169 135.478 343.169 136.76 343.169 137.881Z" fill="#385FD4"/>
<path d="M305.841 134.997V128.589C300.21 130.992 295.061 133.075 294.579 136.279C293.452 142.527 298.44 160.631 305.841 167.039C305.841 167.039 307.129 168.642 309.381 165.117C311.634 161.592 319.518 153.582 322.253 154.703C316.783 153.422 307.45 146.372 305.841 134.997Z" fill="url(#paint20_linear)"/>
<path d="M352.501 133.876C350.892 130.351 345.905 127.628 343.33 126.346C343.33 130.992 343.33 135.318 343.169 137.721C342.687 145.411 332.389 152.3 326.275 154.223C329.171 153.101 339.629 164.156 341.399 167.2C343.169 170.244 345.422 166.719 349.123 158.388C352.984 150.217 354.915 139.644 352.501 133.876Z" fill="url(#paint21_linear)"/>
<path d="M413 243.78C413 219.428 405.92 170.404 394.496 157.587C394.496 157.587 376.797 167.04 371.166 196.999C369.557 205.971 372.292 231.444 373.097 242.338L413 243.78Z" fill="url(#paint22_linear)"/>
<path d="M343.974 267.812C343.974 267.812 389.83 267.812 397.714 267.812C405.598 267.812 414.287 261.403 412.999 243.78C411.712 226.157 382.911 228.72 373.097 242.178L343.491 246.664L343.974 267.812Z" fill="url(#paint23_linear)"/>
<path d="M316.782 266.851L319.357 264.448L327.08 267.171C328.367 267.652 329.815 267.812 331.263 267.812H346.548C346.548 267.812 353.789 266.21 354.111 257.719C354.272 249.228 347.031 246.664 343.813 246.664H326.919C326.114 246.664 325.31 246.504 324.344 246.344L312.438 243.78C310.668 243.46 308.898 243.78 307.289 244.581L300.531 248.427C299.244 249.228 297.957 250.029 296.992 251.15L284.602 263.486C282.993 265.088 284.12 267.652 286.372 267.652H314.208C315.173 267.812 316.139 267.492 316.782 266.851Z" fill="url(#paint24_linear)"/>
<path d="M459.5 88.6966C447.915 82.128 427.803 100.873 432.147 123.302C436.491 145.571 411.874 173.288 411.874 173.288C411.874 173.288 384.038 184.502 372.775 186.585C375.511 190.43 378.568 196.038 379.855 203.247C398.197 201.805 424.424 197.96 435.043 189.149C451.133 175.851 468.188 126.667 468.188 111.126C468.188 92.8621 459.5 88.6966 459.5 88.6966Z" fill="url(#paint25_linear)"/>
<path d="M369.879 186.745C361.834 186.745 333.838 186.745 333.838 186.745C333.838 186.745 308.094 195.397 307.45 196.839C306.807 198.281 305.52 207.092 307.45 209.175C309.381 211.258 322.575 214.942 325.793 214.302C329.172 213.661 355.237 204.048 361.191 204.048C363.282 204.048 370.523 203.888 379.855 203.087C378.407 195.877 375.35 190.11 372.775 186.425C371.649 186.745 370.523 186.745 369.879 186.745Z" fill="url(#paint26_linear)"/>
<path d="M138.829 162.874C138.829 162.874 147.839 169.923 157.171 162.874C166.342 155.825 160.067 143.649 160.067 143.649L138.99 154.863V162.874H138.829Z" fill="url(#paint27_linear)"/>
<path d="M151.862 96.2264V149.416H134.324V99.1102L151.862 96.2264Z" fill="url(#paint28_linear)"/>
<path d="M123.383 228.56C121.774 237.372 112.281 249.868 106.167 267.972H140.76C144.139 246.343 147.035 217.345 142.369 191.391H122.417C124.348 200.043 124.992 220.069 123.383 228.56Z" fill="url(#paint29_linear)"/>
<path d="M90.2373 226.638C90.2373 226.638 94.2598 246.023 96.995 267.972H106.166C112.28 250.028 121.773 237.532 123.382 228.56C124.991 220.229 124.187 200.203 122.417 191.391H91.2027L90.2373 226.638Z" fill="url(#paint30_linear)"/>
<path d="M122.417 191.391C122.256 190.27 121.934 189.308 121.612 188.668H61.5972C62.4017 217.505 64.6542 246.023 66.1023 267.972H106.166C112.28 250.028 121.773 237.532 123.382 228.56C124.991 220.069 124.348 200.043 122.417 191.391Z" fill="url(#paint31_linear)"/>
<path d="M102.626 48.8041C67.0678 39.3517 43.0939 55.0523 39.2323 77.8022C35.6925 98.4693 61.7581 162.714 61.7581 188.508C61.7581 188.508 103.914 210.136 142.529 191.231C142.529 191.231 136.737 163.675 142.529 139.323C148.322 114.971 156.045 101.033 149.448 83.5698C143.656 68.51 119.199 53.29 102.626 48.8041Z" fill="#A630B0"/>
<path d="M115.82 25.4134C115.82 25.4134 102.466 42.2355 96.8344 47.5224C91.203 52.8094 101.661 63.8639 109.545 68.51C114.855 71.554 125.796 74.9184 122.578 65.466C122.578 65.466 120.808 60.179 129.658 52.4889C129.497 52.4889 119.682 23.0102 115.82 25.4134Z" fill="url(#paint32_linear)"/>
<path d="M129.497 52.4888C129.497 52.4888 124.831 38.8709 120.808 30.8604L116.464 32.9431C111.315 43.3568 110.511 62.9024 122.417 65.4658C122.417 65.4658 120.647 60.0187 129.497 52.4888Z" fill="#CB9EAE"/>
<path d="M121.13 22.3695C122.256 15.9611 116.464 15.4805 114.694 20.7674C112.602 26.8554 114.855 31.1811 117.268 29.7392C117.268 29.7392 112.763 43.5173 118.394 51.8482C124.026 60.1792 131.588 56.975 140.759 48.0032C148.643 40.3131 153.792 30.7005 154.597 27.1758C156.688 17.7234 146.713 9.87311 137.381 10.5139C126.118 10.9946 121.13 22.3695 121.13 22.3695Z" fill="url(#paint33_linear)"/>
<path d="M121.13 22.3694C120.808 26.2144 121.451 29.0982 123.543 27.8165C125.796 26.5348 131.105 19.0049 135.771 24.4521C140.598 29.8992 144.46 35.026 152.988 34.0647C163.929 32.9432 166.503 18.0437 156.849 15.3201C156.849 15.3201 161.032 10.1934 153.631 7.7902C146.712 5.54725 146.552 6.98915 141.725 1.542C138.989 -1.502 122.417 0.100098 117.912 17.0824C117.912 17.4028 121.612 16.6018 121.13 22.3694Z" fill="white"/>
<path d="M66.5851 131.953C66.9069 124.583 71.5729 105.518 78.0089 93.1822C84.4448 81.0062 81.2268 65.3056 72.5383 59.0574C63.8498 52.9694 51.6215 54.0909 45.8291 62.582C30.222 85.4921 34.7271 136.92 43.2548 154.383C44.8637 157.907 48.8862 160.15 54.3568 161.432C42.4503 155.985 54.3568 129.069 66.5851 131.953Z" fill="#8D3095"/>
<path d="M112.441 152.781L135.771 124.744C136.737 123.462 138.346 122.981 139.955 123.462L179.536 134.356C180.501 134.677 180.823 135.798 180.019 136.599L150.091 163.515C149.448 164.156 148.643 164.316 147.678 164.156L113.407 156.145C112.119 155.664 111.637 153.902 112.441 152.781Z" fill="url(#paint34_linear)"/>
<path d="M140.437 141.726C139.15 137.881 135.128 134.997 132.875 134.356C131.266 133.876 119.038 134.036 112.441 134.196C109.867 134.196 107.453 134.997 105.2 136.279C103.109 137.561 100.534 139.002 99.2472 139.002C96.9946 139.002 78.6522 139.002 78.6522 139.002C78.6522 139.002 73.0207 134.677 66.4239 131.793C54.0347 128.909 42.2891 155.825 54.0347 161.272C73.9861 166.238 113.245 159.029 129.657 153.421C133.358 152.14 136.576 149.897 138.828 146.693C140.115 145.09 140.92 143.168 140.437 141.726Z" fill="url(#paint35_linear)"/>
<path d="M0.777832 267.812C0.777832 267.812 33.9229 267.651 83.6406 267.331C133.358 267.171 199.648 267.171 265.778 267.011C332.068 267.171 398.358 267.331 447.915 267.331C497.633 267.651 530.778 267.812 530.778 267.812C530.778 267.812 497.633 267.972 447.915 268.292C398.197 268.453 331.907 268.453 265.778 268.613C199.488 268.453 133.197 268.292 83.6406 268.292C33.9229 267.972 0.777832 267.812 0.777832 267.812Z" fill="#001462"/>
<path d="M280.42 272.298H336.895C340.113 272.298 342.687 269.734 342.687 266.53C342.687 265.088 341.561 263.806 339.952 263.806H280.259C278.811 263.806 277.523 264.928 277.523 266.53V269.734C277.845 271.176 278.972 272.298 280.42 272.298Z" fill="url(#paint36_linear)"/>
<path d="M180.501 272.298H298.44C302.945 272.298 306.324 267.972 305.037 263.646L284.281 188.187C282.994 183.221 278.489 179.856 273.34 179.856H155.401C150.896 179.856 147.517 184.182 148.804 188.508L169.56 263.967C170.847 268.933 175.353 272.298 180.501 272.298Z" fill="url(#paint37_linear)"/>
<defs>
<linearGradient id="paint0_linear" x1="227.981" y1="-19.66" x2="193.49" y2="275.65" gradientUnits="userSpaceOnUse">
<stop offset="0.0800729" stop-color="#747474"/>
<stop offset="0.2124" stop-color="#454649"/>
<stop offset="0.4458" stop-color="#1E1E20"/>
<stop offset="0.7508" stop-color="#3D3E42"/>
<stop offset="0.8975" stop-color="#2B2D33"/>
</linearGradient>
<linearGradient id="paint1_linear" x1="220.108" y1="71.5016" x2="191.515" y2="97.3454" gradientUnits="userSpaceOnUse">
<stop stop-color="#F6B3B5"/>
<stop offset="1" stop-color="#FAD1D3"/>
</linearGradient>
<linearGradient id="paint2_linear" x1="186.109" y1="152.858" x2="197.974" y2="172.008" gradientUnits="userSpaceOnUse">
<stop stop-color="#F6B3B5"/>
<stop offset="1" stop-color="#FAD1D3"/>
</linearGradient>
<linearGradient id="paint3_linear" x1="266.889" y1="-15.1863" x2="232.378" y2="280.301" gradientUnits="userSpaceOnUse">
<stop stop-color="#4F4F51"/>
<stop offset="0.1604" stop-color="#1B1C1D"/>
<stop offset="0.4433" stop-color="#272727"/>
<stop offset="0.813" stop-color="#3F4044"/>
<stop offset="0.9908" stop-color="#3A3B40"/>
</linearGradient>
<linearGradient id="paint4_linear" x1="222.06" y1="107.202" x2="252.06" y2="204.475" gradientUnits="userSpaceOnUse">
<stop stop-color="#494C53"/>
<stop offset="0.1604" stop-color="#2F3034"/>
<stop offset="0.4433" stop-color="#272829"/>
<stop offset="0.813" stop-color="#525252"/>
<stop offset="0.9908" stop-color="#34363C"/>
</linearGradient>
<linearGradient id="paint5_linear" x1="198.671" y1="30.6228" x2="185.005" y2="83.3796" gradientUnits="userSpaceOnUse">
<stop stop-color="#F6B3B5"/>
<stop offset="1" stop-color="#FAD1D3"/>
</linearGradient>
<linearGradient id="paint6_linear" x1="186.753" y1="-24.4751" x2="152.262" y2="270.835" gradientUnits="userSpaceOnUse">
<stop stop-color="#313237"/>
<stop offset="0.1604" stop-color="#34373F"/>
<stop offset="0.4433" stop-color="#2D2D2E"/>
<stop offset="0.813" stop-color="#43454F"/>
<stop offset="0.9908" stop-color="#2F3138"/>
</linearGradient>
<linearGradient id="paint7_linear" x1="226.381" y1="141.823" x2="130.588" y2="158.667" gradientUnits="userSpaceOnUse">
<stop stop-color="#2C344A"/>
<stop offset="0.1604" stop-color="#565860"/>
<stop offset="0.4433" stop-color="#363637"/>
<stop offset="0.813" stop-color="#34353A"/>
<stop offset="0.9908" stop-color="#373A45"/>
</linearGradient>
<linearGradient id="paint8_linear" x1="170.655" y1="108.036" x2="207.625" y2="108.036" gradientUnits="userSpaceOnUse">
<stop stop-color="#F6B3B5"/>
<stop offset="1" stop-color="#FAD1D3"/>
</linearGradient>
<linearGradient id="paint9_linear" x1="382.249" y1="188.103" x2="382.249" y2="74.1259" gradientUnits="userSpaceOnUse">
<stop stop-color="#3E4046"/>
<stop offset="0.2793" stop-color="#373A42"/>
<stop offset="0.7702" stop-color="#464A52"/>
<stop offset="0.9908" stop-color="#4B4F56"/>
</linearGradient>
<linearGradient id="paint10_linear" x1="429.117" y1="291.538" x2="430.331" y2="136.523" gradientUnits="userSpaceOnUse">
<stop stop-color="#001462"/>
<stop offset="0.0686931" stop-color="#081E71"/>
<stop offset="0.2519" stop-color="#193595"/>
<stop offset="0.4371" stop-color="#2748B0"/>
<stop offset="0.623" stop-color="#3055C4"/>
<stop offset="0.8101" stop-color="#365CD0"/>
<stop offset="1" stop-color="#385FD4"/>
</linearGradient>
<linearGradient id="paint11_linear" x1="504.116" y1="216.449" x2="392.453" y2="216.449" gradientUnits="userSpaceOnUse">
<stop stop-color="#263831"/>
<stop offset="0.1736" stop-color="#203029"/>
<stop offset="0.4798" stop-color="#1D2E26"/>
<stop offset="0.88" stop-color="#2C4238"/>
<stop offset="0.9908" stop-color="#1F3029"/>
</linearGradient>
<linearGradient id="paint12_linear" x1="464.278" y1="133.268" x2="464.278" y2="292.271" gradientUnits="userSpaceOnUse">
<stop stop-color="#254738"/>
<stop offset="0.1702" stop-color="#182721"/>
<stop offset="0.397" stop-color="#1C3229"/>
<stop offset="0.616" stop-color="#10251C"/>
<stop offset="0.8215" stop-color="#13281F"/>
<stop offset="1" stop-color="#071710"/>
</linearGradient>
<linearGradient id="paint13_linear" x1="420.869" y1="173.1" x2="421.685" y2="68.8278" gradientUnits="userSpaceOnUse">
<stop stop-color="#606061"/>
<stop offset="0.2793" stop-color="#454953"/>
<stop offset="0.7702" stop-color="#232425"/>
<stop offset="0.9908"/>
</linearGradient>
<linearGradient id="paint14_linear" x1="413.664" y1="88.591" x2="387.73" y2="106.951" gradientUnits="userSpaceOnUse">
<stop stop-color="#F6B3B5"/>
<stop offset="0.9914" stop-color="#FAD1D3"/>
</linearGradient>
<linearGradient id="paint15_linear" x1="398.204" y1="45.0122" x2="378.69" y2="68.4442" gradientUnits="userSpaceOnUse">
<stop stop-color="#F6B3B5"/>
<stop offset="0.9914" stop-color="#FAD1D3"/>
</linearGradient>
<linearGradient id="paint16_linear" x1="236.169" y1="-107.209" x2="236.169" y2="477.523" gradientUnits="userSpaceOnUse">
<stop stop-color="#A630B0"/>
<stop offset="1" stop-color="#2E3035"/>
</linearGradient>
<linearGradient id="paint17_linear" x1="349.137" y1="118.427" x2="300.588" y2="137.673" gradientUnits="userSpaceOnUse">
<stop stop-color="#F6B3B5"/>
<stop offset="0.9914" stop-color="#FAD1D3"/>
</linearGradient>
<linearGradient id="paint18_linear" x1="322.123" y1="55.1605" x2="315.359" y2="126.489" gradientUnits="userSpaceOnUse">
<stop stop-color="#F6B3B5"/>
<stop offset="0.9914" stop-color="#FAD1D3"/>
</linearGradient>
<linearGradient id="paint19_linear" x1="315.17" y1="192.402" x2="345.214" y2="86.798" gradientUnits="userSpaceOnUse">
<stop stop-color="#8CC6FF"/>
<stop offset="1" stop-color="#F6B3B5"/>
</linearGradient>
<linearGradient id="paint20_linear" x1="308.314" y1="235.049" x2="308.314" y2="96.9186" gradientUnits="userSpaceOnUse">
<stop stop-color="#121212"/>
<stop offset="1" stop-color="#525665"/>
</linearGradient>
<linearGradient id="paint21_linear" x1="339.935" y1="235.049" x2="339.935" y2="96.9188" gradientUnits="userSpaceOnUse">
<stop stop-color="#414345"/>
<stop offset="1" stop-color="#474A54"/>
</linearGradient>
<linearGradient id="paint22_linear" x1="391.907" y1="-72.4011" x2="391.907" y2="466.309" gradientUnits="userSpaceOnUse">
<stop stop-color="#B64FBF"/>
<stop offset="1" stop-color="#303540"/>
</linearGradient>
<linearGradient id="paint23_linear" x1="378.362" y1="-72.4012" x2="378.362" y2="466.309" gradientUnits="userSpaceOnUse">
<stop stop-color="#A93FB3"/>
<stop offset="1" stop-color="#353B4D"/>
</linearGradient>
<linearGradient id="paint24_linear" x1="319.033" y1="269.628" x2="319.033" y2="239.883" gradientUnits="userSpaceOnUse">
<stop stop-color="#F6B3B5"/>
<stop offset="0.9914" stop-color="#FAD1D3"/>
</linearGradient>
<linearGradient id="paint25_linear" x1="419.84" y1="230.58" x2="421.216" y2="54.8285" gradientUnits="userSpaceOnUse">
<stop stop-color="#1C1C1D"/>
<stop offset="0.2793" stop-color="#35373D"/>
<stop offset="0.7702" stop-color="#46494F"/>
<stop offset="0.9908" stop-color="#4D4E50"/>
</linearGradient>
<linearGradient id="paint26_linear" x1="350.471" y1="225.751" x2="336.932" y2="186.233" gradientUnits="userSpaceOnUse">
<stop stop-color="#F6B3B5"/>
<stop offset="0.9914" stop-color="#FAD1D3"/>
</linearGradient>
<linearGradient id="paint27_linear" x1="191.532" y1="146.935" x2="139.598" y2="158.273" gradientUnits="userSpaceOnUse">
<stop offset="0.00565128" stop-color="#A630B0"/>
<stop offset="0.01562" stop-color="#B5BFE3"/>
<stop offset="0.0286519" stop-color="#E5B6C1"/>
<stop offset="0.0329884" stop-color="#F6B3B5"/>
<stop offset="0.0330884" stop-color="#A630B0"/>
<stop offset="0.9908" stop-color="#A630B0"/>
</linearGradient>
<linearGradient id="paint28_linear" x1="184.631" y1="115.324" x2="132.697" y2="126.663" gradientUnits="userSpaceOnUse">
<stop stop-color="#A630B0"/>
<stop offset="0.00565128" stop-color="#97C4F7"/>
<stop offset="0.01562" stop-color="#B5BFE3"/>
<stop offset="0.0286519" stop-color="#E5B6C1"/>
<stop offset="0.0329884" stop-color="#A630B0"/>
<stop offset="0.9908" stop-color="#88368F"/>
</linearGradient>
<linearGradient id="paint29_linear" x1="17.4147" y1="209.193" x2="294.044" y2="262.525" gradientUnits="userSpaceOnUse">
<stop offset="0.1048" stop-color="#212D28"/>
<stop offset="0.2974" stop-color="#1E352B"/>
<stop offset="0.49" stop-color="#162921"/>
<stop offset="0.6752" stop-color="#243E32"/>
<stop offset="0.8491" stop-color="#131A31"/>
<stop offset="1" stop-color="#0C142B"/>
</linearGradient>
<linearGradient id="paint30_linear" x1="16.8973" y1="211.875" x2="293.527" y2="265.206" gradientUnits="userSpaceOnUse">
<stop offset="0.1048" stop-color="#001462"/>
<stop offset="0.2974" stop-color="#142E8A"/>
<stop offset="0.49" stop-color="#2343AA"/>
<stop offset="0.6752" stop-color="#2F53C1"/>
<stop offset="0.8491" stop-color="#365CCF"/>
<stop offset="1" stop-color="#385FD4"/>
</linearGradient>
<linearGradient id="paint31_linear" x1="-0.96712" y1="130.304" x2="244.537" y2="385.994" gradientUnits="userSpaceOnUse">
<stop offset="0.1048" stop-color="#1F2321"/>
<stop offset="0.2974" stop-color="#192520"/>
<stop offset="0.49" stop-color="#2E453B"/>
<stop offset="0.6752" stop-color="#273E34"/>
<stop offset="0.8491" stop-color="#1E332A"/>
<stop offset="1" stop-color="#0F1512"/>
</linearGradient>
<linearGradient id="paint32_linear" x1="109.4" y1="28.2773" x2="114.95" y2="73.5092" gradientUnits="userSpaceOnUse">
<stop stop-color="#F6B3B5"/>
<stop offset="1" stop-color="#FAD1D3"/>
</linearGradient>
<linearGradient id="paint33_linear" x1="155.144" y1="3.19729" x2="113.37" y2="50.7445" gradientUnits="userSpaceOnUse">
<stop stop-color="#F6B3B5"/>
<stop offset="1" stop-color="#FAD1D3"/>
</linearGradient>
<linearGradient id="paint34_linear" x1="100.871" y1="172.068" x2="187.718" y2="113.602" gradientUnits="userSpaceOnUse">
<stop stop-color="#8C8D91"/>
<stop offset="0.118" stop-color="#999BA0"/>
<stop offset="0.2672" stop-color="#B5B7BC"/>
<stop offset="0.4243" stop-color="#A3A5AB"/>
<stop offset="0.5908" stop-color="#A2A6B4"/>
<stop offset="0.7728" stop-color="#9699A2"/>
<stop offset="1" stop-color="#C5C5C5"/>
</linearGradient>
<linearGradient id="paint35_linear" x1="95.0215" y1="161.794" x2="95.0215" y2="133.322" gradientUnits="userSpaceOnUse">
<stop stop-color="#F6B3B5"/>
<stop offset="1" stop-color="#FAD1D3"/>
</linearGradient>
<linearGradient id="paint36_linear" x1="309.638" y1="268.732" x2="319.66" y2="239.102" gradientUnits="userSpaceOnUse">
<stop stop-color="#46474A"/>
<stop offset="0.118" stop-color="#5F6064"/>
<stop offset="0.2672" stop-color="#808389"/>
<stop offset="0.4243" stop-color="#A1A2A6"/>
<stop offset="0.5908" stop-color="#DADDE7"/>
<stop offset="0.7728" stop-color="#DEE0E7"/>
<stop offset="1" stop-color="#E6E9F1"/>
</linearGradient>
<linearGradient id="paint37_linear" x1="230.211" y1="266.097" x2="218.026" y2="116.192" gradientUnits="userSpaceOnUse">
<stop stop-color="#505156"/>
<stop offset="0.118" stop-color="#686B73"/>
<stop offset="0.2672" stop-color="#9497A2"/>
<stop offset="0.4243" stop-color="#B1B3BB"/>
<stop offset="0.5908" stop-color="#D6D9E1"/>
<stop offset="0.7728" stop-color="#C5C9D5"/>
<stop offset="1" stop-color="#E8EAF1"/>
</linearGradient>
</defs>
</svg>
