<svg width="400" height="400" viewBox="0 0 400 400" fill="none" xmlns="http://www.w3.org/2000/svg">
<path d="M133.752 57.536C133.752 57.536 73.1361 88.416 42.9041 136C12.6721 183.584 15.0641 244.8 51.8001 290.24C88.5361 335.68 158.752 329.712 217.544 358.496C276.336 387.28 341.2 381.352 369 320.368C396.8 259.384 354.88 236.592 347.68 166.016C340.48 95.44 276.856 -7.90403 133.752 57.536Z" fill="#92E3A9"/>
<path opacity="0.7" d="M133.752 57.536C133.752 57.536 73.1361 88.416 42.9041 136C12.6721 183.584 15.0641 244.8 51.8001 290.24C88.5361 335.68 158.752 329.712 217.544 358.496C276.336 387.28 341.2 381.352 369 320.368C396.8 259.384 354.88 236.592 347.68 166.016C340.48 95.44 276.856 -7.90403 133.752 57.536Z" fill="#DE3DBF"/>
<path d="M298.935 270.888V268.208C298.935 254.408 316.407 253.808 316.407 243.984C316.407 239.72 312.935 236.936 307.767 236.936C302.111 236.936 298.535 240.016 298.535 244.384V245.48C298.535 246.568 297.943 247.08 296.847 247.08L286.231 246.68C285.239 246.68 284.543 246.184 284.543 245.496V244.4C284.543 232.4 294.071 224.152 308.071 224.152C321.767 224.152 330.599 231.896 330.599 243.504C330.599 259.984 312.831 260.088 312.831 269.104V270.888C312.858 271.116 312.833 271.347 312.758 271.564C312.683 271.782 312.559 271.979 312.397 272.141C312.234 272.304 312.037 272.427 311.82 272.502C311.603 272.578 311.372 272.603 311.143 272.576H300.623C300.395 272.603 300.164 272.578 299.947 272.502C299.73 272.427 299.533 272.304 299.37 272.141C299.208 271.979 299.084 271.782 299.009 271.564C298.934 271.347 298.908 271.116 298.935 270.888V270.888ZM298.039 286.888C298.039 282.52 301.911 278.944 306.575 278.944C311.047 278.944 315.015 282.52 315.015 286.888C315.015 291.256 311.015 294.832 306.479 294.832C301.943 294.832 298.039 291.24 298.039 286.872V286.888Z" fill="#263238"/>
<path d="M89.1755 157.208V154.88C89.1755 142.88 104.376 142.376 104.376 133.84C104.376 130.128 101.36 127.72 96.8795 127.72C91.9595 127.72 88.8795 130.392 88.8795 134.184V135.136C88.8795 136.08 88.3675 136.512 87.4155 136.512L78.1915 136.168C77.3275 136.168 76.7275 135.736 76.7275 135.136V134.184C76.7275 123.784 84.9995 116.584 97.1595 116.584C109.056 116.584 116.736 123.312 116.736 133.384C116.736 147.696 101.296 147.784 101.296 155.632V157.184C101.319 157.382 101.297 157.582 101.231 157.77C101.166 157.959 101.059 158.129 100.918 158.27C100.777 158.411 100.606 158.518 100.418 158.584C100.23 158.649 100.029 158.671 99.8315 158.648H90.6395C90.4439 158.67 90.2458 158.649 90.0596 158.585C89.8735 158.521 89.704 158.416 89.5636 158.278C89.4233 158.14 89.3156 157.972 89.2484 157.787C89.1813 157.602 89.1564 157.404 89.1755 157.208V157.208ZM88.3755 171.088C88.3755 167.296 91.7355 164.192 95.7835 164.192C99.6635 164.192 103.12 167.296 103.12 171.088C103.12 174.88 99.6635 177.984 95.7035 177.984C93.8223 178.031 91.9987 177.333 90.6304 176.041C89.2621 174.749 88.4602 172.969 88.3995 171.088H88.3755Z" fill="#92E3A9"/>
<path d="M282.264 65.4079V64.2319C282.264 58.1759 289.928 57.9119 289.928 53.5999C289.928 51.7279 288.4 50.5039 286.136 50.5039C283.656 50.5039 282.088 51.8559 282.088 53.7759V54.2559C282.088 54.7359 281.824 54.9519 281.344 54.9519L276.688 54.7759C276.248 54.7759 275.944 54.5599 275.944 54.2559V53.7759C275.944 48.5039 280.128 44.8879 286.272 44.8879C292.28 44.8879 296.16 48.2879 296.16 53.3839C296.16 60.5839 288.36 60.6559 288.36 64.5839V65.3839C288.372 65.4841 288.36 65.5857 288.327 65.6809C288.294 65.7761 288.239 65.8624 288.167 65.9334C288.096 66.0043 288.009 66.058 287.913 66.0903C287.818 66.1226 287.716 66.1328 287.616 66.1199H283C282.902 66.1324 282.803 66.1227 282.71 66.0917C282.617 66.0606 282.532 66.009 282.461 65.9407C282.39 65.8723 282.336 65.7889 282.302 65.6967C282.268 65.6045 282.255 65.5058 282.264 65.4079V65.4079ZM281.872 72.4239C281.82 71.6759 281.995 70.9297 282.374 70.2824C282.752 69.6351 283.317 69.1167 283.994 68.7945C284.671 68.4723 285.429 68.3612 286.17 68.4758C286.911 68.5904 287.6 68.9253 288.148 69.4369C288.697 69.9485 289.078 70.6133 289.243 71.3446C289.408 72.076 289.35 72.8401 289.075 73.5377C288.8 74.2353 288.322 74.834 287.702 75.256C287.082 75.678 286.35 75.9038 285.6 75.9039C285.126 75.921 284.654 75.8445 284.21 75.6787C283.766 75.5129 283.36 75.2612 283.013 74.9379C282.667 74.6146 282.388 74.2261 282.192 73.7947C281.996 73.3633 281.887 72.8975 281.872 72.4239Z" fill="#92E3A9"/>
<path d="M57.5997 227.2V225.72C57.5997 218.088 67.2637 217.76 67.2637 212.32C67.2637 209.96 65.3437 208.424 62.4637 208.424C59.3357 208.424 57.3597 210.128 57.3597 212.544V213.144C57.3597 213.752 57.0317 214.024 56.4237 214.024L50.5517 213.808C49.9997 213.808 49.6157 213.528 49.6157 213.144V212.544C49.6157 205.904 54.8877 201.344 62.6317 201.344C70.2077 201.344 75.0877 205.624 75.0877 212.048C75.0877 221.16 65.2637 221.216 65.2637 226.216V227.2C65.2793 227.327 65.2657 227.455 65.2242 227.576C65.1826 227.696 65.1142 227.806 65.0239 227.896C64.9337 227.986 64.8241 228.055 64.7035 228.096C64.5829 228.138 64.4544 228.152 64.3277 228.136H58.5197C58.3943 228.149 58.2676 228.133 58.1491 228.091C58.0305 228.048 57.923 227.979 57.8346 227.889C57.7463 227.799 57.6793 227.691 57.6386 227.571C57.5979 227.452 57.5847 227.325 57.5997 227.2V227.2ZM57.1037 236.04C57.0411 235.097 57.2636 234.158 57.7424 233.344C58.2212 232.529 58.934 231.878 59.7881 231.475C60.6422 231.071 61.598 230.934 62.531 231.082C63.464 231.229 64.3311 231.654 65.0193 232.301C65.7075 232.948 66.185 233.787 66.3897 234.709C66.5943 235.631 66.5166 236.594 66.1666 237.471C65.8166 238.348 65.2106 239.1 64.4274 239.628C63.6443 240.156 62.7203 240.436 61.7757 240.432C60.5718 240.471 59.4016 240.03 58.5226 239.206C57.6435 238.383 57.1274 237.244 57.0877 236.04H57.1037Z" stroke="#263238" stroke-miterlimit="10"/>
<path d="M131.2 89.1038V88.0878C131.2 82.8398 137.848 82.6078 137.848 78.8718C137.848 77.2718 136.528 76.1918 134.56 76.1918C132.408 76.1918 131.048 77.3598 131.048 79.0238V79.4398C131.048 79.8558 130.824 80.0398 130.408 80.0398L126.408 79.8878C126.032 79.8878 125.768 79.7038 125.768 79.4398V79.0238C125.768 74.4558 129.392 71.3198 134.712 71.3198C140.032 71.3198 143.2 74.2638 143.2 78.6798C143.2 84.9518 136.44 84.9918 136.44 88.4238V89.1038C136.45 89.1904 136.441 89.2781 136.412 89.3604C136.384 89.4428 136.337 89.5175 136.275 89.5792C136.214 89.6408 136.139 89.6876 136.057 89.7161C135.974 89.7447 135.887 89.7541 135.8 89.7438H131.8C131.717 89.7478 131.634 89.7337 131.556 89.7024C131.479 89.6711 131.409 89.6233 131.352 89.5624C131.295 89.5016 131.252 89.429 131.226 89.3499C131.199 89.2707 131.191 89.1867 131.2 89.1038V89.1038ZM130.864 95.1838C130.829 94.5446 130.986 93.9095 131.316 93.3607C131.645 92.8118 132.132 92.3744 132.713 92.105C133.293 91.8356 133.942 91.7466 134.573 91.8494C135.205 91.9523 135.792 92.2423 136.257 92.682C136.722 93.1218 137.045 93.6909 137.184 94.316C137.322 94.941 137.27 95.5932 137.034 96.1883C136.797 96.7833 136.388 97.2938 135.859 97.6539C135.329 98.0139 134.704 98.2069 134.064 98.2078C133.238 98.2359 132.434 97.9349 131.83 97.3709C131.225 96.8069 130.869 96.0261 130.84 95.1998L130.864 95.1838Z" fill="#263238"/>
<path d="M249.6 308.424V307.408C249.6 302.16 256.248 301.936 256.248 298.192C256.248 296.592 254.928 295.512 252.96 295.512C250.808 295.512 249.448 296.68 249.448 298.344V298.76C249.448 299.176 249.224 299.368 248.808 299.368L244.808 299.216C244.432 299.216 244.168 299.024 244.168 298.76V298.344C244.168 293.776 247.792 290.64 253.112 290.64C258.432 290.64 261.688 293.584 261.688 298.008C261.688 304.272 254.928 304.312 254.928 307.744V308.424C254.938 308.511 254.928 308.599 254.9 308.681C254.871 308.764 254.825 308.839 254.763 308.901C254.702 308.964 254.627 309.011 254.545 309.041C254.463 309.07 254.375 309.081 254.288 309.072H250.288C250.197 309.089 250.104 309.085 250.016 309.059C249.927 309.033 249.846 308.986 249.779 308.923C249.712 308.86 249.661 308.782 249.629 308.695C249.598 308.608 249.588 308.515 249.6 308.424V308.424ZM249.264 314.504C249.229 313.865 249.386 313.23 249.716 312.681C250.045 312.132 250.532 311.694 251.113 311.425C251.693 311.156 252.341 311.067 252.973 311.169C253.605 311.272 254.192 311.562 254.657 312.002C255.122 312.442 255.445 313.011 255.583 313.636C255.722 314.261 255.67 314.913 255.433 315.508C255.197 316.103 254.788 316.614 254.259 316.974C253.729 317.334 253.104 317.527 252.464 317.528C251.64 317.547 250.843 317.24 250.245 316.674C249.647 316.107 249.297 315.327 249.272 314.504H249.264Z" stroke="#263238" stroke-miterlimit="10"/>
<path d="M218.28 326.632C218.224 326.464 218.168 326.296 218.104 326.128C218.04 325.96 217.992 325.784 217.928 325.616C217.864 325.448 217.816 325.28 217.752 325.112C217.688 324.944 217.64 324.768 217.576 324.6C217.512 324.432 217.464 324.264 217.4 324.096C217.336 323.928 217.288 323.752 217.224 323.584L217.048 323.08C216.992 322.904 216.928 322.736 216.872 322.568L216.696 322.064C216.64 321.888 216.576 321.72 216.52 321.552L216.344 321.048C216.288 320.872 216.224 320.704 216.168 320.536L216 320C215.944 319.824 215.88 319.656 215.824 319.488L215.64 318.984C215.584 318.808 215.528 318.64 215.464 318.472C215.4 318.304 215.352 318.136 215.288 317.968C215.224 317.8 215.176 317.624 215.112 317.456C215.048 317.288 215 317.12 214.936 316.952C212.328 309.016 204.264 303.192 195.392 303.192C186.792 303.192 179.312 308.2 176.192 315.256C176.112 315.416 176.04 315.584 175.968 315.744L175.752 316.24C175.672 316.4 175.6 316.56 175.528 316.728C175.456 316.896 175.376 317.056 175.304 317.216L175.088 317.704C175.008 317.872 174.936 318.032 174.864 318.2C174.792 318.368 174.712 318.52 174.64 318.688C174.568 318.856 174.488 319.008 174.416 319.176L174.2 319.664C174.12 319.824 174.048 319.992 173.976 320.152C173.904 320.312 173.824 320.48 173.752 320.64L173.536 321.136C173.456 321.296 173.384 321.456 173.312 321.624C173.24 321.792 173.16 321.952 173.088 322.112L172.872 322.6C172.792 322.768 172.72 322.928 172.648 323.096C172.576 323.264 172.496 323.416 172.424 323.584L172.208 324.072C172.128 324.232 172.056 324.4 171.984 324.56C171.912 324.72 171.832 324.888 171.76 325.056C170.388 327.979 169.683 331.171 169.696 334.4C169.696 347.28 180.816 357.808 194.568 357.808C208.024 357.808 219.728 347.28 219.728 334.4C219.726 331.944 219.296 329.508 218.456 327.2C218.4 326.968 218.344 326.8 218.28 326.632Z" fill="#263238"/>
<path d="M199.248 149.44C157.992 149.44 129.904 173.72 129.904 209.128V212.328C129.912 212.857 130.056 213.375 130.322 213.832C130.588 214.288 130.968 214.669 131.424 214.936C131.597 215.102 131.784 215.252 131.984 215.384C132.158 215.552 132.348 215.703 132.552 215.832C132.726 216 132.916 216.151 133.12 216.28C133.292 216.45 133.483 216.601 133.688 216.728C133.859 216.896 134.047 217.047 134.248 217.176C134.421 217.347 134.612 217.5 134.816 217.632C134.992 217.798 135.182 217.948 135.384 218.08C135.558 218.248 135.748 218.398 135.952 218.528C136.123 218.696 136.311 218.846 136.512 218.976C136.7 219.157 136.907 219.318 137.128 219.456C137.291 219.604 137.465 219.741 137.648 219.864C137.824 220.03 138.014 220.18 138.216 220.312C138.389 220.478 138.576 220.628 138.776 220.76C138.952 220.926 139.142 221.076 139.344 221.208C139.518 221.376 139.708 221.526 139.912 221.656C140.083 221.824 140.271 221.974 140.472 222.104C140.646 222.272 140.836 222.422 141.04 222.552C141.211 222.72 141.399 222.87 141.6 223C141.776 223.166 141.966 223.316 142.168 223.448C142.339 223.616 142.527 223.766 142.728 223.896C143.653 224.709 144.859 225.129 146.088 225.064L171.816 226.024C174.464 226.024 175.904 224.824 175.904 222.176V219.536C175.904 208.952 184.56 201.504 198.304 201.504C210.808 201.504 219.224 208.232 219.224 218.576C219.225 219.755 219.112 220.931 218.888 222.088C205.976 239.016 172.368 246.48 172.368 279.336V287.24C172.368 290.44 174.12 292.208 177.344 292.208H208.32C211.52 292.208 213.296 290.456 213.296 287.24V281.968C213.296 255.344 265.672 255.048 265.672 206.48C265.672 172.256 239.624 149.44 199.248 149.44Z" fill="#263238"/>
<path d="M172.328 287.256V279.352C172.328 238.68 223.824 236.952 223.824 207.96C223.824 195.376 213.584 187.16 198.368 187.16C181.688 187.16 171.168 196.232 171.168 209.104V212.304C171.168 215.504 169.408 216.992 166.192 216.992L134.88 215.816C131.96 215.816 129.912 214.352 129.912 212.304V209.104C129.912 173.696 158 149.416 199.256 149.416C239.632 149.416 265.656 172.232 265.656 206.472C265.656 255.04 213.28 255.336 213.28 281.96V287.232C213.28 290.432 211.52 292.2 208.304 292.2H177.304C174.08 292.224 172.328 290.472 172.328 287.256ZM169.696 334.4C169.696 321.528 181.104 310.992 194.856 310.992C208.024 310.992 219.728 321.528 219.728 334.4C219.728 347.272 208 357.768 194.568 357.768C180.8 357.768 169.696 347.24 169.696 334.4Z" fill="#92E3A9" stroke="#92E3A9" stroke-miterlimit="10"/>
<path d="M193.288 384C217.416 384 236.976 379.627 236.976 374.232C236.976 368.837 217.416 364.464 193.288 364.464C169.16 364.464 149.6 368.837 149.6 374.232C149.6 379.627 169.16 384 193.288 384Z" fill="#263238"/>
<path d="M159.896 152.68L158.224 156.328C158.224 156.328 148.512 157.376 148.512 158.104C148.512 158.832 148.616 163.848 149.144 164.056C149.545 164.212 149.99 164.212 150.392 164.056L164.696 160.4L166.056 153.928L159.896 152.68Z" fill="white" stroke="#263238" stroke-linecap="round" stroke-linejoin="round"/>
<path d="M157.176 159.2C155.4 160.655 153.484 161.931 151.456 163.008C149.144 164.048 149.056 165.624 149.792 165.624C150.528 165.624 157.056 162.888 157.056 162.888C157.056 162.888 162.984 161.336 163.84 160.864C164.696 160.392 164.792 157.768 164.792 157.768" fill="white"/>
<path d="M157.176 159.2C155.4 160.655 153.484 161.931 151.456 163.008C149.144 164.048 149.056 165.624 149.792 165.624C150.528 165.624 157.056 162.888 157.056 162.888C157.056 162.888 162.984 161.336 163.84 160.864C164.696 160.392 164.792 157.768 164.792 157.768" stroke="#263238" stroke-linecap="round" stroke-linejoin="round"/>
<path d="M168.44 82.5842L162.472 128.328L158.32 153.096L167.536 155.272L174.408 125.976L177.664 107.536L168.44 82.5842Z" fill="#7D7D7D" stroke="#263238" stroke-linecap="round" stroke-linejoin="round"/>
<path d="M216.6 49.4642L212.96 48.8882L205.504 46.0642L205.232 54.9202L216.792 55.9842L216.6 49.4642Z" fill="white" stroke="#263238" stroke-linecap="round" stroke-linejoin="round"/>
<path d="M174.048 211.68C171.335 214.843 168.8 218.155 166.456 221.6C163.376 226.304 164.464 231.36 168.264 232.632C172.064 233.904 176.936 230.456 178.208 227.744C179.48 225.032 179.112 223.592 181.096 220.88C183.08 218.168 184.712 215.456 183.992 211.84C183.272 208.224 176 209.152 174.048 211.68Z" fill="#7D7D7D" stroke="#263238" stroke-linecap="round" stroke-linejoin="round"/>
<path d="M177.84 228.424C177.584 227.88 177.288 227.304 176.936 226.688C174.032 221.576 168.936 221.984 165.736 222.936C163.632 227.232 164.832 231.504 168.28 232.656C171.728 233.808 176.176 230.992 177.84 228.424Z" fill="white" stroke="#263238" stroke-linecap="round" stroke-linejoin="round"/>
<path d="M176.936 226.688C175.856 228.288 174.408 232.656 168.8 230.848C167.236 230.446 165.837 229.565 164.8 228.328C164.921 229.304 165.313 230.226 165.93 230.991C166.548 231.755 167.367 232.332 168.296 232.656C172.088 233.92 176.968 230.48 178.24 227.768C179.512 225.056 179.144 223.616 181.128 220.904C183.112 218.192 184.744 215.48 184.024 211.864C184.024 216.2 182.424 216.92 180.408 219.272C178.392 221.624 178.024 225.056 176.936 226.688Z" fill="white" stroke="#263238" stroke-linecap="round" stroke-linejoin="round"/>
<path d="M227.4 211.68C230.113 214.843 232.647 218.155 234.992 221.6C238.072 226.304 236.984 231.36 233.184 232.632C229.384 233.904 224.512 230.456 223.24 227.744C221.968 225.032 222.336 223.592 220.352 220.88C218.368 218.168 216.736 215.456 217.456 211.84C218.176 208.224 225.416 209.152 227.4 211.68Z" fill="#7D7D7D" stroke="#263238" stroke-linecap="round" stroke-linejoin="round"/>
<path d="M223.616 228.424C223.864 227.88 224.16 227.304 224.512 226.688C227.416 221.576 232.512 221.984 235.712 222.936C237.816 227.232 236.616 231.504 233.168 232.656C229.72 233.808 225.272 230.992 223.616 228.424Z" fill="white" stroke="#263238" stroke-linecap="round" stroke-linejoin="round"/>
<path d="M224.512 226.688C225.592 228.288 227.04 232.656 232.648 230.848C234.212 230.446 235.61 229.565 236.648 228.328C236.527 229.304 236.135 230.226 235.517 230.991C234.899 231.755 234.08 232.332 233.152 232.656C229.36 233.92 224.48 230.48 223.208 227.768C221.936 225.056 222.304 223.616 220.32 220.904C218.336 218.192 216.704 215.48 217.424 211.864C217.424 216.2 219.024 216.92 221.04 219.272C223.056 221.624 223.424 225.056 224.512 226.688Z" fill="white" stroke="#263238" stroke-linecap="round" stroke-linejoin="round"/>
<path d="M235.88 149.304C235.88 146.048 230.28 142.432 230.28 142.432C221.84 133.848 206.608 134.984 200.984 135.752C195.384 134.952 180.136 133.848 171.696 142.432C171.696 142.432 166.096 146.048 166.096 149.304C166.096 152.56 173.152 211.32 173.152 211.32C173.152 211.32 172.968 214.392 178.032 214.752C183.096 215.112 185.232 212.224 185.232 212.224L187.224 162.504C187.224 162.504 195.36 156.712 196.824 156.536C197.352 156.464 198.04 156.352 198.808 156.256V156.352C200.24 156.053 201.719 156.053 203.152 156.352V156.256C203.952 156.352 204.6 156.464 205.136 156.536C206.584 156.712 214.736 162.504 214.736 162.504L216.728 212.224C216.728 212.224 218.896 215.112 223.928 214.752C228.96 214.392 228.808 211.32 228.808 211.32C228.808 211.32 235.88 152.56 235.88 149.304Z" fill="#263238" stroke="#263238" stroke-linecap="round" stroke-linejoin="round"/>
<path d="M214.728 162.504C214.728 162.504 213.64 150.568 218.888 146.048" stroke="#707070" stroke-linecap="round" stroke-linejoin="round"/>
<path d="M187.248 162.504C187.248 162.504 187.792 152.56 186.704 148.944C185.616 145.328 183.808 143.88 183.808 143.88" stroke="#707070" stroke-linecap="round" stroke-linejoin="round"/>
<path d="M193.936 138.816C193.936 138.816 199.72 145.504 200.808 151.112" stroke="#707070" stroke-linecap="round" stroke-linejoin="round"/>
<path d="M206.592 139.2C206.592 139.2 203.336 142.816 202.976 145.528" stroke="#707070" stroke-linecap="round" stroke-linejoin="round"/>
<path d="M198.456 68.8482C198.456 68.8482 193.216 68.1202 191.408 69.9282C189.6 71.7362 183.448 78.4002 183.448 78.4002L186.704 135.896C186.704 135.896 194.12 138.792 200.448 138.792C206.776 138.792 214.008 136.44 215.648 135.176C217.288 133.912 215.832 72.2562 215.832 72.2562C215.832 72.2562 202.4 68.3042 198.456 68.8482Z" fill="#92E3A9" stroke="#263238" stroke-linecap="round" stroke-linejoin="round"/>
<path d="M208.04 70.1122C210.792 69.6942 213.569 69.4511 216.352 69.3842C219.968 69.3842 223.552 69.5682 223.552 69.5682L232.592 60.8882L214.4 56.7282L215.848 48.4162C215.848 48.4162 229.224 47.5122 235.912 48.7762C242.6 50.0402 253.088 53.2962 253.632 53.2962C254.176 53.2962 254.896 55.2882 254.352 56.7282C253.808 58.1682 236.8 76.9842 231.72 81.8642C228.397 85.1208 225.259 88.5609 222.32 92.1681L220 132.488C220 132.488 225.968 135.744 227.056 136.824C228.144 137.904 229.408 142.248 229.408 142.248C229.408 142.248 218.376 137.728 215.48 137.368C212.584 137.008 210.784 136.824 210.24 135.768C209.696 134.712 205.176 86.4082 205.176 86.4082L205.36 71.0402C205.36 71.0402 205.328 70.1122 208.04 70.1122Z" fill="#7D7D7D" stroke="#263238" stroke-linecap="round" stroke-linejoin="round"/>
<path d="M218.888 94.8801L209.12 96.1441L210.024 99.7601L214.912 101.024L219.608 98.8561L218.888 94.8801Z" stroke="#263238" stroke-linecap="round" stroke-linejoin="round"/>
<path d="M224.488 73.1841L222.32 92.1681L227.928 76.0801" stroke="#263238" stroke-linecap="round" stroke-linejoin="round"/>
<path d="M232.624 60.8881C232.624 60.8881 237.144 61.7921 244.016 59.0801" stroke="#263238" stroke-linecap="round" stroke-linejoin="round"/>
<path d="M237.328 62.1521C240.297 62.2348 243.267 61.9934 246.184 61.4321" stroke="#263238" stroke-linecap="round" stroke-linejoin="round"/>
<path d="M192.312 68.6641L193.216 81.8641C194.04 82.948 195.107 83.8232 196.331 84.4193C197.555 85.0154 198.902 85.3157 200.264 85.2961C204.784 85.1201 205.328 81.8641 205.328 81.8641V71.0161L192.312 68.6641Z" fill="white" stroke="#263238" stroke-linecap="round" stroke-linejoin="round"/>
<path d="M205.504 75.5361L205.144 86.4001L208.944 80.4321C208.944 80.4321 213.104 85.6721 214.184 85.4961C215.264 85.3201 213.464 83.1441 213.104 81.1601C212.744 79.1761 209.664 72.1121 209.304 70.1281C208.944 68.1441 205.504 67.7761 205.304 68.6801C205.203 69.4609 205.203 70.2513 205.304 71.0321L205.504 75.5361Z" fill="#7D7D7D" stroke="#263238" stroke-linecap="round" stroke-linejoin="round"/>
<path d="M193.032 85.2961C193.032 85.2961 193.752 135.92 191.944 136.496C190.136 137.072 182.904 137.224 178.344 139.392C173.784 141.56 171.656 142.464 171.656 142.464C171.656 142.464 173.824 137.224 176.36 134.872C178.046 133.357 179.929 132.079 181.96 131.072L177.264 106.848C177.264 106.848 168.584 83.8801 168.4 82.6161C168.216 81.3521 184.856 71.9521 188.288 70.3201C191.72 68.6881 192.632 70.1441 192.632 70.1441L193.032 85.2961Z" fill="#7D7D7D" stroke="#263238" stroke-linecap="round" stroke-linejoin="round"/>
<path d="M188.511 67.76C188.511 67.76 184.175 81.504 183.807 83.312C183.439 85.12 183.807 85.12 185.079 83.848C186.351 82.576 189.599 79.512 189.599 79.512L193.031 85.296L192.847 74.632V68.48C192.847 68.48 192.671 65.952 188.511 67.76Z" fill="#7D7D7D" stroke="#263238" stroke-linecap="round" stroke-linejoin="round"/>
<path d="M180.016 97.416H190.68L190.504 101.752L185.8 103.376L179.832 101.752L180.016 97.416Z" stroke="#263238" stroke-linecap="round" stroke-linejoin="round"/>
<path d="M209.303 49.8642C209.303 49.8642 211.831 60.8882 212.375 62.6642C212.919 64.4402 209.487 71.5282 208.375 73.1522C207.952 73.8566 207.37 74.452 206.676 74.891C205.981 75.33 205.193 75.6003 204.375 75.6802C203.111 75.6802 196.239 73.3362 194.607 72.2482C192.975 71.1602 191.359 69.8962 191.359 69.8962C190.59 70.2469 189.736 70.3656 188.9 70.2377C188.065 70.1098 187.284 69.7409 186.655 69.1762C184.487 67.1842 181.591 64.8322 182.311 63.2082C182.662 62.4113 183.249 61.7414 183.993 61.2893C184.738 60.8371 185.603 60.6245 186.471 60.6802C188.463 60.6802 187.743 60.4962 187.743 60.4962C187.743 60.4962 184.127 55.2562 184.127 51.0962C184.127 46.9362 191.895 43.8962 196.415 43.8962C199.541 44.0265 202.611 44.7628 205.455 46.0642L209.303 49.8642Z" fill="white" stroke="#263238" stroke-linecap="round" stroke-linejoin="round"/>
<path d="M202.976 54.0161L206.232 60.1681L202.976 62.3361L201.528 60.5281" stroke="#263238" stroke-linecap="round" stroke-linejoin="round"/>
<path d="M208.944 59.624C208.944 59.624 209.12 61.072 206.952 63.424" stroke="#263238" stroke-linecap="round" stroke-linejoin="round"/>
<path d="M199.543 56.2801C199.543 57.1281 199.175 57.8161 198.743 57.8161C198.311 57.8161 197.943 57.1281 197.943 56.2801C197.943 55.4321 198.311 54.7441 198.743 54.7441C199.175 54.7441 199.543 55.4321 199.543 56.2801Z" fill="#263238"/>
<path d="M205.232 54.9201C205.683 54.9201 206.048 54.2325 206.048 53.3841C206.048 52.5358 205.683 51.8481 205.232 51.8481C204.781 51.8481 204.416 52.5358 204.416 53.3841C204.416 54.2325 204.781 54.9201 205.232 54.9201Z" fill="#263238"/>
<path d="M189.776 40.4561C189.776 40.4561 178.4 44.6161 178.024 49.8641C177.648 55.1121 188.152 62.3361 188.696 63.2401C189.24 64.1441 190.864 62.1521 190.864 62.1521C190.502 61.6664 190.25 61.1082 190.124 60.5158C189.998 59.9234 190.002 59.3109 190.136 58.7201C190.68 56.9121 193.032 54.7201 193.032 53.8401C193.032 52.9601 190.32 54.5601 190.32 51.8481C190.32 49.1361 197.008 47.5121 200.984 47.6881C204.96 47.8641 208.4 54.5601 211.296 51.3041C214.192 48.0481 210.024 47.1521 210.024 47.1521C210.024 47.1521 215.624 46.4241 215.624 43.5361C215.624 40.6481 212.728 38.6481 211.464 38.6481C210.2 38.6481 206.768 40.8241 206.768 38.4721C206.768 36.1201 210.2 35.0321 206.944 31.2721C203.688 27.5121 199.536 31.2721 199.536 32.7201C199.536 34.1681 198.448 36.8721 197.728 36.8721C197.008 36.8721 194.832 33.6241 192.304 35.4321C191.543 36.0365 190.924 36.7988 190.487 37.6662C190.051 38.5337 189.808 39.4856 189.776 40.4561V40.4561Z" fill="#263238" stroke="#263238" stroke-linecap="round" stroke-linejoin="round"/>
<path d="M194.48 54.384L200.264 52.208" stroke="#263238" stroke-linecap="round" stroke-linejoin="round"/>
<path d="M201.168 49.6801C201.057 49.1125 201.147 48.5242 201.424 48.0161" stroke="#263238" stroke-linecap="round" stroke-linejoin="round"/>
<path d="M201.424 48.0001C201.832 47.2001 202.752 46.1681 204.784 45.3281" stroke="white" stroke-linecap="round" stroke-linejoin="round"/>
</svg>
