<svg width="1920" height="1080" viewBox="0 0 1920 1080" fill="none" xmlns="http://www.w3.org/2000/svg">
<g clip-path="url(#clip0)">
<g opacity="0.32">
<g opacity="0.11">
<g opacity="0.11">
<path opacity="0.11" d="M1919.97 287.707C1918.67 287.707 1917.61 286.653 1917.61 285.353C1917.61 284.054 1918.67 283 1919.97 283C1921.27 283 1922.32 284.054 1922.32 285.353C1922.32 286.653 1921.27 287.707 1919.97 287.707Z" fill="#A630B0"/>
<path opacity="0.11" d="M1822.39 287.707C1821.09 287.707 1820.04 286.653 1820.04 285.353C1820.04 284.054 1821.09 283 1822.39 283C1823.69 283 1824.75 284.054 1824.75 285.353C1824.75 286.653 1823.69 287.707 1822.39 287.707Z" fill="#A630B0"/>
<path opacity="0.11" d="M1725 287.707C1723.7 287.707 1722.65 286.653 1722.65 285.353C1722.65 284.054 1723.7 283 1725 283C1726.3 283 1727.35 284.054 1727.35 285.353C1727.35 286.653 1726.3 287.707 1725 287.707Z" fill="#A630B0"/>
<path opacity="0.11" d="M1627.61 287.707C1626.31 287.707 1625.25 286.653 1625.25 285.353C1625.25 284.054 1626.31 283 1627.61 283C1628.91 283 1629.96 284.054 1629.96 285.353C1629.96 286.653 1628.91 287.707 1627.61 287.707Z" fill="#A630B0"/>
<path opacity="0.11" d="M1530.03 287.707C1528.73 287.707 1527.68 286.653 1527.68 285.353C1527.68 284.054 1528.73 283 1530.03 283C1531.33 283 1532.38 284.054 1532.38 285.353C1532.38 286.653 1531.33 287.707 1530.03 287.707Z" fill="#A630B0"/>
<path opacity="0.11" d="M1432.64 287.707C1431.34 287.707 1430.28 286.653 1430.28 285.353C1430.28 284.054 1431.34 283 1432.64 283C1433.94 283 1434.99 284.054 1434.99 285.353C1434.99 286.653 1433.94 287.707 1432.64 287.707Z" fill="#A630B0"/>
<path opacity="0.11" d="M1335.25 287.707C1333.95 287.707 1332.89 286.653 1332.89 285.353C1332.89 284.054 1333.95 283 1335.25 283C1336.55 283 1337.6 284.054 1337.6 285.353C1337.6 286.653 1336.55 287.707 1335.25 287.707Z" fill="#A630B0"/>
<path opacity="0.11" d="M1237.67 287.707C1236.37 287.707 1235.32 286.653 1235.32 285.353C1235.32 284.054 1236.37 283 1237.67 283C1238.97 283 1240.02 284.054 1240.02 285.353C1240.02 286.653 1238.97 287.707 1237.67 287.707Z" fill="#A630B0"/>
<path opacity="0.11" d="M1140.28 287.707C1138.98 287.707 1137.92 286.653 1137.92 285.353C1137.92 284.054 1138.98 283 1140.28 283C1141.58 283 1142.63 284.054 1142.63 285.353C1142.63 286.653 1141.58 287.707 1140.28 287.707Z" fill="#A630B0"/>
<path opacity="0.11" d="M1042.88 287.707C1041.59 287.707 1040.53 286.653 1040.53 285.353C1040.53 284.054 1041.59 283 1042.88 283C1044.18 283 1045.24 284.054 1045.24 285.353C1045.24 286.653 1044.18 287.707 1042.88 287.707Z" fill="#A630B0"/>
</g>
<g opacity="0.11">
<path opacity="0.11" d="M1919.97 381.118C1918.67 381.118 1917.61 380.064 1917.61 378.764C1917.61 377.464 1918.67 376.411 1919.97 376.411C1921.27 376.411 1922.32 377.464 1922.32 378.764C1922.32 380.064 1921.27 381.118 1919.97 381.118Z" fill="#A630B0"/>
<path opacity="0.11" d="M1822.39 381.118C1821.09 381.118 1820.04 380.064 1820.04 378.764C1820.04 377.464 1821.09 376.411 1822.39 376.411C1823.69 376.411 1824.75 377.464 1824.75 378.764C1824.75 380.064 1823.69 381.118 1822.39 381.118Z" fill="#A630B0"/>
<path opacity="0.11" d="M1725 381.118C1723.7 381.118 1722.65 380.064 1722.65 378.764C1722.65 377.464 1723.7 376.411 1725 376.411C1726.3 376.411 1727.35 377.464 1727.35 378.764C1727.35 380.064 1726.3 381.118 1725 381.118Z" fill="#A630B0"/>
<path opacity="0.11" d="M1627.61 381.118C1626.31 381.118 1625.25 380.064 1625.25 378.764C1625.25 377.464 1626.31 376.411 1627.61 376.411C1628.91 376.411 1629.96 377.464 1629.96 378.764C1629.96 380.064 1628.91 381.118 1627.61 381.118Z" fill="#A630B0"/>
<path opacity="0.11" d="M1530.03 381.118C1528.73 381.118 1527.68 380.064 1527.68 378.764C1527.68 377.464 1528.73 376.411 1530.03 376.411C1531.33 376.411 1532.38 377.464 1532.38 378.764C1532.38 380.064 1531.33 381.118 1530.03 381.118Z" fill="#A630B0"/>
<path opacity="0.11" d="M1432.64 381.118C1431.34 381.118 1430.28 380.064 1430.28 378.764C1430.28 377.464 1431.34 376.411 1432.64 376.411C1433.94 376.411 1434.99 377.464 1434.99 378.764C1434.99 380.064 1433.94 381.118 1432.64 381.118Z" fill="#A630B0"/>
<path opacity="0.11" d="M1335.25 381.118C1333.95 381.118 1332.89 380.064 1332.89 378.764C1332.89 377.464 1333.95 376.411 1335.25 376.411C1336.55 376.411 1337.6 377.464 1337.6 378.764C1337.6 380.064 1336.55 381.118 1335.25 381.118Z" fill="#A630B0"/>
<path opacity="0.11" d="M1237.67 381.118C1236.37 381.118 1235.32 380.064 1235.32 378.764C1235.32 377.464 1236.37 376.411 1237.67 376.411C1238.97 376.411 1240.02 377.464 1240.02 378.764C1240.02 380.064 1238.97 381.118 1237.67 381.118Z" fill="#A630B0"/>
<path opacity="0.11" d="M1140.28 381.118C1138.98 381.118 1137.92 380.064 1137.92 378.764C1137.92 377.464 1138.98 376.411 1140.28 376.411C1141.58 376.411 1142.63 377.464 1142.63 378.764C1142.63 380.064 1141.58 381.118 1140.28 381.118Z" fill="#A630B0"/>
<path opacity="0.11" d="M1042.88 381.118C1041.59 381.118 1040.53 380.064 1040.53 378.764C1040.53 377.464 1041.59 376.411 1042.88 376.411C1044.18 376.411 1045.24 377.464 1045.24 378.764C1045.24 380.064 1044.18 381.118 1042.88 381.118Z" fill="#A630B0"/>
</g>
<g opacity="0.11">
<path opacity="0.11" d="M1919.97 474.347C1918.67 474.347 1917.61 473.294 1917.61 471.994C1917.61 470.694 1918.67 469.64 1919.97 469.64C1921.27 469.64 1922.32 470.694 1922.32 471.994C1922.32 473.294 1921.27 474.347 1919.97 474.347Z" fill="#A630B0"/>
<path opacity="0.11" d="M1822.39 474.347C1821.09 474.347 1820.04 473.294 1820.04 471.994C1820.04 470.694 1821.09 469.64 1822.39 469.64C1823.69 469.64 1824.75 470.694 1824.75 471.994C1824.75 473.294 1823.69 474.347 1822.39 474.347Z" fill="#A630B0"/>
<path opacity="0.11" d="M1725 474.347C1723.7 474.347 1722.65 473.294 1722.65 471.994C1722.65 470.694 1723.7 469.64 1725 469.64C1726.3 469.64 1727.35 470.694 1727.35 471.994C1727.35 473.294 1726.3 474.347 1725 474.347Z" fill="#A630B0"/>
<path opacity="0.11" d="M1627.61 474.347C1626.31 474.347 1625.25 473.294 1625.25 471.994C1625.25 470.694 1626.31 469.64 1627.61 469.64C1628.91 469.64 1629.96 470.694 1629.96 471.994C1629.96 473.294 1628.91 474.347 1627.61 474.347Z" fill="#A630B0"/>
<path opacity="0.11" d="M1530.03 474.347C1528.73 474.347 1527.68 473.294 1527.68 471.994C1527.68 470.694 1528.73 469.64 1530.03 469.64C1531.33 469.64 1532.38 470.694 1532.38 471.994C1532.38 473.294 1531.33 474.347 1530.03 474.347Z" fill="#A630B0"/>
<path opacity="0.11" d="M1432.64 474.347C1431.34 474.347 1430.28 473.294 1430.28 471.994C1430.28 470.694 1431.34 469.64 1432.64 469.64C1433.94 469.64 1434.99 470.694 1434.99 471.994C1434.99 473.294 1433.94 474.347 1432.64 474.347Z" fill="#A630B0"/>
<path opacity="0.11" d="M1335.25 474.347C1333.95 474.347 1332.89 473.294 1332.89 471.994C1332.89 470.694 1333.95 469.64 1335.25 469.64C1336.55 469.64 1337.6 470.694 1337.6 471.994C1337.6 473.294 1336.55 474.347 1335.25 474.347Z" fill="#A630B0"/>
<path opacity="0.11" d="M1237.67 474.347C1236.37 474.347 1235.32 473.294 1235.32 471.994C1235.32 470.694 1236.37 469.64 1237.67 469.64C1238.97 469.64 1240.02 470.694 1240.02 471.994C1240.02 473.294 1238.97 474.347 1237.67 474.347Z" fill="#A630B0"/>
<path opacity="0.11" d="M1140.28 474.347C1138.98 474.347 1137.92 473.294 1137.92 471.994C1137.92 470.694 1138.98 469.64 1140.28 469.64C1141.58 469.64 1142.63 470.694 1142.63 471.994C1142.63 473.294 1141.58 474.347 1140.28 474.347Z" fill="#A630B0"/>
<path opacity="0.11" d="M1042.88 474.347C1041.59 474.347 1040.53 473.294 1040.53 471.994C1040.53 470.694 1041.59 469.64 1042.88 469.64C1044.18 469.64 1045.24 470.694 1045.24 471.994C1045.24 473.294 1044.18 474.347 1042.88 474.347Z" fill="#A630B0"/>
</g>
<g opacity="0.11">
<path opacity="0.11" d="M1919.97 567.758C1918.67 567.758 1917.61 566.704 1917.61 565.405C1917.61 564.105 1918.67 563.051 1919.97 563.051C1921.27 563.051 1922.32 564.105 1922.32 565.405C1922.32 566.704 1921.27 567.758 1919.97 567.758Z" fill="#A630B0"/>
<path opacity="0.11" d="M1822.39 567.758C1821.09 567.758 1820.04 566.704 1820.04 565.405C1820.04 564.105 1821.09 563.051 1822.39 563.051C1823.69 563.051 1824.75 564.105 1824.75 565.405C1824.75 566.704 1823.69 567.758 1822.39 567.758Z" fill="#A630B0"/>
<path opacity="0.11" d="M1725 567.758C1723.7 567.758 1722.65 566.704 1722.65 565.405C1722.65 564.105 1723.7 563.051 1725 563.051C1726.3 563.051 1727.35 564.105 1727.35 565.405C1727.35 566.704 1726.3 567.758 1725 567.758Z" fill="#A630B0"/>
<path opacity="0.11" d="M1627.61 567.758C1626.31 567.758 1625.25 566.704 1625.25 565.405C1625.25 564.105 1626.31 563.051 1627.61 563.051C1628.91 563.051 1629.96 564.105 1629.96 565.405C1629.96 566.704 1628.91 567.758 1627.61 567.758Z" fill="#A630B0"/>
<path opacity="0.11" d="M1530.03 567.758C1528.73 567.758 1527.68 566.704 1527.68 565.405C1527.68 564.105 1528.73 563.051 1530.03 563.051C1531.33 563.051 1532.38 564.105 1532.38 565.405C1532.38 566.704 1531.33 567.758 1530.03 567.758Z" fill="#A630B0"/>
<path opacity="0.11" d="M1432.64 567.758C1431.34 567.758 1430.28 566.704 1430.28 565.405C1430.28 564.105 1431.34 563.051 1432.64 563.051C1433.94 563.051 1434.99 564.105 1434.99 565.405C1434.99 566.704 1433.94 567.758 1432.64 567.758Z" fill="#A630B0"/>
<path opacity="0.11" d="M1335.25 567.758C1333.95 567.758 1332.89 566.704 1332.89 565.405C1332.89 564.105 1333.95 563.051 1335.25 563.051C1336.55 563.051 1337.6 564.105 1337.6 565.405C1337.6 566.704 1336.55 567.758 1335.25 567.758Z" fill="#A630B0"/>
<path opacity="0.11" d="M1237.67 567.758C1236.37 567.758 1235.32 566.704 1235.32 565.405C1235.32 564.105 1236.37 563.051 1237.67 563.051C1238.97 563.051 1240.02 564.105 1240.02 565.405C1240.02 566.704 1238.97 567.758 1237.67 567.758Z" fill="#A630B0"/>
<path opacity="0.11" d="M1140.28 567.758C1138.98 567.758 1137.92 566.704 1137.92 565.405C1137.92 564.105 1138.98 563.051 1140.28 563.051C1141.58 563.051 1142.63 564.105 1142.63 565.405C1142.63 566.704 1141.58 567.758 1140.28 567.758Z" fill="#A630B0"/>
<path opacity="0.11" d="M1042.88 567.758C1041.59 567.758 1040.53 566.704 1040.53 565.405C1040.53 564.105 1041.59 563.051 1042.88 563.051C1044.18 563.051 1045.24 564.105 1045.24 565.405C1045.24 566.704 1044.18 567.758 1042.88 567.758Z" fill="#A630B0"/>
</g>
<g opacity="0.11">
<path opacity="0.11" d="M1919.97 661.169C1918.67 661.169 1917.61 660.115 1917.61 658.815C1917.61 657.516 1918.67 656.462 1919.97 656.462C1921.27 656.462 1922.32 657.516 1922.32 658.815C1922.32 660.115 1921.27 661.169 1919.97 661.169Z" fill="#A630B0"/>
<path opacity="0.11" d="M1822.39 661.169C1821.09 661.169 1820.04 660.115 1820.04 658.815C1820.04 657.516 1821.09 656.462 1822.39 656.462C1823.69 656.462 1824.75 657.516 1824.75 658.815C1824.75 660.115 1823.69 661.169 1822.39 661.169Z" fill="#A630B0"/>
<path opacity="0.11" d="M1725 661.169C1723.7 661.169 1722.65 660.115 1722.65 658.815C1722.65 657.516 1723.7 656.462 1725 656.462C1726.3 656.462 1727.35 657.516 1727.35 658.815C1727.35 660.115 1726.3 661.169 1725 661.169Z" fill="#A630B0"/>
<path opacity="0.11" d="M1627.61 661.169C1626.31 661.169 1625.25 660.115 1625.25 658.815C1625.25 657.516 1626.31 656.462 1627.61 656.462C1628.91 656.462 1629.96 657.516 1629.96 658.815C1629.96 660.115 1628.91 661.169 1627.61 661.169Z" fill="#A630B0"/>
<path opacity="0.11" d="M1530.03 661.169C1528.73 661.169 1527.68 660.115 1527.68 658.815C1527.68 657.516 1528.73 656.462 1530.03 656.462C1531.33 656.462 1532.38 657.516 1532.38 658.815C1532.38 660.115 1531.33 661.169 1530.03 661.169Z" fill="#A630B0"/>
<path opacity="0.11" d="M1432.64 661.169C1431.34 661.169 1430.28 660.115 1430.28 658.815C1430.28 657.516 1431.34 656.462 1432.64 656.462C1433.94 656.462 1434.99 657.516 1434.99 658.815C1434.99 660.115 1433.94 661.169 1432.64 661.169Z" fill="#A630B0"/>
<path opacity="0.11" d="M1335.25 661.169C1333.95 661.169 1332.89 660.115 1332.89 658.815C1332.89 657.516 1333.95 656.462 1335.25 656.462C1336.55 656.462 1337.6 657.516 1337.6 658.815C1337.6 660.115 1336.55 661.169 1335.25 661.169Z" fill="#A630B0"/>
<path opacity="0.11" d="M1237.67 661.169C1236.37 661.169 1235.32 660.115 1235.32 658.815C1235.32 657.516 1236.37 656.462 1237.67 656.462C1238.97 656.462 1240.02 657.516 1240.02 658.815C1240.02 660.115 1238.97 661.169 1237.67 661.169Z" fill="#A630B0"/>
<path opacity="0.11" d="M1140.28 661.169C1138.98 661.169 1137.92 660.115 1137.92 658.815C1137.92 657.516 1138.98 656.462 1140.28 656.462C1141.58 656.462 1142.63 657.516 1142.63 658.815C1142.63 660.115 1141.58 661.169 1140.28 661.169Z" fill="#A630B0"/>
<path opacity="0.11" d="M1042.88 661.169C1041.59 661.169 1040.53 660.115 1040.53 658.815C1040.53 657.516 1041.59 656.462 1042.88 656.462C1044.18 656.462 1045.24 657.516 1045.24 658.815C1045.24 660.115 1044.18 661.169 1042.88 661.169Z" fill="#A630B0"/>
</g>
<g opacity="0.11">
<path opacity="0.11" d="M1919.97 754.399C1918.67 754.399 1917.61 753.345 1917.61 752.045C1917.61 750.745 1918.67 749.692 1919.97 749.692C1921.27 749.692 1922.32 750.745 1922.32 752.045C1922.32 753.345 1921.27 754.399 1919.97 754.399Z" fill="#A630B0"/>
<path opacity="0.11" d="M1822.39 754.399C1821.09 754.399 1820.04 753.345 1820.04 752.045C1820.04 750.745 1821.09 749.692 1822.39 749.692C1823.69 749.692 1824.75 750.745 1824.75 752.045C1824.75 753.345 1823.69 754.399 1822.39 754.399Z" fill="#A630B0"/>
<path opacity="0.11" d="M1725 754.399C1723.7 754.399 1722.65 753.345 1722.65 752.045C1722.65 750.745 1723.7 749.692 1725 749.692C1726.3 749.692 1727.35 750.745 1727.35 752.045C1727.35 753.345 1726.3 754.399 1725 754.399Z" fill="#A630B0"/>
<path opacity="0.11" d="M1627.61 754.399C1626.31 754.399 1625.25 753.345 1625.25 752.045C1625.25 750.745 1626.31 749.692 1627.61 749.692C1628.91 749.692 1629.96 750.745 1629.96 752.045C1629.96 753.345 1628.91 754.399 1627.61 754.399Z" fill="#A630B0"/>
<path opacity="0.11" d="M1530.03 754.399C1528.73 754.399 1527.68 753.345 1527.68 752.045C1527.68 750.745 1528.73 749.692 1530.03 749.692C1531.33 749.692 1532.38 750.745 1532.38 752.045C1532.38 753.345 1531.33 754.399 1530.03 754.399Z" fill="#A630B0"/>
<path opacity="0.11" d="M1432.64 754.399C1431.34 754.399 1430.28 753.345 1430.28 752.045C1430.28 750.745 1431.34 749.692 1432.64 749.692C1433.94 749.692 1434.99 750.745 1434.99 752.045C1434.99 753.345 1433.94 754.399 1432.64 754.399Z" fill="#A630B0"/>
<path opacity="0.11" d="M1335.25 754.399C1333.95 754.399 1332.89 753.345 1332.89 752.045C1332.89 750.745 1333.95 749.692 1335.25 749.692C1336.55 749.692 1337.6 750.745 1337.6 752.045C1337.6 753.345 1336.55 754.399 1335.25 754.399Z" fill="#A630B0"/>
<path opacity="0.11" d="M1237.67 754.399C1236.37 754.399 1235.32 753.345 1235.32 752.045C1235.32 750.745 1236.37 749.692 1237.67 749.692C1238.97 749.692 1240.02 750.745 1240.02 752.045C1240.02 753.345 1238.97 754.399 1237.67 754.399Z" fill="#A630B0"/>
<path opacity="0.11" d="M1140.28 754.399C1138.98 754.399 1137.92 753.345 1137.92 752.045C1137.92 750.745 1138.98 749.692 1140.28 749.692C1141.58 749.692 1142.63 750.745 1142.63 752.045C1142.63 753.345 1141.58 754.399 1140.28 754.399Z" fill="#A630B0"/>
<path opacity="0.11" d="M1042.88 754.399C1041.59 754.399 1040.53 753.345 1040.53 752.045C1040.53 750.745 1041.59 749.692 1042.88 749.692C1044.18 749.692 1045.24 750.745 1045.24 752.045C1045.24 753.345 1044.18 754.399 1042.88 754.399Z" fill="#A630B0"/>
</g>
<g opacity="0.11">
<path opacity="0.11" d="M1919.97 847.809C1918.67 847.809 1917.61 846.756 1917.61 845.456C1917.61 844.156 1918.67 843.103 1919.97 843.103C1921.27 843.103 1922.32 844.156 1922.32 845.456C1922.32 846.756 1921.27 847.809 1919.97 847.809Z" fill="#A630B0"/>
<path opacity="0.11" d="M1822.39 847.809C1821.09 847.809 1820.04 846.756 1820.04 845.456C1820.04 844.156 1821.09 843.103 1822.39 843.103C1823.69 843.103 1824.75 844.156 1824.75 845.456C1824.75 846.756 1823.69 847.809 1822.39 847.809Z" fill="#A630B0"/>
<path opacity="0.11" d="M1725 847.809C1723.7 847.809 1722.65 846.756 1722.65 845.456C1722.65 844.156 1723.7 843.103 1725 843.103C1726.3 843.103 1727.35 844.156 1727.35 845.456C1727.35 846.756 1726.3 847.809 1725 847.809Z" fill="#A630B0"/>
<path opacity="0.11" d="M1627.61 847.809C1626.31 847.809 1625.25 846.756 1625.25 845.456C1625.25 844.156 1626.31 843.103 1627.61 843.103C1628.91 843.103 1629.96 844.156 1629.96 845.456C1629.96 846.756 1628.91 847.809 1627.61 847.809Z" fill="#A630B0"/>
<path opacity="0.11" d="M1530.03 847.809C1528.73 847.809 1527.68 846.756 1527.68 845.456C1527.68 844.156 1528.73 843.103 1530.03 843.103C1531.33 843.103 1532.38 844.156 1532.38 845.456C1532.38 846.756 1531.33 847.809 1530.03 847.809Z" fill="#A630B0"/>
<path opacity="0.11" d="M1432.64 847.809C1431.34 847.809 1430.28 846.756 1430.28 845.456C1430.28 844.156 1431.34 843.103 1432.64 843.103C1433.94 843.103 1434.99 844.156 1434.99 845.456C1434.99 846.756 1433.94 847.809 1432.64 847.809Z" fill="#A630B0"/>
<path opacity="0.11" d="M1335.25 847.809C1333.95 847.809 1332.89 846.756 1332.89 845.456C1332.89 844.156 1333.95 843.103 1335.25 843.103C1336.55 843.103 1337.6 844.156 1337.6 845.456C1337.6 846.756 1336.55 847.809 1335.25 847.809Z" fill="#A630B0"/>
<path opacity="0.11" d="M1237.67 847.809C1236.37 847.809 1235.32 846.756 1235.32 845.456C1235.32 844.156 1236.37 843.103 1237.67 843.103C1238.97 843.103 1240.02 844.156 1240.02 845.456C1240.02 846.756 1238.97 847.809 1237.67 847.809Z" fill="#A630B0"/>
<path opacity="0.11" d="M1140.28 847.809C1138.98 847.809 1137.92 846.756 1137.92 845.456C1137.92 844.156 1138.98 843.103 1140.28 843.103C1141.58 843.103 1142.63 844.156 1142.63 845.456C1142.63 846.756 1141.58 847.809 1140.28 847.809Z" fill="#A630B0"/>
<path opacity="0.11" d="M1042.88 847.809C1041.59 847.809 1040.53 846.756 1040.53 845.456C1040.53 844.156 1041.59 843.103 1042.88 843.103C1044.18 843.103 1045.24 844.156 1045.24 845.456C1045.24 846.756 1044.18 847.809 1042.88 847.809Z" fill="#A630B0"/>
</g>
<g opacity="0.11">
<path opacity="0.11" d="M1919.97 941.039C1918.67 941.039 1917.61 939.985 1917.61 938.686C1917.61 937.386 1918.67 936.332 1919.97 936.332C1921.27 936.332 1922.32 937.386 1922.32 938.686C1922.32 939.985 1921.27 941.039 1919.97 941.039Z" fill="#A630B0"/>
<path opacity="0.11" d="M1822.39 941.039C1821.09 941.039 1820.04 939.985 1820.04 938.686C1820.04 937.386 1821.09 936.332 1822.39 936.332C1823.69 936.332 1824.75 937.386 1824.75 938.686C1824.75 939.985 1823.69 941.039 1822.39 941.039Z" fill="#A630B0"/>
<path opacity="0.11" d="M1725 941.039C1723.7 941.039 1722.65 939.985 1722.65 938.686C1722.65 937.386 1723.7 936.332 1725 936.332C1726.3 936.332 1727.35 937.386 1727.35 938.686C1727.35 939.985 1726.3 941.039 1725 941.039Z" fill="#A630B0"/>
<path opacity="0.11" d="M1627.61 941.039C1626.31 941.039 1625.25 939.985 1625.25 938.686C1625.25 937.386 1626.31 936.332 1627.61 936.332C1628.91 936.332 1629.96 937.386 1629.96 938.686C1629.96 939.985 1628.91 941.039 1627.61 941.039Z" fill="#A630B0"/>
<path opacity="0.11" d="M1530.03 941.039C1528.73 941.039 1527.68 939.985 1527.68 938.686C1527.68 937.386 1528.73 936.332 1530.03 936.332C1531.33 936.332 1532.38 937.386 1532.38 938.686C1532.38 939.985 1531.33 941.039 1530.03 941.039Z" fill="#A630B0"/>
<path opacity="0.11" d="M1432.64 941.039C1431.34 941.039 1430.28 939.985 1430.28 938.686C1430.28 937.386 1431.34 936.332 1432.64 936.332C1433.94 936.332 1434.99 937.386 1434.99 938.686C1434.99 939.985 1433.94 941.039 1432.64 941.039Z" fill="#A630B0"/>
<path opacity="0.11" d="M1335.25 941.039C1333.95 941.039 1332.89 939.985 1332.89 938.686C1332.89 937.386 1333.95 936.332 1335.25 936.332C1336.55 936.332 1337.6 937.386 1337.6 938.686C1337.6 939.985 1336.55 941.039 1335.25 941.039Z" fill="#A630B0"/>
<path opacity="0.11" d="M1237.67 941.039C1236.37 941.039 1235.32 939.985 1235.32 938.686C1235.32 937.386 1236.37 936.332 1237.67 936.332C1238.97 936.332 1240.02 937.386 1240.02 938.686C1240.02 939.985 1238.97 941.039 1237.67 941.039Z" fill="#A630B0"/>
<path opacity="0.11" d="M1140.28 941.039C1138.98 941.039 1137.92 939.985 1137.92 938.686C1137.92 937.386 1138.98 936.332 1140.28 936.332C1141.58 936.332 1142.63 937.386 1142.63 938.686C1142.63 939.985 1141.58 941.039 1140.28 941.039Z" fill="#A630B0"/>
<path opacity="0.11" d="M1042.88 941.039C1041.59 941.039 1040.53 939.985 1040.53 938.686C1040.53 937.386 1041.59 936.332 1042.88 936.332C1044.18 936.332 1045.24 937.386 1045.24 938.686C1045.24 939.985 1044.18 941.039 1042.88 941.039Z" fill="#A630B0"/>
</g>
<g opacity="0.11">
<path opacity="0.11" d="M1919.97 1034.45C1918.67 1034.45 1917.61 1033.4 1917.61 1032.1C1917.61 1030.8 1918.67 1029.74 1919.97 1029.74C1921.27 1029.74 1922.32 1030.8 1922.32 1032.1C1922.32 1033.4 1921.27 1034.45 1919.97 1034.45Z" fill="#A630B0"/>
<path opacity="0.11" d="M1822.39 1034.45C1821.09 1034.45 1820.04 1033.4 1820.04 1032.1C1820.04 1030.8 1821.09 1029.74 1822.39 1029.74C1823.69 1029.74 1824.75 1030.8 1824.75 1032.1C1824.75 1033.4 1823.69 1034.45 1822.39 1034.45Z" fill="#A630B0"/>
<path opacity="0.11" d="M1725 1034.45C1723.7 1034.45 1722.65 1033.4 1722.65 1032.1C1722.65 1030.8 1723.7 1029.74 1725 1029.74C1726.3 1029.74 1727.35 1030.8 1727.35 1032.1C1727.35 1033.4 1726.3 1034.45 1725 1034.45Z" fill="#A630B0"/>
<path opacity="0.11" d="M1627.61 1034.45C1626.31 1034.45 1625.25 1033.4 1625.25 1032.1C1625.25 1030.8 1626.31 1029.74 1627.61 1029.74C1628.91 1029.74 1629.96 1030.8 1629.96 1032.1C1629.96 1033.4 1628.91 1034.45 1627.61 1034.45Z" fill="#A630B0"/>
<path opacity="0.11" d="M1530.03 1034.45C1528.73 1034.45 1527.68 1033.4 1527.68 1032.1C1527.68 1030.8 1528.73 1029.74 1530.03 1029.74C1531.33 1029.74 1532.38 1030.8 1532.38 1032.1C1532.38 1033.4 1531.33 1034.45 1530.03 1034.45Z" fill="#A630B0"/>
<path opacity="0.11" d="M1432.64 1034.45C1431.34 1034.45 1430.28 1033.4 1430.28 1032.1C1430.28 1030.8 1431.34 1029.74 1432.64 1029.74C1433.94 1029.74 1434.99 1030.8 1434.99 1032.1C1434.99 1033.4 1433.94 1034.45 1432.64 1034.45Z" fill="#A630B0"/>
<path opacity="0.11" d="M1335.25 1034.45C1333.95 1034.45 1332.89 1033.4 1332.89 1032.1C1332.89 1030.8 1333.95 1029.74 1335.25 1029.74C1336.55 1029.74 1337.6 1030.8 1337.6 1032.1C1337.6 1033.4 1336.55 1034.45 1335.25 1034.45Z" fill="#A630B0"/>
<path opacity="0.11" d="M1237.67 1034.45C1236.37 1034.45 1235.32 1033.4 1235.32 1032.1C1235.32 1030.8 1236.37 1029.74 1237.67 1029.74C1238.97 1029.74 1240.02 1030.8 1240.02 1032.1C1240.02 1033.4 1238.97 1034.45 1237.67 1034.45Z" fill="#A630B0"/>
<path opacity="0.11" d="M1140.28 1034.45C1138.98 1034.45 1137.92 1033.4 1137.92 1032.1C1137.92 1030.8 1138.98 1029.74 1140.28 1029.74C1141.58 1029.74 1142.63 1030.8 1142.63 1032.1C1142.63 1033.4 1141.58 1034.45 1140.28 1034.45Z" fill="#A630B0"/>
<path opacity="0.11" d="M1042.88 1034.45C1041.59 1034.45 1040.53 1033.4 1040.53 1032.1C1040.53 1030.8 1041.59 1029.74 1042.88 1029.74C1044.18 1029.74 1045.24 1030.8 1045.24 1032.1C1045.24 1033.4 1044.18 1034.45 1042.88 1034.45Z" fill="#A630B0"/>
</g>
</g>
</g>
<path opacity="0.25" d="M1293.78 632.076C1293.78 632.076 1314.42 682.917 1369.75 650.031C1425.08 617.146 1429.65 583.504 1535.75 615.823C1641.85 648.141 1680.38 646.251 1703.21 609.208C1725.86 572.164 1768.77 520.568 1859.17 526.049C1949.74 531.53 1996.31 404.713 2061.51 384.112C2126.7 363.511 2174 427.014 2174 427.014V1080H944C944 1080 985.338 980.209 1055.28 949.781C1125.22 919.352 1115.18 898.941 1121.75 847.911C1128.15 797.071 1262.55 762.674 1253.24 688.02C1243.93 613.177 1293.78 632.076 1293.78 632.076Z" fill="url(#paint0_radial)"/>
<path opacity="0.25" d="M2151.04 435.943C2143.23 430.885 2005.12 397.036 1961.68 492.359C1918.25 587.681 1872.14 588.848 1802.61 594.684C1732.88 600.52 1754.03 601.688 1676.3 652.851C1598.77 704.014 1553.05 677.362 1496.47 659.076C1439.89 640.789 1349.59 684.56 1277.58 646.431C1205.37 608.302 1202.52 670.942 1202.52 670.942C1202.52 670.942 1222.52 725.412 1164.22 763.736C1105.93 801.865 1134.51 845.83 1118.31 915.668C1102.12 985.507 944 1089 944 1089L2180 1023.25L2151.04 435.943Z" fill="url(#paint1_radial)"/>
<path d="M2135.43 454.299C2135.43 454.299 2113.93 557.265 2023.26 568.789C1932.59 580.312 1929.7 576.966 1895.2 623.803C1860.52 670.826 1841.92 697.032 1780.15 680.119C1718.38 663.205 1664.19 623.06 1613.62 655.585C1563.04 688.111 1451.24 743.311 1335.82 615.254C1220.41 487.196 1258.34 680.119 1258.34 680.119C1258.34 680.119 1338.35 751.861 1221.67 816.168C1180.49 840.144 1187.18 912.072 1173.63 958.537C1160.08 1005 1049.18 1094.96 1049.18 1094.96C1049.18 1094.96 1898.63 1167.63 1904.23 1168.56C1909.83 1169.49 2227 989.39 2227 989.39L2135.43 454.299Z" fill="url(#paint2_radial)"/>
<path d="M1309 899.945C1298.1 899.945 1289.26 891.111 1289.26 880.213C1289.26 869.316 1298.1 860.481 1309 860.481C1319.89 860.481 1328.73 869.316 1328.73 880.213C1328.73 891.111 1319.89 899.945 1309 899.945Z" fill="url(#paint3_linear)"/>
<path d="M1725.72 1025.22C1709.73 1025.22 1696.76 1012.25 1696.76 996.253C1696.76 980.256 1709.73 967.288 1725.72 967.288C1741.72 967.288 1754.69 980.256 1754.69 996.253C1754.69 1012.25 1741.72 1025.22 1725.72 1025.22Z" fill="url(#paint4_linear)"/>
<path d="M1663.27 670.039L1661.82 672.574L1659.47 673.841L1661.82 675.289L1663.27 677.642L1664.54 675.289L1667.07 673.841L1664.54 672.574L1663.27 670.039Z" fill="#FEA7AF"/>
<path d="M1519.17 839.301L1518.26 840.93L1516.64 841.835L1518.26 842.74L1519.17 844.37L1520.07 842.74L1521.7 841.835L1520.07 840.93L1519.17 839.301Z" fill="#FEA7AF"/>
<path d="M1516.64 694.478L1515.73 696.107L1514.1 697.012L1515.73 697.918L1516.64 699.547L1517.54 697.918L1519.17 697.012L1517.54 696.107L1516.64 694.478Z" fill="#FEA7AF"/>
<path d="M1879.05 909.359L1878.33 910.988L1876.7 911.893L1878.33 912.799L1879.05 914.428L1879.96 912.799L1881.59 911.893L1879.96 910.988L1879.05 909.359Z" fill="#FEA7AF"/>
<path opacity="0.29" d="M1823.84 723.986L1822.94 725.615L1821.49 726.52L1822.94 727.425L1823.84 729.054L1824.75 727.425L1826.38 726.52L1824.75 725.615L1823.84 723.986Z" fill="white"/>
<path opacity="0.29" d="M1741.29 763.993L1739.48 767.252L1736.4 769.062L1739.48 770.691L1741.29 773.95L1743.1 770.691L1746.18 769.062L1743.1 767.252L1741.29 763.993Z" fill="#FEA7AF"/>
<path opacity="0.29" d="M1309 726.52L1307.18 729.779L1304.11 731.408L1307.18 733.218L1309 736.477L1310.81 733.218L1313.88 731.408L1310.81 729.779L1309 726.52Z" fill="white"/>
<path opacity="0.29" d="M1323.3 965.297L1321.67 968.374L1318.41 970.185L1321.67 971.995L1323.3 975.072L1325.11 971.995L1328.37 970.185L1325.11 968.374L1323.3 965.297Z" fill="white"/>
<path opacity="0.29" d="M1642.27 886.006L1641.55 887.455L1639.92 888.36L1641.55 889.084L1642.27 890.713L1643.17 889.084L1644.62 888.36L1643.17 887.455L1642.27 886.006Z" fill="#FEA7AF"/>
<path opacity="0.29" d="M1622.9 955.159L1621.99 956.789L1620.55 957.513L1621.99 958.418L1622.9 959.866L1623.62 958.418L1625.25 957.513L1623.62 956.789L1622.9 955.159Z" fill="#FEA7AF"/>
<path opacity="0.29" d="M1442.78 697.193L1441.87 698.642L1440.42 699.547L1441.87 700.271L1442.78 701.9L1443.5 700.271L1445.13 699.547L1443.5 698.642L1442.78 697.193Z" fill="#FEA7AF"/>
<path opacity="0.29" d="M1347.74 842.016L1346.83 843.465L1345.38 844.37L1346.83 845.094L1347.74 846.542L1348.46 845.094L1350.09 844.37L1348.46 843.465L1347.74 842.016Z" fill="white"/>
<path opacity="0.29" d="M1405.67 638.359L1404.94 639.988L1403.31 640.713L1404.94 641.618L1405.67 643.066L1406.57 641.618L1408.02 640.713L1406.57 639.988L1405.67 638.359Z" fill="white"/>
<path opacity="0.29" d="M1600.99 748.062L1599.55 750.959L1596.83 752.407L1599.55 753.855L1600.99 756.752L1602.62 753.855L1605.34 752.407L1602.62 750.959L1600.99 748.062Z" fill="#FEA7AF"/>
<path d="M1761.39 899.221L1759.21 903.023L1755.41 905.014L1759.21 907.187L1761.39 910.988L1763.38 907.187L1767.18 905.014L1763.38 903.023L1761.39 899.221Z" fill="white"/>
<path d="M1434.45 901.032L1433.72 902.299L1432.46 903.023L1433.72 903.747L1434.45 905.195L1435.17 903.747L1436.44 903.023L1435.17 902.299L1434.45 901.032Z" fill="white"/>
<path d="M1396.43 754.58L1395.71 756.028L1394.44 756.752L1395.71 757.476L1396.43 758.743L1397.16 757.476L1398.61 756.752L1397.16 756.028L1396.43 754.58Z" fill="white"/>
<path opacity="0.33" d="M1908.38 758.019L1907.11 760.372L1904.58 761.64L1907.11 763.088L1908.38 765.441L1909.65 763.088L1912 761.64L1909.65 760.372L1908.38 758.019Z" fill="#FEA7AF"/>
<path opacity="0.33" d="M1516.64 906.644L1515.73 908.273L1513.92 909.178L1515.73 910.264L1516.64 911.893L1517.54 910.264L1519.35 909.178L1517.54 908.273L1516.64 906.644Z" fill="#FEA7AF"/>
<path opacity="0.33" d="M1472.65 959.142L1471.74 960.771L1470.11 961.857L1471.74 962.762L1472.65 964.392L1473.73 962.762L1475.36 961.857L1473.73 960.771L1472.65 959.142Z" fill="#FEA7AF"/>
<path opacity="0.33" d="M1478.08 766.346L1477.17 767.976L1475.36 769.062L1477.17 769.967L1478.08 771.596L1478.98 769.967L1480.61 769.062L1478.98 767.976L1478.08 766.346Z" fill="#FEA7AF"/>
<path opacity="0.33" d="M1622.9 806.173L1621.99 807.983L1620.18 808.888L1621.99 809.793L1622.9 811.604L1623.8 809.793L1625.43 808.888L1623.8 807.983L1622.9 806.173Z" fill="#FEA7AF"/>
<path opacity="0.33" d="M1243.28 829.344L1242.38 831.155L1240.75 832.06L1242.38 832.965L1243.28 834.775L1244.37 832.965L1246 832.06L1244.37 831.155L1243.28 829.344Z" fill="#FEA7AF"/>
<g opacity="0.22">
<path opacity="0.22" d="M1930.47 700.995C1921.87 700.995 1914.9 694.025 1914.9 685.427C1914.9 676.828 1921.87 669.858 1930.47 669.858C1939.06 669.858 1946.04 676.828 1946.04 685.427C1946.04 694.025 1939.06 700.995 1930.47 700.995Z" fill="url(#paint5_linear)"/>
<path opacity="0.22" d="M1914.35 685.065C1914.35 685.065 1912.73 685.608 1910.01 686.513C1908.74 687.056 1907.11 687.599 1905.12 688.504C1903.31 689.409 1901.14 690.314 1899.33 692.125C1898.97 692.668 1898.24 693.211 1898.24 694.297C1898.24 694.478 1898.24 694.478 1898.24 694.659V694.84C1898.42 695.021 1898.6 695.383 1898.79 695.383C1899.15 695.745 1899.51 695.926 1899.87 695.926C1901.32 696.469 1902.77 696.469 1904.22 696.65C1907.11 696.831 1910.19 696.65 1913.27 696.107C1919.42 695.383 1925.94 693.935 1932.28 692.306C1938.61 690.495 1944.95 688.504 1950.74 686.151C1953.64 684.884 1956.35 683.616 1958.89 682.168C1960.15 681.444 1961.24 680.539 1962.33 679.453C1962.51 679.091 1962.87 678.91 1962.87 678.367C1963.05 678.004 1963.05 677.461 1962.87 676.918C1962.87 676.737 1962.15 676.013 1961.96 676.013C1961.6 675.832 1961.24 675.651 1960.88 675.651C1958.34 675.108 1955.99 675.289 1954 675.47C1952.01 675.651 1950.2 675.832 1948.75 676.194C1945.85 676.737 1944.22 677.099 1944.22 677.099C1944.22 677.099 1945.85 676.918 1948.75 676.737C1950.2 676.556 1952.01 676.556 1954 676.375C1955.99 676.375 1958.34 676.375 1960.52 676.918C1960.7 677.099 1961.06 677.099 1961.24 677.28C1961.42 677.28 1961.42 677.461 1961.42 677.461C1961.42 677.461 1961.42 677.642 1961.6 677.642C1961.78 677.823 1961.6 678.367 1961.24 678.729C1960.52 679.634 1959.25 680.358 1958.16 681.082C1955.81 682.349 1953.09 683.616 1950.2 684.703C1944.59 686.875 1938.25 688.866 1931.91 690.495C1925.58 692.125 1919.24 693.573 1913.09 694.478C1910.01 694.84 1907.11 695.202 1904.4 695.202C1901.86 695.202 1898.06 694.84 1900.23 692.849C1901.86 691.22 1903.85 690.133 1905.67 689.047C1907.48 688.142 1908.92 687.418 1910.37 686.694C1912.91 685.608 1914.35 685.065 1914.35 685.065Z" fill="url(#paint6_linear)"/>
</g>
<path d="M1859.68 773.225L1788.9 838.215C1788.54 838.577 1788.54 839.12 1788.9 839.663C1789.26 840.025 1789.81 840.025 1790.35 839.844L1863.31 777.389C1864.39 776.484 1864.57 774.674 1863.49 773.587C1862.4 772.32 1860.77 772.32 1859.68 773.225Z" fill="url(#paint7_linear)"/>
<path d="M1833.25 798.026L1789.99 837.853C1789.81 838.034 1789.81 838.396 1789.99 838.758C1790.17 838.939 1790.53 838.939 1790.89 838.758L1835.61 800.561C1836.33 800.018 1836.33 798.932 1835.79 798.208C1835.06 797.483 1833.98 797.483 1833.25 798.026Z" fill="url(#paint8_linear)"/>
<g opacity="0.33">
<path opacity="0.33" d="M1482.06 697.737L1448.03 728.873C1447.85 729.054 1447.85 729.417 1448.03 729.598C1448.21 729.779 1448.57 729.779 1448.75 729.598L1483.69 699.547C1484.23 699.004 1484.23 698.28 1483.87 697.737C1483.33 697.375 1482.6 697.194 1482.06 697.737Z" fill="url(#paint9_linear)"/>
<path opacity="0.33" d="M1469.39 709.684L1448.57 728.873C1448.39 729.054 1448.39 729.235 1448.57 729.235C1448.75 729.416 1448.93 729.416 1448.93 729.235L1470.29 710.771C1470.65 710.408 1470.65 710.046 1470.29 709.684C1470.11 709.322 1469.75 709.322 1469.39 709.684Z" fill="url(#paint10_linear)"/>
</g>
<g opacity="0.35">
<g opacity="0.35">
<path opacity="0.35" d="M2002.7 749.149L1908.74 835.318C1908.2 835.861 1908.2 836.586 1908.56 837.129C1909.1 837.672 1909.83 837.672 1910.37 837.31L2007.22 754.399C2008.67 753.131 2008.85 750.959 2007.58 749.511C2006.32 747.882 2004.14 747.701 2002.7 749.149Z" fill="url(#paint11_linear)"/>
<path opacity="0.35" d="M1967.58 782.096L1910.01 834.956C1909.65 835.318 1909.65 835.68 1910.01 836.042C1910.37 836.404 1910.73 836.404 1911.1 836.042L1970.47 785.173C1971.38 784.449 1971.56 783.001 1970.65 782.096C1969.75 781.372 1968.48 781.191 1967.58 782.096Z" fill="url(#paint12_linear)"/>
</g>
</g>
<path d="M1337.78 761.459L1294.69 801.104C1294.51 801.285 1294.51 801.647 1294.69 802.009C1294.88 802.19 1295.24 802.19 1295.6 802.009L1339.95 763.993C1340.68 763.45 1340.68 762.364 1340.13 761.64C1339.41 760.916 1338.5 760.734 1337.78 761.459Z" fill="url(#paint13_linear)"/>
<path d="M1321.67 776.484L1295.24 800.742C1295.06 800.923 1295.06 801.104 1295.24 801.285C1295.42 801.466 1295.6 801.466 1295.78 801.285L1322.94 777.932C1323.3 777.57 1323.48 777.027 1323.12 776.484C1322.75 776.122 1322.03 776.122 1321.67 776.484Z" fill="url(#paint14_linear)"/>
<path d="M1740.21 639.264C1740.21 644.876 1740.93 650.307 1742.38 655.376C1749.44 679.815 1771.89 697.737 1798.68 697.737C1828.55 697.737 1853.17 675.289 1856.79 646.505C1857.15 644.152 1857.15 641.618 1857.15 639.264C1857.15 629.67 1854.8 620.799 1850.81 612.834C1841.22 593.826 1821.31 580.792 1798.5 580.792C1774.6 580.792 1754.15 595.093 1744.91 615.55C1742.02 622.791 1740.21 630.937 1740.21 639.264Z" fill="url(#paint15_linear)"/>
<path d="M1745.27 615.55C1773.51 601.067 1783.29 607.041 1813.52 617.903C1830.72 624.058 1843.39 618.627 1851 612.834C1841.4 593.826 1821.49 580.792 1798.68 580.792C1774.96 580.792 1754.51 595.093 1745.27 615.55Z" fill="url(#paint16_linear)"/>
<path d="M1742.56 655.557C1749.62 679.996 1772.07 697.918 1798.86 697.918C1828.73 697.918 1853.35 675.47 1856.97 646.687C1849 653.928 1836.33 661.712 1818.23 660.626C1787.45 658.815 1763.74 636.911 1742.56 655.557Z" fill="url(#paint17_linear)"/>
<path d="M1097.74 949.004C1099.55 954.254 1101.9 959.142 1104.98 963.306C1119.28 983.943 1145.89 993.537 1170.87 985.029C1198.75 975.615 1214.68 946.832 1208.89 918.773C1208.34 916.419 1207.8 914.066 1207.08 911.893C1204 903.023 1199.11 895.42 1192.78 889.265C1177.75 874.602 1155.12 868.628 1133.94 875.869C1111.68 883.472 1097.01 903.204 1095.02 925.29C1094.12 932.893 1095.02 941.039 1097.74 949.004Z" fill="url(#paint18_linear)"/>
<path d="M1094.84 925.109C1116.74 902.661 1127.61 905.195 1159.29 905.738C1177.39 906.1 1187.34 897.049 1192.78 889.265C1177.75 874.602 1155.12 868.628 1133.94 875.869C1111.67 883.291 1097.01 903.204 1094.84 925.109Z" fill="url(#paint19_linear)"/>
<path d="M1104.98 963.305C1119.28 983.943 1145.89 993.537 1170.87 985.029C1198.75 975.615 1214.68 946.832 1208.89 918.772C1203.82 928.005 1194.41 939.41 1177.21 943.935C1147.88 952.082 1118.92 939.41 1104.98 963.305Z" fill="url(#paint20_linear)"/>
<path d="M1258.13 491.907L1365.3 642.523L1386.11 627.679L1278.95 477.063C1271.16 466.201 1261.93 456.606 1251.43 448.641L1242.56 441.943C1242.38 441.762 1242.02 441.581 1241.83 441.581C1239.12 440.314 1235.68 443.029 1236.77 446.107L1240.21 456.787C1244.37 469.097 1250.34 481.045 1258.13 491.907Z" fill="url(#paint21_linear)"/>
<path d="M1263.2 488.105L1370.55 638.902L1386.11 627.86L1278.95 477.244C1271.16 466.382 1261.93 456.788 1251.43 448.822L1242.56 442.124C1242.38 441.943 1242.02 441.762 1241.83 441.762C1241.83 442.124 1241.83 442.305 1242.02 442.667L1245.46 453.348C1249.62 465.477 1255.59 477.425 1263.2 488.105Z" fill="#FFECFF"/>
<path d="M1262.11 488.83L1369.28 639.445L1384.85 628.403L1277.68 477.787C1269.89 466.925 1260.66 457.331 1250.16 449.365L1241.29 442.667C1241.11 442.486 1240.75 442.305 1240.57 442.305C1240.57 442.667 1240.57 442.848 1240.75 443.21L1244.19 453.891C1248.35 466.02 1254.33 477.968 1262.11 488.83Z" fill="url(#paint22_linear)"/>
<path d="M1366.56 658.091L1400.42 634.014L1377.97 616.274L1357.15 631.118L1366.56 658.091Z" fill="url(#paint23_radial)"/>
<path d="M1374.89 652.298L1400.42 634.014L1377.97 616.274L1365.3 625.144L1374.89 652.298Z" fill="#CC7DFF"/>
<path d="M1373.08 653.204L1400.42 634.015L1376.16 617.36L1363.67 626.23L1373.08 653.204Z" fill="url(#paint24_radial)"/>
<path d="M1373.08 655.557L1396.61 638.902L1395.71 637.454L1371.99 654.109L1373.08 655.557Z" fill="url(#paint25_radial)"/>
<path d="M1357.15 631.118L1377.97 616.274L1377.61 615.55L1356.61 630.394L1357.15 631.118Z" fill="url(#paint26_radial)"/>
<path d="M1183.18 547.302L1290.35 697.918L1311.17 683.073L1204 532.457C1196.21 521.596 1186.98 512.001 1176.48 504.036L1167.61 497.338C1167.43 497.157 1167.07 496.976 1166.89 496.976C1164.17 495.709 1160.73 498.424 1161.82 501.502L1165.26 512.182C1169.42 524.673 1175.4 536.44 1183.18 547.302Z" fill="url(#paint27_linear)"/>
<path d="M1188.43 543.681L1295.6 694.297L1311.17 683.254L1204 532.639C1196.21 521.777 1186.98 512.182 1176.48 504.217L1167.61 497.519C1167.43 497.338 1167.07 497.157 1166.89 497.157C1166.89 497.519 1166.89 497.7 1167.07 498.062L1170.51 508.743C1174.67 520.872 1180.65 532.82 1188.43 543.681Z" fill="#DDA9FF"/>
<path d="M1187.89 544.224L1295.06 694.84L1310.62 683.797L1203.46 533.182C1195.67 522.32 1186.44 512.725 1175.94 504.76L1167.07 498.062C1166.89 497.881 1166.53 497.7 1166.34 497.7C1166.34 498.062 1166.34 498.243 1166.53 498.605L1169.96 509.286C1174.13 521.415 1180.1 533.363 1187.89 544.224Z" fill="url(#paint28_linear)"/>
<path d="M1291.62 713.486L1325.47 689.409L1303.02 671.669L1282.2 686.513L1291.62 713.486Z" fill="url(#paint29_radial)"/>
<path d="M1299.94 707.693L1325.47 689.409L1303.02 671.669L1290.53 680.72L1299.94 707.693Z" fill="#CC7DFF"/>
<path d="M1298.68 708.598L1324.2 690.496L1301.75 672.574L1289.26 681.625L1298.68 708.598Z" fill="url(#paint30_radial)"/>
<path d="M1298.13 711.133L1321.67 694.297L1320.76 692.849L1297.23 709.684L1298.13 711.133Z" fill="url(#paint31_radial)"/>
<path d="M1282.2 686.513L1303.02 671.668L1302.66 671.125L1281.84 685.97L1282.2 686.513Z" fill="url(#paint32_radial)"/>
<path d="M1173.77 496.614L1317.87 698.823L1379.96 654.652L1235.86 452.262C1220.29 430.357 1198.57 413.522 1173.59 403.746L1160.73 398.677C1154.4 396.143 1147.52 401.031 1147.7 407.91L1148.24 421.668C1149.33 448.641 1158.2 474.709 1173.77 496.614Z" fill="url(#paint33_linear)"/>
<path d="M1186.8 487.381L1330.9 689.771L1379.96 654.833L1235.86 452.443C1220.29 430.538 1198.57 413.703 1173.59 403.927L1160.73 398.858L1161.28 412.617C1162.36 439.409 1171.23 465.296 1186.8 487.381Z" fill="#CC7DFF"/>
<path d="M1186.26 487.381L1330.18 689.771L1379.24 654.833L1235.14 452.443C1219.57 430.538 1197.84 413.703 1172.86 403.927L1160.01 398.858L1160.55 412.617C1161.82 439.59 1170.69 465.477 1186.26 487.381Z" fill="url(#paint34_linear)"/>
<path d="M1178.47 462.58C1178.84 462.399 1179.02 462.218 1179.38 462.037C1179.56 462.037 1179.56 461.856 1179.74 461.856C1179.92 461.675 1180.1 461.675 1180.46 461.494C1180.65 461.494 1180.65 461.494 1180.83 461.313C1181.01 461.313 1181.19 461.132 1181.55 461.132C1181.73 461.132 1181.91 461.132 1181.91 460.951C1182.09 460.951 1182.27 460.77 1182.64 460.77C1182.82 460.77 1183 460.77 1183 460.77C1183.18 460.77 1183.36 460.77 1183.72 460.77C1183.9 460.77 1184.09 460.77 1184.27 460.77C1184.45 460.77 1184.63 460.77 1184.99 460.77C1185.17 460.77 1185.35 460.77 1185.53 460.77C1185.71 460.77 1185.9 460.77 1186.08 460.951C1186.26 460.951 1186.44 460.951 1186.62 461.132C1186.62 461.132 1186.62 461.132 1186.8 461.132C1187.16 461.313 1187.34 461.313 1187.71 461.494C1192.05 463.304 1196.21 465.477 1200.2 467.649C1219.02 478.149 1235.5 492.812 1248.17 510.372L1294.33 575.18L1362.58 592.197L1391.73 630.032L1390.82 630.575L1392.99 633.29L1359.5 652.479L1357.87 653.385L1369.82 663.16C1371.81 664.789 1371.81 668.048 1369.64 669.496L1367.11 671.306L1368.92 674.022L1350.27 687.418L1348.46 684.703L1342.67 688.866L1350.45 700.271C1351.17 701.357 1350.81 702.624 1349.91 703.348C1349.73 703.348 1349.73 703.529 1349.55 703.529C1349.36 703.71 1349.36 703.71 1349.18 703.891C1348.1 704.616 1346.83 704.435 1345.92 703.348L1337.6 692.125L1332.89 695.383L1334.7 698.099L1316.24 711.495L1314.43 708.779L1311.35 710.952C1309.18 712.4 1306.1 711.495 1305.19 709.141L1299.76 694.659L1298.68 695.564L1269.35 721.089L1267.54 718.193L1267.36 718.374L1241.65 678.185L1247.81 609.395L1201.1 543.862C1193.5 533.182 1187.34 521.415 1182.82 509.105C1179.92 501.139 1177.75 492.812 1176.3 484.304C1175.58 479.778 1174.85 475.252 1174.67 470.546C1174.49 467.287 1176.12 464.391 1178.47 462.58Z" fill="url(#paint35_linear)"/>
<path d="M1337.6 660.626L1400.42 628.403L1369.82 587.852L1272.97 563.775L1337.6 660.626Z" fill="#FFDCFF"/>
<path d="M1336.51 661.893L1398.06 626.592L1370.91 590.93L1271.7 565.224L1336.51 661.893Z" fill="url(#paint36_radial)"/>
<path d="M1328.55 666.962L1276.95 716.382L1249.26 673.479L1258.13 574.094L1328.55 666.962Z" fill="#FFE4FF"/>
<path d="M1338.87 663.703L1366.92 647.592L1400.42 628.403L1370.91 590.93L1320.94 578.62L1274.06 567.034L1338.87 663.703Z" fill="url(#paint37_radial)"/>
<path d="M1366.92 647.592L1400.42 628.403L1370.91 590.93L1320.94 578.62L1366.92 647.592Z" fill="url(#paint38_radial)"/>
<path d="M1276.95 716.383L1306.28 690.857L1330.36 669.677L1260.12 576.99L1255.77 624.42L1251.25 676.194L1276.95 716.383Z" fill="url(#paint39_radial)"/>
<path d="M1276.95 716.382L1306.28 690.857L1255.77 624.42L1251.25 676.194L1276.95 716.382Z" fill="url(#paint40_radial)"/>
<path d="M1208.71 539.155L1311.35 683.254L1357.87 650.126L1255.23 506.027C1242.56 488.286 1226.27 473.623 1207.26 463.305C1203.27 461.132 1198.93 458.96 1194.77 457.15C1194.4 456.969 1194.22 456.969 1193.86 456.787C1190.96 455.882 1188.07 456.425 1185.9 458.055C1183.54 459.865 1181.91 462.761 1182.09 466.201C1182.46 470.727 1183 475.433 1183.72 479.959C1185.17 488.468 1187.34 496.614 1190.24 504.76C1194.95 516.708 1201.1 528.475 1208.71 539.155Z" fill="url(#paint41_linear)"/>
<path d="M1220.47 530.828L1323.12 674.927L1358.05 650.126L1255.41 506.027C1242.74 488.286 1226.45 473.623 1207.44 463.305C1203.46 461.132 1199.11 458.96 1194.95 457.15C1194.59 456.969 1194.4 456.969 1194.04 456.787C1194.04 457.15 1194.04 457.512 1194.04 457.874C1194.4 462.399 1194.95 467.106 1195.67 471.632C1197.12 480.14 1199.29 488.286 1202.19 496.433C1206.71 508.381 1212.87 519.967 1220.47 530.828Z" fill="#FFE4FF"/>
<path d="M1219.21 531.552L1321.85 675.651L1356.79 650.85L1254.14 506.751C1241.47 489.011 1225.18 474.347 1206.17 464.029C1202.19 461.856 1197.84 459.684 1193.68 457.874C1193.32 457.693 1193.14 457.693 1192.78 457.512C1192.78 457.874 1192.78 458.236 1192.78 458.598C1193.14 463.123 1193.68 467.83 1194.4 472.356C1195.85 480.864 1198.03 489.011 1200.92 497.157C1205.45 509.105 1211.6 520.872 1219.21 531.552Z" fill="url(#paint42_linear)"/>
<path d="M1318.77 706.245L1377.06 664.789C1379.23 663.341 1379.42 660.083 1377.24 658.453L1336.69 625.144C1331.08 620.437 1322.94 620.256 1317.14 624.42L1300.31 636.368C1294.33 640.532 1291.98 648.316 1294.51 655.195L1312.8 704.435C1313.7 706.788 1316.78 707.874 1318.77 706.245Z" fill="#FFE7FF"/>
<path d="M1296.69 657.548L1314.61 705.883C1315.51 708.236 1318.41 709.322 1320.58 707.693L1346.83 689.047L1350.99 686.151L1377.79 667.143C1379.96 665.695 1379.96 662.617 1377.97 660.807L1338.14 628.041C1332.53 623.515 1324.75 623.153 1318.95 627.316L1313.52 631.118L1307 635.825L1302.3 639.083C1296.5 643.247 1294.15 650.85 1296.69 657.548Z" fill="url(#paint43_linear)"/>
<path d="M1357.8 681.212L1376.53 667.879L1378.42 670.534L1359.69 683.866L1357.8 681.212Z" fill="#7C26A4"/>
<path d="M1323.78 705.456L1342.51 692.124L1344.4 694.779L1325.67 708.111L1323.78 705.456Z" fill="#7C26A4"/>
<path d="M1206.53 508.381C1206.9 508.019 1207.26 507.656 1207.44 506.932C1208.89 498.062 1217.4 491.907 1226.45 493.536C1227.53 493.717 1228.8 492.993 1228.98 491.726C1229.16 490.64 1228.44 489.373 1227.17 489.192C1215.95 487.381 1205.27 494.985 1203.28 506.208C1203.09 507.294 1203.82 508.562 1205.09 508.743C1205.63 508.743 1206.17 508.562 1206.53 508.381Z" fill="url(#paint44_linear)"/>
<path d="M1183.9 479.597C1187.16 470.365 1194.77 464.753 1207.44 463.123C1203.46 460.951 1199.11 458.779 1194.95 456.969C1191.87 455.701 1188.61 456.244 1186.08 457.874C1183.72 459.684 1182.09 462.58 1182.28 466.02C1182.64 470.546 1183.18 475.071 1183.9 479.597Z" fill="url(#paint45_linear)"/>
<path opacity="0.42" d="M1305.38 633.652L1307 635.825L1346.65 689.228L1350.81 686.332L1313.34 631.299L1311.71 628.946C1308.45 628.765 1306.46 630.756 1305.38 633.652Z" fill="#552C84"/>
<path d="M1313.34 627.679C1309.72 627.679 1307.73 629.489 1306.82 632.385L1355.7 698.099C1356.43 699.185 1357.87 699.366 1358.96 698.642C1360.05 697.918 1360.23 696.469 1359.5 695.564L1313.34 627.679Z" fill="url(#paint46_linear)"/>
</g>
<defs>
<radialGradient id="paint0_radial" cx="0" cy="0" r="1" gradientUnits="userSpaceOnUse" gradientTransform="translate(1564.2 729.93) rotate(180) scale(493.151 510.378)">
<stop offset="0.00537634" stop-color="#3ACB8C"/>
<stop offset="1" stop-color="#67219E"/>
</radialGradient>
<radialGradient id="paint1_radial" cx="0" cy="0" r="1" gradientUnits="userSpaceOnUse" gradientTransform="translate(1304.9 572.143) rotate(180) scale(776.461 792.888)">
<stop offset="0.00537634" stop-color="#3ACB8C"/>
<stop offset="1" stop-color="#67219E"/>
</radialGradient>
<radialGradient id="paint2_radial" cx="0" cy="0" r="1" gradientUnits="userSpaceOnUse" gradientTransform="translate(1246.79 783.658) rotate(180) scale(1085.39 1116.88)">
<stop offset="0.00537634" stop-color="#3ACB8C"/>
<stop offset="1" stop-color="#67219E"/>
</radialGradient>
<linearGradient id="paint3_linear" x1="1318.06" y1="864.41" x2="1299.78" y2="896.439" gradientUnits="userSpaceOnUse">
<stop offset="0.00537634" stop-color="#FEA7AF"/>
<stop offset="0.9731" stop-color="#EA47AC"/>
</linearGradient>
<linearGradient id="paint4_linear" x1="1738.98" y1="972.884" x2="1712.07" y2="1020.04" gradientUnits="userSpaceOnUse">
<stop offset="0.00537634" stop-color="#FEA7AF"/>
<stop offset="0.9731" stop-color="#EA47AC"/>
</linearGradient>
<linearGradient id="paint5_linear" x1="1945.11" y1="690.694" x2="1915.91" y2="680.037" gradientUnits="userSpaceOnUse">
<stop offset="0.00537634" stop-color="#FEA7AF"/>
<stop offset="0.9731" stop-color="#EA47AC"/>
</linearGradient>
<linearGradient id="paint6_linear" x1="1963.19" y1="678.316" x2="1898.62" y2="695.385" gradientUnits="userSpaceOnUse">
<stop offset="0.00537634" stop-color="#FEA7AF"/>
<stop offset="0.9731" stop-color="#EA47AC"/>
</linearGradient>
<linearGradient id="paint7_linear" x1="1788.98" y1="839.603" x2="1863.46" y2="773.436" gradientUnits="userSpaceOnUse">
<stop offset="0.00537634" stop-color="#FEA7AF"/>
<stop offset="0.9946" stop-color="#EA47AC" stop-opacity="0"/>
</linearGradient>
<linearGradient id="paint8_linear" x1="1789.94" y1="838.751" x2="1835.58" y2="798.203" gradientUnits="userSpaceOnUse">
<stop offset="0.00537634" stop-color="#3ACB8C"/>
<stop offset="0.9946" stop-color="#EA47AC" stop-opacity="0"/>
</linearGradient>
<linearGradient id="paint9_linear" x1="1448.09" y1="729.6" x2="1483.85" y2="697.832" gradientUnits="userSpaceOnUse">
<stop offset="0.00537634" stop-color="#FEA7AF"/>
<stop offset="0.9946" stop-color="#EA47AC" stop-opacity="0"/>
</linearGradient>
<linearGradient id="paint10_linear" x1="1448.55" y1="729.191" x2="1470.47" y2="709.723" gradientUnits="userSpaceOnUse">
<stop offset="0.00537634" stop-color="#FEA7AF"/>
<stop offset="0.9946" stop-color="#EA47AC" stop-opacity="0"/>
</linearGradient>
<linearGradient id="paint11_linear" x1="1908.74" y1="837.17" x2="2007.64" y2="749.317" gradientUnits="userSpaceOnUse">
<stop offset="0.00537634" stop-color="#FEA7AF"/>
<stop offset="0.9946" stop-color="#EA47AC" stop-opacity="0"/>
</linearGradient>
<linearGradient id="paint12_linear" x1="1910.01" y1="836.037" x2="1970.61" y2="782.201" gradientUnits="userSpaceOnUse">
<stop offset="0.00537634" stop-color="#FEA7AF"/>
<stop offset="0.9946" stop-color="#EA47AC" stop-opacity="0"/>
</linearGradient>
<linearGradient id="paint13_linear" x1="1294.71" y1="801.821" x2="1340.09" y2="761.512" gradientUnits="userSpaceOnUse">
<stop offset="0.00537634" stop-color="#FEA7AF"/>
<stop offset="0.9946" stop-color="#EA47AC" stop-opacity="0"/>
</linearGradient>
<linearGradient id="paint14_linear" x1="1295.3" y1="801.301" x2="1323.1" y2="776.6" gradientUnits="userSpaceOnUse">
<stop offset="0.00537634" stop-color="#FEA7AF"/>
<stop offset="0.9946" stop-color="#EA47AC" stop-opacity="0"/>
</linearGradient>
<linearGradient id="paint15_linear" x1="1857.42" y1="639.325" x2="1740.28" y2="639.325" gradientUnits="userSpaceOnUse">
<stop offset="0.00537634" stop-color="#FEA7AF"/>
<stop offset="0.9731" stop-color="#EA47AC"/>
</linearGradient>
<linearGradient id="paint16_linear" x1="1851.11" y1="600.69" x2="1745.31" y2="600.69" gradientUnits="userSpaceOnUse">
<stop offset="0.00537634" stop-color="#FEA7AF"/>
<stop offset="0.0453408" stop-color="#FDA1AF"/>
<stop offset="0.3245" stop-color="#F57AAE"/>
<stop offset="0.5813" stop-color="#EF5EAD"/>
<stop offset="0.8058" stop-color="#EB4DAC"/>
<stop offset="0.9731" stop-color="#EA47AC"/>
</linearGradient>
<linearGradient id="paint17_linear" x1="1856.97" y1="672.238" x2="1742.53" y2="672.238" gradientUnits="userSpaceOnUse">
<stop offset="0.00537634" stop-color="#FEA7AF"/>
<stop offset="0.126" stop-color="#FA93AE"/>
<stop offset="0.3615" stop-color="#F372AD"/>
<stop offset="0.5869" stop-color="#EE5AAD"/>
<stop offset="0.7962" stop-color="#EB4CAC"/>
<stop offset="0.9731" stop-color="#EA47AC"/>
</linearGradient>
<linearGradient id="paint18_linear" x1="1207" y1="911.996" x2="1097.72" y2="948.945" gradientUnits="userSpaceOnUse">
<stop offset="0.00537634" stop-color="#DE3DBF"/>
<stop offset="1" stop-color="#67219E"/>
</linearGradient>
<linearGradient id="paint19_linear" x1="1188.91" y1="877.948" x2="1090.22" y2="911.319" gradientUnits="userSpaceOnUse">
<stop offset="0.00537634" stop-color="#DE3DBF"/>
<stop offset="0.1175" stop-color="#CA38BA"/>
<stop offset="0.3936" stop-color="#A02EAE"/>
<stop offset="0.6424" stop-color="#8127A5"/>
<stop offset="0.853" stop-color="#6E23A0"/>
<stop offset="1" stop-color="#67219E"/>
</linearGradient>
<linearGradient id="paint20_linear" x1="1216.96" y1="942.841" x2="1110.2" y2="978.939" gradientUnits="userSpaceOnUse">
<stop offset="0.00537634" stop-color="#DE3DBF"/>
<stop offset="0.1162" stop-color="#C337B8"/>
<stop offset="0.2799" stop-color="#A22FAE"/>
<stop offset="0.4483" stop-color="#8829A7"/>
<stop offset="0.6212" stop-color="#7624A2"/>
<stop offset="0.8012" stop-color="#6B229F"/>
<stop offset="1" stop-color="#67219E"/>
</linearGradient>
<linearGradient id="paint21_linear" x1="1317.31" y1="531.026" x2="1296.48" y2="545.849" gradientUnits="userSpaceOnUse">
<stop offset="0.00537634" stop-color="#A02CC2"/>
<stop offset="0.0148044" stop-color="#9F2CC1"/>
<stop offset="0.3274" stop-color="#7222A6"/>
<stop offset="0.607" stop-color="#521B92"/>
<stop offset="0.8407" stop-color="#3E1786"/>
<stop offset="1" stop-color="#371582"/>
</linearGradient>
<linearGradient id="paint22_linear" x1="1316.68" y1="532.443" x2="1301.06" y2="543.561" gradientUnits="userSpaceOnUse">
<stop offset="0.00537634" stop-color="#A02CC2"/>
<stop offset="0.0148044" stop-color="#9F2CC1"/>
<stop offset="0.3274" stop-color="#7222A6"/>
<stop offset="0.607" stop-color="#521B92"/>
<stop offset="0.8407" stop-color="#3E1786"/>
<stop offset="1" stop-color="#371582"/>
</linearGradient>
<radialGradient id="paint23_radial" cx="0" cy="0" r="1" gradientUnits="userSpaceOnUse" gradientTransform="translate(1382.56 601.162) rotate(144.557) scale(52.0088)">
<stop offset="0.00537634" stop-color="#A02CC2"/>
<stop offset="1" stop-color="#371582"/>
</radialGradient>
<radialGradient id="paint24_radial" cx="0" cy="0" r="1" gradientUnits="userSpaceOnUse" gradientTransform="translate(1381.7 601.461) rotate(144.557) scale(46.3142)">
<stop offset="0.00537634" stop-color="#A02CC2"/>
<stop offset="1" stop-color="#371582"/>
</radialGradient>
<radialGradient id="paint25_radial" cx="0" cy="0" r="1" gradientUnits="userSpaceOnUse" gradientTransform="translate(1397.86 635.112) rotate(144.557) scale(28.2722)">
<stop offset="0.00537634" stop-color="#A02CC2"/>
<stop offset="1" stop-color="#371582"/>
</radialGradient>
<radialGradient id="paint26_radial" cx="0" cy="0" r="1" gradientUnits="userSpaceOnUse" gradientTransform="translate(1379.61 613.787) rotate(144.556) scale(24.9767 12.6747)">
<stop stop-color="#371582"/>
<stop offset="0.9946" stop-color="#A02CC2"/>
</radialGradient>
<linearGradient id="paint27_linear" x1="1242.38" y1="586.488" x2="1221.55" y2="601.312" gradientUnits="userSpaceOnUse">
<stop offset="0.00537634" stop-color="#A02CC2"/>
<stop offset="0.0148044" stop-color="#9F2CC1"/>
<stop offset="0.3274" stop-color="#7222A6"/>
<stop offset="0.607" stop-color="#521B92"/>
<stop offset="0.8407" stop-color="#3E1786"/>
<stop offset="1" stop-color="#371582"/>
</linearGradient>
<linearGradient id="paint28_linear" x1="1242.41" y1="587.729" x2="1226.79" y2="598.847" gradientUnits="userSpaceOnUse">
<stop offset="0.00537634" stop-color="#A02CC2"/>
<stop offset="0.0148044" stop-color="#9F2CC1"/>
<stop offset="0.3274" stop-color="#7222A6"/>
<stop offset="0.607" stop-color="#521B92"/>
<stop offset="0.8407" stop-color="#3E1786"/>
<stop offset="1" stop-color="#371582"/>
</linearGradient>
<radialGradient id="paint29_radial" cx="0" cy="0" r="1" gradientUnits="userSpaceOnUse" gradientTransform="translate(1307.63 656.625) rotate(144.557) scale(52.0086)">
<stop offset="0.00537634" stop-color="#A02CC2"/>
<stop offset="1" stop-color="#371582"/>
</radialGradient>
<radialGradient id="paint30_radial" cx="0" cy="0" r="1" gradientUnits="userSpaceOnUse" gradientTransform="translate(1305.49 658.205) rotate(144.557) scale(44.7636)">
<stop offset="0.00537634" stop-color="#A02CC2"/>
<stop offset="1" stop-color="#371582"/>
</radialGradient>
<radialGradient id="paint31_radial" cx="0" cy="0" r="1" gradientUnits="userSpaceOnUse" gradientTransform="translate(1322.93 690.574) rotate(144.557) scale(28.272)">
<stop offset="0.00537634" stop-color="#A02CC2"/>
<stop offset="1" stop-color="#371582"/>
</radialGradient>
<radialGradient id="paint32_radial" cx="0" cy="0" r="1" gradientUnits="userSpaceOnUse" gradientTransform="translate(1304.68 669.25) rotate(144.556) scale(24.9766 12.6747)">
<stop stop-color="#371582"/>
<stop offset="0.9946" stop-color="#A02CC2"/>
</radialGradient>
<linearGradient id="paint33_linear" x1="1281.41" y1="516.223" x2="1219.3" y2="560.435" gradientUnits="userSpaceOnUse">
<stop offset="0.00537634" stop-color="#A02CC2"/>
<stop offset="1" stop-color="#371582"/>
</linearGradient>
<linearGradient id="paint34_linear" x1="1282.03" y1="518.172" x2="1232.95" y2="553.112" gradientUnits="userSpaceOnUse">
<stop offset="0.00537634" stop-color="#A02CC2"/>
<stop offset="1" stop-color="#371582"/>
</linearGradient>
<linearGradient id="paint35_linear" x1="1297.69" y1="520.231" x2="1254.57" y2="614.912" gradientUnits="userSpaceOnUse">
<stop offset="0.00537634" stop-color="#DE3DBF"/>
<stop offset="1" stop-color="#67219E"/>
</linearGradient>
<radialGradient id="paint36_radial" cx="0" cy="0" r="1" gradientUnits="userSpaceOnUse" gradientTransform="translate(1307.77 486.585) rotate(144.559) scale(131.64 171.847)">
<stop stop-color="#67219E"/>
<stop offset="0.9946" stop-color="#DE3DBF"/>
</radialGradient>
<radialGradient id="paint37_radial" cx="0" cy="0" r="1" gradientUnits="userSpaceOnUse" gradientTransform="translate(1310.13 488.386) rotate(144.557) scale(161.833)">
<stop offset="0.00537634" stop-color="#DE3DBF"/>
<stop offset="1" stop-color="#67219E"/>
</radialGradient>
<radialGradient id="paint38_radial" cx="0" cy="0" r="1" gradientUnits="userSpaceOnUse" gradientTransform="translate(1335.9 530.631) rotate(144.557) scale(109.595)">
<stop offset="0.00537634" stop-color="#DE3DBF"/>
<stop offset="1" stop-color="#67219E"/>
</radialGradient>
<radialGradient id="paint39_radial" cx="0" cy="0" r="1" gradientUnits="userSpaceOnUse" gradientTransform="translate(1244.19 535.325) rotate(144.557) scale(161.834)">
<stop offset="0.00537634" stop-color="#DE3DBF"/>
<stop offset="1" stop-color="#67219E"/>
</radialGradient>
<radialGradient id="paint40_radial" cx="0" cy="0" r="1" gradientUnits="userSpaceOnUse" gradientTransform="translate(1243.62 595.622) rotate(144.557) scale(110.193)">
<stop offset="0.00537634" stop-color="#DE3DBF"/>
<stop offset="1" stop-color="#67219E"/>
</radialGradient>
<linearGradient id="paint41_linear" x1="1149.58" y1="633.378" x2="1238.14" y2="577.315" gradientUnits="userSpaceOnUse">
<stop offset="0.00537634" stop-color="#DE3DBF"/>
<stop offset="1" stop-color="#67219E"/>
</linearGradient>
<linearGradient id="paint42_linear" x1="1283.39" y1="547.967" x2="1248.53" y2="572.779" gradientUnits="userSpaceOnUse">
<stop offset="0.00537634" stop-color="#DE3DBF"/>
<stop offset="1" stop-color="#67219E"/>
</linearGradient>
<linearGradient id="paint43_linear" x1="1379.43" y1="666.464" x2="1295.69" y2="666.464" gradientUnits="userSpaceOnUse">
<stop offset="0.00537634" stop-color="#DE3DBF"/>
<stop offset="1" stop-color="#67219E"/>
</linearGradient>
<linearGradient id="paint44_linear" x1="1226.93" y1="487.878" x2="1202.05" y2="505.583" gradientUnits="userSpaceOnUse">
<stop offset="0.00537634" stop-color="#DE3DBF"/>
<stop offset="1" stop-color="#67219E"/>
</linearGradient>
<linearGradient id="paint45_linear" x1="1203.63" y1="457.344" x2="1173.54" y2="475.836" gradientUnits="userSpaceOnUse">
<stop offset="0.00537634" stop-color="#DE3DBF"/>
<stop offset="1" stop-color="#67219E"/>
</linearGradient>
<linearGradient id="paint46_linear" x1="1297.26" y1="614.177" x2="1363.73" y2="700.975" gradientUnits="userSpaceOnUse">
<stop offset="0.00537634" stop-color="#DE3DBF"/>
<stop offset="1" stop-color="#67219E"/>
</linearGradient>
<clipPath id="clip0">
<rect width="1920" height="1080" fill="white"/>
</clipPath>
</defs>
</svg>
