<svg width="17" height="19" viewBox="0 0 17 19" fill="none" xmlns="http://www.w3.org/2000/svg">
<path d="M10.8999 17.2098C10.1088 17.2098 9.33542 16.9407 8.67762 16.4364C8.01983 15.9321 7.50714 15.2154 7.20439 14.3768C6.90164 13.5382 6.82242 12.6154 6.97676 11.7252C7.1311 10.835 7.51207 10.0172 8.07148 9.37542C8.63089 8.7336 9.34362 8.29651 10.1195 8.11943C10.8955 7.94236 11.6997 8.03324 12.4306 8.38059C13.1615 8.72794 13.7863 9.31616 14.2258 10.0709C14.6653 10.8256 14.8999 11.7129 14.8999 12.6205C14.8999 13.8377 14.4785 15.005 13.7283 15.8657C12.9782 16.7263 11.9608 17.2098 10.8999 17.2098ZM10.8999 9.17857C10.3066 9.17857 9.72654 9.38044 9.23319 9.75865C8.73984 10.1369 8.35533 10.6744 8.12827 11.3034C7.9012 11.9323 7.84179 12.6244 7.95755 13.292C8.0733 13.9597 8.35903 14.573 8.77858 15.0544C9.19814 15.5357 9.73269 15.8636 10.3146 15.9964C10.8966 16.1292 11.4998 16.061 12.048 15.8005C12.5961 15.54 13.0647 15.0988 13.3943 14.5328C13.724 13.9668 13.8999 13.3013 13.8999 12.6205C13.8999 11.7077 13.5838 10.8322 13.0212 10.1867C12.4586 9.54121 11.6956 9.17857 10.8999 9.17857Z" fill="#F9F9F9"/>
<path d="M11.6949 14.3416L10.3999 12.8558V10.3259H11.3999V12.3854L12.3999 13.5327L11.6949 14.3416Z" fill="#F9F9F9"/>
<path d="M14.3999 3.44186C14.3999 3.13757 14.2945 2.84575 14.107 2.63058C13.9195 2.41542 13.6651 2.29454 13.3999 2.29454H11.3999V1.14722H10.3999V2.29454H6.3999V1.14722H5.3999V2.29454H3.3999C3.13469 2.29454 2.88033 2.41542 2.6928 2.63058C2.50526 2.84575 2.3999 3.13757 2.3999 3.44186V14.9151C2.3999 15.2194 2.50526 15.5112 2.6928 15.7264C2.88033 15.9415 3.13469 16.0624 3.3999 16.0624H5.3999V14.9151H3.3999V3.44186H5.3999V4.58918H6.3999V3.44186H10.3999V4.58918H11.3999V3.44186H13.3999V6.88383H14.3999V3.44186Z" fill="#F9F9F9"/>
</svg>
